<?xml version="1.0" encoding="UTF-8"?>
<svg id="Layer_1" xmlns="http://www.w3.org/2000/svg" version="1.1" viewBox="0 0 183 40">
  <!-- Generator: Adobe Illustrator 29.4.0, SVG Export Plug-In . SVG Version: 2.1.0 Build 152)  -->
  <defs>
    <style>
      .st0 {
        fill: #221f20;
      }
    </style>
  </defs>
  <path class="st0" d="M25.14,22.31v-12.91c0-1.57-1.26-2.83-2.83-2.83h-.89c-1.57,0-2.83-1.26-2.83-2.83v-.89C18.59,1.28,17.32.02,15.76.02H0v31.68h15.74c1.57,0,2.83-1.26,2.83-2.83v-.89c0-1.57-1.26-2.83-2.83-2.83h-6.36c-1.57,0-2.83-1.26-2.83-2.83v-12.91c0-1.57,1.26-2.83,2.83-2.83h6.36c1.57,0,2.83,1.26,2.83,2.83v12.91c0,1.57,1.26,2.83,2.83,2.83h.89c1.58,0,2.84-1.26,2.84-2.83Z"/>
  <path class="st0" d="M27.73,21.46c0-5.89,4.62-10.43,10.51-10.43,5.48,0,9.77,4.24,9.77,9.64,0,.7-.04,1.65-.16,2.43h-14.46c.54,2.6,2.39,4,5.11,4,1.81,0,3.67-.87,4.37-2.06l4.57,2.8c-1.48,2.68-4.86,4.24-9.07,4.24-5.93,0-10.63-4.62-10.63-10.63ZM42.16,19.15c-.29-1.94-2.06-3.3-4.2-3.3-2.39,0-3.91,1.2-4.53,3.3h8.74Z"/>
  <path class="st0" d="M49.4,29.2l2.18-4.33c1.52,1.4,4.66,2.39,6.92,2.39,1.4,0,2.39-.62,2.39-1.44,0-2.64-10.63-.62-10.63-8.08,0-3.96,3.38-6.72,8.24-6.72,2.8,0,5.85.7,7.87,2.31l-2.14,4.49c-1.77-1.32-4.86-1.98-6.35-1.98-1.11,0-1.85.54-1.85,1.36,0,2.43,10.71,1.15,10.71,8.41,0,3.75-3.38,6.51-8.12,6.51-3.46,0-7.13-1.15-9.23-2.93Z"/>
  <path class="st0" d="M75.92,5.14c0,1.94-1.61,3.54-3.54,3.54s-3.54-1.61-3.54-3.54,1.61-3.5,3.54-3.5,3.54,1.61,3.54,3.5ZM75.26,11.45v20.23h-5.81V11.45h5.81Z"/>
  <path class="st0" d="M79.08,36.79l2.84-4.04c1.81,1.4,4.08,2.02,6.47,2.02s5.32-1.77,5.32-4.53v-1.98c-1.4,2.06-3.54,3.21-6.39,3.21-5.27,0-9.44-4.62-9.44-10.26s4.16-10.18,9.44-10.18c2.84,0,4.99,1.15,6.39,3.17v-2.8h5.81v18.83c0,6.1-5.03,9.77-11.13,9.77-3.34,0-7.34-1.19-9.31-3.21ZM93.71,21.21c0-2.72-2.23-4.82-5.07-4.82s-5.07,2.14-5.07,4.82,2.27,4.86,5.07,4.86,5.07-2.1,5.07-4.86Z"/>
  <path class="st0" d="M109.11,14.08c1.28-1.94,3.17-3.05,5.48-3.05,5.19,0,8.32,3.46,8.32,9.19v11.46h-5.81v-10.71c0-2.64-1.61-4.37-4-4.37s-4,1.73-4,4.37v10.71h-5.81V11.44h5.81v2.64Z"/>
  <path class="st0" d="M132.46,31.68h-5.81V0h5.81v31.68Z"/>
  <path class="st0" d="M156.92,31.68h-5.81v-2.88c-1.4,2.1-3.54,3.3-6.39,3.3-5.27,0-9.44-4.74-9.44-10.55s4.16-10.51,9.44-10.51c2.84,0,4.99,1.2,6.39,3.3v-2.88h5.81v20.23ZM151.11,21.54c0-2.8-2.23-4.99-5.07-4.99s-5.07,2.23-5.07,4.99,2.27,4.99,5.07,4.99,5.07-2.14,5.07-4.99Z"/>
  <path class="st0" d="M166.51,0v14.33c1.4-2.1,3.54-3.3,6.39-3.3,5.27,0,9.44,4.7,9.44,10.51s-4.16,10.55-9.44,10.55c-2.84,0-4.99-1.2-6.39-3.3v2.88h-5.81V0h5.81ZM176.65,21.54c0-2.76-2.27-4.99-5.07-4.99s-5.07,2.18-5.07,4.99,2.22,4.99,5.07,4.99,5.07-2.18,5.07-4.99Z"/>
</svg>