<?xml version="1.0" encoding="utf-8"?>
<!-- Generator: Adobe Illustrator 29.4.0, SVG Export Plug-In . SVG Version: 9.03 Build 0)  -->
<svg version="1.0" id="Layer_1" xmlns="http://www.w3.org/2000/svg" xmlns:xlink="http://www.w3.org/1999/xlink" x="0px" y="0px"
	 viewBox="0 0 900 294" style="enable-background:new 0 0 900 294;" xml:space="preserve">
<style type="text/css">
	.st0{fill:#232323;}
	.st1{fill-rule:evenodd;clip-rule:evenodd;fill:#232323;}
</style>
<path class="st0" d="M160.45,20.6c-0.36-1.23-0.86-2.56-2.52-2.55c-1.48,0-2.13,1.09-2.13,2.12c0,1.41,0.93,2.06,2.45,2.84
	l0.06,0.04c1.49,0.76,3.27,1.67,3.28,3.79c0,2.02-1.7,3.64-4.26,3.65c-0.78,0-1.41-0.15-1.89-0.28c-0.48-0.17-0.77-0.31-0.94-0.4
	c-0.16-0.4-0.42-2.06-0.53-2.98l0.55-0.13c0.32,1.18,1.19,3.11,3.16,3.11c1.45,0,2.3-0.91,2.3-2.32c0-1.42-1.07-2.09-2.51-2.85
	l-0.11-0.06c-1.24-0.65-3.06-1.62-3.07-3.72c0-1.85,1.47-3.43,3.96-3.44c0.88,0,1.69,0.21,2.43,0.43c0.07,0.62,0.16,1.29,0.29,2.29
	l0.05,0.37l-0.56,0.12V20.6z"/>
<path class="st0" d="M150.48,30.47c0.1-0.61,0.28-2.45,0.32-3.1h-0.59c-0.16,0.78-0.44,1.47-0.72,1.9
	c-0.37,0.55-0.88,0.76-2.33,0.93c-0.96,0.11-1.63,0.17-2.02-0.01c-0.37-0.21-0.54-0.6-0.64-1.49l-0.42-3.61l1.81-0.21
	c1.67-0.2,1.81-0.1,2.22,1.25l0.55-0.06l-0.43-3.68l-0.55,0.06c-0.1,1.31-0.17,1.47-1.9,1.68l-1.8,0.21l-0.5-4.34
	c-0.07-0.58-0.04-0.61,0.56-0.69l1.45-0.17c1.37-0.16,1.91-0.09,2.22,0.28c0.29,0.39,0.54,0.8,0.8,1.57l0.54-0.16
	c-0.05-0.28-0.11-0.6-0.16-0.92c-0.13-0.75-0.27-1.48-0.31-1.81l-8.53,0.99l0.06,0.54c1.51-0.04,1.67,0,1.86,1.71l0.88,7.61
	c0.18,1.54,0.05,1.71-1.68,2.06l0.06,0.54l9.21-1.07L150.48,30.47z"/>
<path class="st1" d="M128.73,21.44c2.38-0.56,4.25-0.5,5.67,0.32c1.13,0.67,2.11,1.89,2.54,3.65c0.54,2.24,0.07,4.12-1.1,5.55
	c-1.14,1.42-2.88,2.33-5.18,2.88l-4.43,1.07l-0.12-0.5c1.58-0.5,1.7-0.65,1.32-2.24l-1.8-7.5c-0.38-1.6-0.55-1.64-2.02-1.42
	l-0.13-0.54l5.26-1.26L128.73,21.44z M129,31.64c0.34,1.42,1.04,1.63,2.41,1.3c3.5-0.83,4.48-3.85,3.76-6.84
	c-0.47-1.92-1.57-3.42-3.28-3.94c-0.97-0.34-2.11-0.31-3.37,0c-0.78,0.18-1.25,0.4-1.41,0.58c-0.16,0.17-0.16,0.39,0,1.13l1.86,7.78
	H129z"/>
<path class="st0" d="M112,28.51c-0.28-0.81,0.04-1.22,0.99-1.71l-0.22-0.49l-4.14,1.86l0.22,0.49c1.24-0.48,1.76-0.44,2.21,0.31
	c0.27,0.47,0.71,1.24,1.43,2.85l1.95,4.31l-0.05,0.02l-11.28-5.5l-2.6,1.18l0.22,0.49c0.86-0.31,1.3-0.33,1.85-0.06
	c0.5,0.28,0.58,0.33,1.15,1.62l1.74,3.86c0.72,1.62,1.05,2.47,1.25,3.05c0.29,0.89-0.04,1.32-1.03,1.84l0.22,0.49l4.15-1.87
	l-0.22-0.49c-1.22,0.47-1.73,0.44-2.22-0.42c-0.28-0.49-0.71-1.3-1.45-2.92l-1.98-4.4h0.04l11.61,5.81l0.54-0.24l-3.19-7.07
	c-0.74-1.63-1.05-2.44-1.22-2.99L112,28.51z"/>
<path class="st1" d="M100.01,39.04c2.19,3.53,1.08,7.22-1.91,9.08c-2.95,1.84-6.74,1-8.7-2.12c-1.84-2.94-1.48-6.95,1.95-9.08
	c2.77-1.73,6.61-1.14,8.65,2.13L100.01,39.04z M90.79,44.49c1.91,3.06,4.99,4.25,7.29,2.82c1.81-1.13,2.5-3.66,0.54-6.8
	c-2.14-3.44-5.08-4.15-7.22-2.82C89.58,38.83,88.89,41.44,90.79,44.49z"/>
<path class="st0" d="M85.99,55.71l0.33,0.43l4.03-3.12l-0.33-0.43c-1.32,0.87-1.49,0.89-2.51-0.42l-4.72-6.09
	c-1-1.29-0.96-1.48,0.23-2.54l-0.33-0.43l-4.03,3.12L79,46.67c1.32-0.87,1.51-0.88,2.51,0.42l4.72,6.09c1,1.3,0.96,1.48-0.22,2.54
	H85.99z"/>
<path class="st0" d="M77.13,51.32c-0.78-0.53-1.24-0.76-1.62-0.83c-0.54-0.12-0.87,0-1.92,0.98l-0.99,0.93l6.47,6.92
	c1.04,1.11,1.29,1.15,2.69-0.01l0.37,0.39l-4.04,3.77l-0.37-0.39c1.2-1.27,1.18-1.53,0.15-2.63l-6.47-6.92l-0.87,0.81
	c-1.16,1.09-1.35,1.47-1.22,1.96c0.05,0.39,0.31,0.89,0.72,1.68l-0.4,0.38c-0.72-0.91-1.51-1.89-2.19-2.69l0.28-0.26
	c0.5,0.13,0.71,0,1.1-0.37l5.55-5.19c0.38-0.36,0.42-0.54,0.39-1.02l0.29-0.28c0.6,0.65,1.63,1.6,2.46,2.35l-0.37,0.43L77.13,51.32z
	"/>
<path class="st0" d="M73.46,67.82c-0.26-0.67-1.04-1.96-1.54-2.73l-0.53,0.29c0.85,1.97,0.99,3.45-0.28,4.95
	c-1.89,2.23-5.13,2.27-7.89-0.06c-2.23-1.89-3.2-4.95-1.13-7.4c1.34-1.59,2.72-1.94,4.59-1l0.27-0.53c-0.72-0.49-1.31-0.86-2.03-1.3
	l-0.44-0.28c-0.1,0.09-0.23,0.18-0.39,0.29c-0.55,0.4-1.42,1.05-2.21,1.97c-2.77,3.28-2.73,7.39,0.36,10
	c2.34,1.97,6.22,2.51,9.31-1.15c0.89-1.05,1.64-2.55,1.89-3.04L73.46,67.82z"/>
<path class="st1" d="M62.97,81.6l-0.45-0.29c0.54-1.1,0.5-1.32-0.26-1.53c-0.58-0.16-1.34-0.33-2.19-0.54l-0.87-0.21l-2.25,3.43
	l0.07,0.1c0.53,0.7,1.02,1.35,1.53,1.97c0.78,1.02,1.04,0.98,1.95-0.15l0.45,0.29l-2.29,3.49l-0.45-0.29
	c0.53-1.1,0.58-1.4-0.48-2.89l-6.26-8.88l0.18-0.59c1.19,0.28,2.41,0.59,3.66,0.88l0,0c2.34,0.56,4.72,1.15,6.98,1.68
	c1.71,0.39,2.01,0.28,2.78-0.7l0.45,0.29l-2.58,3.94L62.97,81.6z M53.35,77.52l-0.02,0.04c0.98,1.34,1.97,2.68,2.92,3.96l0.18,0.26
	l1.95-2.96l-5.03-1.27L53.35,77.52z"/>
<path class="st1" d="M57.56,90.47c0.12-0.2,0.22-0.39,0.32-0.6l-0.42-0.29c-0.29,0.33-0.67,0.64-1.42,0.85
	c-0.65,0.2-1.29,0.33-2.49,0.51c-1.03,0.13-2.55,0.28-3.26,0.29c0.07-1.56-0.38-2.92-1.86-3.65c-1.03-0.51-2.03-0.45-2.83,0.02
	c-0.76,0.44-1.32,1.21-1.95,2.47l-2.12,4.28l0.48,0.24c0.78-1.29,0.91-1.4,2.38-0.67l6.93,3.43c1.47,0.72,1.49,0.93,0.89,2.4
	l0.49,0.24l2.24-4.53l-0.48-0.24c-0.78,1.34-0.97,1.43-2.44,0.71l-2.74-1.36l0.27-0.55c0.44-0.89,0.8-1.09,1.42-1.14
	c0.23-0.02,0.48-0.04,0.74-0.06l0,0l0,0c0.94-0.07,1.98-0.17,2.88-0.31c1.51-0.22,2.24-0.76,2.95-2.02L57.56,90.47z M49.57,91.32
	c0.13,0.6,0,1.24-0.45,2.12l-0.4,0.83l-4.24-2.11c-0.47-0.23-0.64-0.4-0.66-0.56c-0.04-0.18,0.04-0.51,0.29-1.02
	c0.65-1.31,1.95-2.19,3.81-1.27c0.93,0.47,1.48,1.08,1.67,2.01L49.57,91.32z"/>
<path class="st0" d="M48.79,101.47c0.56,0.32,2.13,1.3,2.63,1.67l-3.16,8.72l-0.5-0.18c0.47-1.69,0.38-1.89-1.09-2.43l-7.2-2.61
	c-1.63-0.59-1.74-0.47-2.38,0.91l-0.5-0.18l2.93-8.07c0.32,0.11,1.03,0.32,1.75,0.54c0.31,0.09,0.62,0.18,0.91,0.27l-0.1,0.55
	c-0.82-0.11-1.29-0.07-1.76,0.01c-0.48,0.11-0.77,0.56-1.25,1.86l-0.5,1.37c-0.21,0.56-0.18,0.61,0.37,0.81l4.1,1.48l0.61-1.7
	c0.59-1.63,0.48-1.78-0.65-2.45l0.2-0.53l3.48,1.26l-0.2,0.53c-1.38-0.23-1.54-0.15-2.11,1.42l-0.62,1.71l3.42,1.24
	c0.85,0.31,1.27,0.34,1.62,0.1c0.34-0.27,0.59-0.89,0.92-1.8c0.5-1.37,0.54-1.94,0.21-2.5c-0.24-0.44-0.75-1-1.38-1.51l0.27-0.51
	L48.79,101.47z"/>
<path class="st0" d="M36.27,112.87c0.36-0.16,0.86-0.21,1.81-0.2l0.07-0.55c-1.1-0.17-2.5-0.4-3.36-0.61l-0.1,0.39
	c0.28,0.38,0.36,0.56,0.24,1.07l-1.78,7.39c-0.12,0.53-0.22,0.76-0.71,0.92l-0.09,0.38c1.02,0.28,2.22,0.67,3.31,1.03l0.13-0.54
	c-0.77-0.42-1.26-0.7-1.52-0.99c-0.37-0.34-0.43-0.76-0.06-2.32l0.28-1.16l9.21,2.21c1.48,0.36,1.63,0.55,1.34,2.28l0.53,0.12
	l1.29-5.37l-0.53-0.12c-0.54,1.75-0.76,1.85-2.24,1.51l-9.2-2.21l0.32-1.32c0.34-1.41,0.54-1.69,1.07-1.89L36.27,112.87z"/>
<path class="st0" d="M32.53,126.06c-0.06,1.08,0.13,1.57,0.97,1.74c0.56,0.13,1.42,0.27,3.2,0.47l7.71,0.85l-0.06,0.59l-10.93,7.04
	v0.04l4.8,0.53c1.76,0.2,2.68,0.23,3.25,0.24c0.99,0.01,1.26-0.4,1.48-1.69l0.54,0.06l-0.5,4.53l-0.54-0.06
	c0.06-1.11-0.13-1.62-1.05-1.83c-0.59-0.12-1.49-0.28-3.26-0.48l-4.21-0.47c-1.4-0.16-1.48-0.12-1.97,0.17
	c-0.53,0.33-0.72,0.74-0.89,1.63l-0.54-0.06l0.32-2.83l10.49-6.92v-0.06l-4.7-0.51c-1.76-0.2-2.65-0.22-3.19-0.22
	c-0.87,0-1.18,0.43-1.4,1.74l-0.54-0.06l0.5-4.51l0.54,0.06L32.53,126.06z"/>
<path class="st0" d="M42.43,148.58h0.54l0.04-5.1h-0.54c-0.12,1.57-0.22,1.73-1.87,1.71l-7.69-0.06c-1.64-0.01-1.75-0.17-1.85-1.75
	h-0.54l-0.04,5.1h0.54c0.12-1.58,0.24-1.73,1.87-1.71l7.69,0.06C42.22,146.84,42.33,147,42.43,148.58z"/>
<path class="st1" d="M233.81,225.77H85.75c-0.62,0-1.14-0.51-1.14-1.14l0,0c0-0.62,0.51-1.14,1.14-1.14h55.79
	c2.82-1.51,4.9-3.09,5.22-4.68c0.88-4.41,2.65-14.09,0-23.34c-2.65-6.92-9.3-11.67-16.97-14.93c-2.28,0.33-5.02,1.27-7.24,3.55
	c1.95,1.65,3.34,2.51,3.52,2.61c0,0-7.99,5.64-9.84,10.39c-1.16-1.51-5.73-6.08-7.55-6.71c0.85-1.79,5.13-8.21,9.97-10.25
	c0.48,0.76,1.26,1.62,2.13,2.44c1.4-1.31,3.23-2.6,5.57-3.36c-8.18-2.94-16.97-4.39-23.13-5.1c-0.16,2.13-0.15,4.52,0.04,7.61
	c-12.42-2.06-25.24,3.27-25.24,3.27c-0.12-0.64-2.57-13.32,0.31-20.58c5.35-1.98,19.29,0.24,26.37,1.76
	c-0.58,1.98-0.98,3.74-1.24,5.59c6.04-0.93,11.55-1.08,16.54-0.71c-1.87-2.61-5.26-6.1-11.12-8.77c-5.66-2.58-9.82-5.93-12.49-8.5
	c-2.56,1.08-4.97,2.39-6.43,3.47c-1.24-7.57-5.41-18.26-10.62-22.77c0,0,13.1-3.15,18.53-7.25c0.06,0.42,0.11,0.86,0.17,1.31l0,0
	c0.87,6.54,2.38,17.79,6.21,23.1c-1.92,0.04-4.02,0.58-6.58,1.6c3.49,2.98,7.78,5.62,14.15,7.3c-0.32-1.45-0.62-3.64-0.27-6.44
	c-1,0-1.48,0.1-2.55,0.28c-0.34-3.11-0.7-9.2,0.39-11.4c3.25-0.92,8.59,0.69,8.86,0.77c0,0-2.85,5.27-2.51,10.69
	c-1.4-0.22-1.46-0.21-2.43-0.23c-0.17,3.14,0.11,5.08,0.96,6.91c7.66,2.44,11.22,7.26,13.49,10.91c4.4,0.82,7.68,1.78,11.04,2.98
	c-0.06-1.45-0.21-3.85-1.26-5.83c-0.86,0.23-1.52,0.54-2.51,1.02c-0.94-5.35-4.95-9.81-4.95-9.81c0.28-0.16,5.07-2.95,8.43-2.83
	c1.58,1.9,2.66,7.9,3.05,11c-1.19,0.07-1.31,0-2.4,0.28c1.26,2.61,1.63,4.81,1.86,6.99c2.38,0.91,4.47,1.8,6.27,2.57l0.74,0.32
	c1.63-12.83-4.67-23.3-8.99-28.8c-2.94,2.19-5.75,4.54-6.93,5.76c-2.32-8.94-15.52-20.73-15.52-20.73
	c0.53-0.26,11.16-5.81,14.69-10.3c8.27,4.68,14.63,17.13,15.81,20.52c-1.45,0.33-3.91,1.81-6.46,3.61c1.92,1.42,4.24,3.44,6.71,6.28
	c1.15,1.31,2.17,2.83,3.11,4.5c1.25-1.1,2.94-2.85,4.16-5.13c-1.79-0.62-3.48-1.14-4.34-1.31c3.75-4.1,5.37-14.65,5.37-14.65
	c0.31,0.18,6.6,3.72,10.03,4.03c0.36,5.71-3.83,13.02-5.17,14.72c-0.67-0.66-2.4-1.47-4.28-2.21c-0.7,2.33-2.06,4.9-4.26,7.45
	c2.08,4.41,3.74,9.51,5.34,14.48c0.44,1.35,0.87,2.68,1.31,3.99c15.89-13.24,11.31-37.84,8.02-49.26c-2.17,1.42-4.42,3.2-7.28,5.76
	c-6.82-12.3-20.37-19.8-20.37-19.8c0.47-0.55,9.86-11.49,18.2-14.03c5.46,3.31,13.18,17.05,16.77,24.3
	c-2.19,0.89-4.05,1.79-5.89,2.88c3.87,5.45,6.6,12.27,8.16,19.33c2.08-2.01,4.57-3.86,6.93-5.43c-0.87-0.7-1.65-1.25-2.19-1.43
	c0.86-1.79,5.15-8.21,9.98-10.25c1.65,2.68,7.13,6.42,7.4,6.58c0,0-7.99,5.63-9.82,10.39c-0.64-0.81-2.27-2.51-3.91-4.02
	c-3.66,4.46-5.97,10.24-7.06,13.49c0.42,5.87,0,11.5-1.34,16.21c3.7-2.3,8.8-3.74,14.42-4.51c0.59-5.39,5.08-9.51,8.94-12.07
	c-1.56-1.9-3.16-3.42-5.17-5.11c5.02-5.22,15.31-14.88,20.87-16.23c6.44,4.41,11.53,16.28,11.77,16.89c0,0-13.6,2.76-22.74,11.42
	c-1.38-2.34-2.58-4.16-3.76-5.72c-3.47,4.2-4.53,8.43-4.84,10.3c6.75-0.48,13.88-0.17,20.13,0.6c0.56-3.12,0.88-6.04,0.56-7.51
	c3.58-0.38,17.54,0.15,25.27,5.66c-2.58,5.1-3.12,17.08-3.14,17.66c0,0-16.27-6.99-25.33-5.32c0.58-1.53,1.48-4.86,2.2-8.32
	c-12.84-0.23-20.91,1.54-27.31,4.81c4.28,0.38,7.07,0.96,8.87,1.52c0.62-1.35,1.08-2.58,1.11-3.31c1.96,0.32,9.32,2.65,12.63,6.71
	c-2.12,2.34-4.16,8.64-4.25,8.95c0,0-7.64-6.1-12.72-6.54c0.61-0.86,1.42-2.01,2.41-4.05c-3.06-0.82-7.52-1.46-11.64-0.8
	c-2.36,1.52-4.34,2.7-6.54,4.63c-2.69,2.35-4.72,5.48-6.1,8.92c1.04,1.53,1.7,3.72,1.7,6.19c0,3.98-1.7,7.29-3.99,8.13
	c0.31,5.51,1.98,10.46,4.9,13.33c0.59,0.53,1.3,1.07,2.14,1.57h57.13c0.62,0,1.14,0.51,1.14,1.14l0,0c0,0.62-0.51,1.14-1.14,1.14
	L233.81,225.77z M170.32,199.56c0.21-2.33-0.61-4.31-1.84-4.41c-1.23-0.11-2.39,1.69-2.6,4.02c-0.2,2.33,0.62,4.3,1.84,4.41
	C168.95,203.69,170.1,201.89,170.32,199.56z"/>
<path class="st0" d="M164.53,29.71l-0.04,0.54l5.1,0.32l0.04-0.54c-1.57-0.21-1.71-0.32-1.62-1.97l0.48-7.68
	c0.1-1.63,0.26-1.74,1.85-1.76l0.04-0.54l-5.1-0.31l-0.04,0.54c1.57,0.21,1.71,0.34,1.62,1.97l-0.47,7.68
	c-0.1,1.63-0.26,1.74-1.85,1.76L164.53,29.71z"/>
<path class="st0" d="M185.68,27.49c-1.16-0.01-1.26,0.07-1.45,1.19l-0.26,1.62c-0.11,0.66-0.18,1.27-0.16,1.8l-0.33,0.02
	c-1.18,0.1-2.65,0.21-4.04,0c-4.18-0.67-6.55-3.72-5.94-7.48c0.71-4.41,4.59-5.98,8.32-5.38c1.34,0.22,2.54,0.72,3.23,1
	c0.12,0.05,0.23,0.1,0.32,0.13c-0.05,0.67-0.12,1.74-0.17,3.01l-0.55,0.02c-0.09-2.39-1.42-3.25-3.22-3.54
	c-2.9-0.47-5.38,1.31-5.94,4.83c-0.44,2.73,0.66,6.19,4.32,6.77c0.65,0.11,1.26,0.06,1.71-0.07c0.42-0.15,0.67-0.34,0.81-1.14
	l0.26-1.62c0.22-1.37,0.11-1.51-1.73-1.96l0.09-0.51l4.83,0.78l-0.09,0.51L185.68,27.49z"/>
<path class="st0" d="M201.62,26.26c0.32-0.78,0.83-0.89,1.89-0.64l0.16-0.51l-4.35-1.31l-0.16,0.51c1.25,0.45,1.62,0.83,1.46,1.69
	c-0.1,0.53-0.28,1.4-0.8,3.1l-1.37,4.53h-0.06l-4.89-11.59l-2.73-0.82l-0.16,0.51c0.85,0.33,1.2,0.6,1.43,1.18
	c0.2,0.54,0.21,0.62-0.2,1.97l-1.22,4.05c-0.51,1.69-0.83,2.56-1.07,3.11c-0.37,0.87-0.89,0.98-1.98,0.71l-0.16,0.51l4.36,1.32
	l0.16-0.51c-1.23-0.45-1.58-0.8-1.4-1.76c0.11-0.55,0.32-1.45,0.83-3.15l1.4-4.62h0.04l4.92,12.03l0.58,0.17l2.24-7.42
	c0.51-1.71,0.81-2.54,1.04-3.06L201.62,26.26z"/>
<path class="st1" d="M223.83,49.62c2.94,1.94,6.76,1.42,9.05-2.05c2.12-3.21,1.07-6.96-1.67-8.76c-3.37-2.23-7.17-0.88-9.08,2.01
	C220.1,43.92,220.93,47.7,223.83,49.62L223.83,49.62z M224.54,49.27c-2.27-1.49-2.46-4.79-0.48-7.8c1.98-3,4.64-3.47,6.43-2.28
	c2.11,1.38,2.68,4.36,0.45,7.74C228.91,50.02,226.31,50.45,224.54,49.27L224.54,49.27z"/>
<path class="st0" d="M249.37,54.22c-0.92-0.7-1.43-0.78-2.02-0.26c-0.38,0.36-0.96,0.96-2.12,2.29l-1.05,1.2
	c-1.49,1.71-2.83,2.72-4.43,2.87c-1.27,0.11-2.51-0.43-3.47-1.26c-0.85-0.74-1.51-1.67-1.71-2.72c-0.29-1.42,0.26-2.87,1.73-4.57
	l3.16-3.63c1.14-1.31,1.08-1.47,0.01-2.56l0.36-0.4l3.76,3.27l-0.36,0.4c-1.21-0.93-1.4-0.94-2.54,0.37l-2.88,3.31
	c-2.03,2.34-2.27,4.48-0.47,6.05c2.09,1.83,4.26,0.65,6.35-1.75l0.96-1.1c1.16-1.34,1.65-1.98,1.98-2.49
	c0.4-0.64,0.26-1.08-0.7-2.03l0.36-0.4l3.45,3.01l-0.36,0.4H249.37z"/>
<path class="st0" d="M259.06,66.6c0.69-0.5,1.18-0.32,1.94,0.45l0.4-0.36l-3-3.41l-0.4,0.36c0.82,1.04,0.93,1.56,0.34,2.21
	c-0.37,0.4-0.98,1.04-2.32,2.21l-3.55,3.12l-0.04-0.05l1.96-12.4l-1.89-2.14l-0.4,0.36c0.54,0.74,0.7,1.15,0.6,1.75
	c-0.12,0.56-0.15,0.65-1.2,1.57l-3.18,2.79c-1.34,1.16-2.06,1.74-2.55,2.08c-0.77,0.55-1.27,0.36-2.06-0.44l-0.4,0.36l3.01,3.43
	l0.4-0.36c-0.81-1.03-0.93-1.52-0.26-2.24c0.38-0.42,1.04-1.07,2.36-2.23l3.63-3.19l0.02,0.02l-2.16,12.81l0.39,0.45l5.83-5.12
	c1.35-1.18,2.02-1.73,2.5-2.05H259.06z"/>
<path class="st1" d="M267.1,74.79c1.35,2.03,1.94,3.82,1.65,5.44c-0.25,1.3-1.04,2.63-2.55,3.64c-1.92,1.27-3.85,1.48-5.59,0.87
	c-1.73-0.59-3.18-1.91-4.5-3.88l-2.52-3.8l0.43-0.28c1.02,1.31,1.19,1.38,2.56,0.48l6.43-4.26c1.38-0.92,1.36-1.09,0.64-2.39
	l0.47-0.31l2.99,4.51L267.1,74.79z M257.61,78.55c-1.21,0.81-1.18,1.54-0.39,2.71c1.98,3,5.16,2.89,7.72,1.19
	c1.65-1.09,2.67-2.66,2.57-4.43c-0.01-1.03-0.44-2.08-1.15-3.16c-0.44-0.67-0.8-1.04-1.02-1.13c-0.22-0.09-0.43-0.01-1.05,0.4
	l-6.66,4.42L257.61,78.55z"/>
<path class="st1" d="M265.63,96.19l-0.48,0.24l2.11,4.23l0.48-0.24c-0.45-1.18-0.42-1.47,0.8-2.76c1.59-1.68,3.28-3.44,4.94-5.17
	c0.89-0.93,1.79-1.86,2.63-2.76l-0.42-0.45l-10.82,0.93c-1.81,0.15-2.03-0.04-2.73-1.04l-0.48,0.24l1.86,3.74L264,92.9
	c-0.53-1.35-0.43-1.59,0.85-1.75c0.8-0.13,1.62-0.23,2.49-0.33h0.11l1.83,3.65c-0.22,0.23-0.44,0.47-0.66,0.69
	c-0.59,0.62-1.11,1.16-1.53,1.58c-0.56,0.56-0.77,0.48-1.46-0.54L265.63,96.19z M273.5,90.11v0.04l-3.63,3.7l-1.58-3.17
	C269.96,90.49,271.74,90.29,273.5,90.11z"/>
<path class="st0" d="M280.15,108.17c0.8-0.51,1.19-0.85,1.4-1.16c0.33-0.45,0.34-0.8-0.15-2.16l-0.47-1.29l-8.89,3.25
	c-1.43,0.53-1.56,0.74-1.04,2.49l-0.5,0.18l-1.9-5.19l0.5-0.18c0.71,1.6,0.94,1.69,2.38,1.16l8.89-3.25l-0.4-1.13
	c-0.55-1.51-0.83-1.81-1.32-1.89c-0.39-0.11-0.94-0.06-1.83,0l-0.2-0.53c1.11-0.31,2.33-0.65,3.33-0.97l0.13,0.37
	c-0.32,0.4-0.27,0.65-0.09,1.16l2.61,7.14c0.18,0.49,0.34,0.59,0.8,0.76l0.13,0.38c-0.83,0.31-2.12,0.88-3.14,1.35l-0.25-0.5
	L280.15,108.17z"/>
<path class="st0" d="M272.64,114.57l-0.53,0.13l1.3,4.94l0.53-0.13c-0.29-1.56-0.23-1.73,1.36-2.14l7.45-1.96
	c1.58-0.42,1.73-0.29,2.24,1.2l0.53-0.13l-1.3-4.94l-0.53,0.13c0.29,1.56,0.22,1.74-1.36,2.16l-7.45,1.96
	c-1.58,0.42-1.74,0.29-2.24-1.2V114.57z"/>
<path class="st1" d="M282.52,134.05c-4.1,0.65-7.07-1.84-7.61-5.32c-0.54-3.44,1.71-6.6,5.37-7.17c3.42-0.54,6.97,1.36,7.6,5.35
	C288.37,130.16,286.33,133.45,282.52,134.05L282.52,134.05z M281.1,123.42c-3.58,0.56-5.87,2.93-5.45,5.61
	c0.33,2.11,2.4,3.74,6.05,3.16c4.01-0.62,5.82-3.05,5.43-5.55c-0.33-2.13-2.46-3.79-6.01-3.22H281.1z"/>
<path class="st0" d="M287.58,149.02c0.85,0.05,1.11,0.5,1.21,1.58h0.54l-0.16-4.56l-0.54,0.02c-0.02,1.34-0.26,1.8-1.13,1.92
	c-0.54,0.07-1.42,0.18-3.18,0.24l-4.73,0.17v-0.06l9.36-8.37l-0.1-2.84l-0.54,0.02c-0.05,0.91-0.18,1.34-0.65,1.74
	c-0.45,0.37-0.53,0.4-1.92,0.45l-4.23,0.15c-1.78,0.06-2.7,0.04-3.3,0c-0.94-0.06-1.21-0.54-1.31-1.65l-0.54,0.02l0.16,4.56
	l0.54-0.02c0.02-1.31,0.24-1.76,1.23-1.89c0.55-0.07,1.48-0.17,3.25-0.23l4.83-0.17v0.04l-9.79,8.55l0.02,0.6l7.75-0.28
	c1.79-0.06,2.66-0.06,3.23,0L287.58,149.02z"/>
<path class="st0" d="M81.45,123.98c-2.52-6.74-13.72-14.77-13.72-14.77c0.39-0.24,8.16-5.41,10.52-9.19
	c6.8,2.95,12.74,12.07,13.93,14.59C89.59,115.49,83.12,121.88,81.45,123.98z"/>
<path class="st0" d="M241.19,90.14c0,0-7.34,5.5-10.33,13.27c-3.92-2.62-6.06-3.54-9.35-4.39c1.52-4.54,4.91-13.22,7.84-15.61
	c5.05,0.8,11.37,6.33,11.81,6.73l0,0H241.19z"/>
<path class="st0" d="M157.83,86.28c3.07,0.32,10.06-1.37,12.26-2.5c-0.67,3.06,2.09,13.52,3.54,17.33
	c-1.76-0.64-8.09,1.02-12.25,2.5C161.97,95.76,157.83,86.28,157.83,86.28z"/>
<path class="st0" d="M183.77,120.58c-1,6.12-3.17,12.21-7.33,16.06c3.06-5.92,3.96-12.74,4.35-17.22c-2.45-0.85-4.9-1.41-6.7-1.38
	c3.65-5.48,4.75-16.79,5.39-23.35c0.05-0.45,0.09-0.88,0.12-1.3c5.6,3.91,18.79,6.58,18.79,6.58c-5.05,4.69-8.84,15.52-9.81,23.14
	c-1.16-0.8-2.88-1.71-4.81-2.54V120.58z"/>
<path class="st0" d="M189.69,94.28c2.66-5.34,8.24-20.14,7.71-24.7c3.05,1.97,12.95,5.48,17.47,5.45c0,0-7.41,13.19-7.72,24.7
	C201.3,96.95,192.36,93.61,189.69,94.28L189.69,94.28z"/>
<path class="st0" d="M224.29,129.3c7.23-4.63,16.34-13.68,18.64-21.05c0,0,9.05,12.04,15.69,15.81c-0.39,0.24-0.82,0.49-1.27,0.76
	c-6.31,3.8-17.2,10.35-20.95,16.66C234.52,137.36,227.98,131.41,224.29,129.3L224.29,129.3z"/>
<path class="st0" d="M237.74,166.42c0.74-3.07-3.15-13.32-6.38-20c13.22-0.43,28.3-9.03,28.3-9.03c0.01,5.19,4.1,16.53,6.38,20.02
	c-5.23-0.59-22.2,5.93-28.3,9.03V166.42z"/>
<path class="st0" d="M198.61,121.81c8.13-4.36,16.48-19.98,16.48-19.98c0.38,0.45,8.27,9.47,13.49,11.83
	c-2.6,9.14-13.18,18.28-16.21,20.21c-0.59-1.2-2.7-3.37-4.78-5.24c-2.83,2.68-5.27,6.35-7.23,13.49
	c-0.45-6.06,1.96-11.48,5.22-15.15c-2.95-2.5-5.43-4.25-6.96-5.17L198.61,121.81z"/>
<path class="st0" d="M113.5,91.91c0,0-7.28-10.52-13.48-12.97c1.98-1.52,8.02-7.42,8.88-9.81c2.33,1.14,10.69,6.82,13.3,13.17
	c-3.55,2.13-8.48,9.26-8.7,9.62L113.5,91.91z"/>
<path class="st0" d="M186.01,85.06c-5.84-0.85-8.76-0.74-12.92,0.09c-0.75-5.95-1.6-17.62,0.43-21.9c6.2-1.85,16.49,1.07,17,1.22
	C190.52,64.47,185.2,74.66,186.01,85.06z"/>
<path class="st0" d="M120.82,123.03c-4.32,0.26-13.02,2.72-16.62,5.65c-0.55-7.48-7.51-18.4-11.55-24.74
	c-0.29-0.47-0.58-0.89-0.83-1.31c7.78-0.42,21.54-7.31,21.54-7.31c-1.24,7.78,2.96,20.2,7.46,27.72H120.82z"/>
<path class="st0" d="M81.26,144.21c-1.67,2.19-2.21,11.71-1.98,18.19c-10.67-4.32-25.72-2.79-25.72-2.79
	c1.83-4.14,2.57-14.61,1.98-18.19C59.51,143.73,75.31,144.53,81.26,144.21z"/>
<path class="st0" d="M140.57,99.89c-4.94-11.78-16.43-19.91-16.43-19.91c0.48-0.45,10.04-9.4,17.84-10.85
	c4.61,3.53,10.2,16.7,12.74,23.61c-2.73,0.78-3.63,0.94-6.01,2.19c1.21,1.91,1.35,5.28,0.71,7.83c-0.49-2.47-2.7-5.34-3.68-6.16
	c-1.52,0.89-3.21,1.91-5.15,3.3H140.57z"/>
<path class="st0" d="M166.9,75.67c-5.19-0.33-8.76-0.04-15.72,1.8c-0.62-11.96-8.69-22.77-8.69-22.77c0.6-0.24,12.64-5.08,20.46-3.9
	C166.09,55.38,166.88,68.78,166.9,75.67L166.9,75.67z"/>
<path class="st0" d="M117.17,101.71c0,0,9.04-4.01,12.41-7.69c0.05,0.16,0.1,0.32,0.16,0.48c0.05,0.15,0.1,0.31,0.15,0.47
	c1.51,4.61,4.08,12.52,7.56,15.85c-2.92,0.59-7.69,3.9-9.59,5.94c-1.9-5.3-6.35-12.47-10.69-15.03L117.17,101.71z"/>
<path class="st1" d="M12.8,147c0-81.19,65.82-147,147-147s147,65.81,147,147s-65.81,147-147,147C78.62,294,12.8,228.19,12.8,147z
	 M16.84,147c0,78.95,64.01,142.96,142.96,142.96S302.76,225.95,302.76,147S238.76,4.04,159.8,4.04S16.84,68.05,16.84,147L16.84,147z
	"/>
<path class="st0" d="M179.16,254.57c0,2.08-0.39,3.9-1.18,5.43c-0.78,1.53-1.8,2.78-3.05,3.76c-1.26,0.98-2.68,1.71-4.26,2.19
	c-1.58,0.48-3.21,0.72-4.89,0.72h-10.16v-1.23c0.33,0,0.77-0.02,1.3-0.09c0.54-0.07,0.89-0.15,1.07-0.22
	c0.34-0.15,0.59-0.37,0.75-0.66c0.16-0.29,0.24-0.66,0.24-1.07v-17.68c0-0.39-0.07-0.75-0.21-1.05c-0.12-0.31-0.39-0.55-0.77-0.74
	c-0.36-0.17-0.75-0.31-1.15-0.38c-0.42-0.09-0.77-0.13-1.07-0.16v-1.23h10.71c1.47,0,2.93,0.23,4.35,0.69
	c1.43,0.45,2.67,1.05,3.72,1.83c1.45,1.03,2.57,2.36,3.38,4.02c0.82,1.65,1.22,3.61,1.22,5.86H179.16z M174.94,254.55
	c0-1.64-0.22-3.14-0.66-4.46c-0.44-1.34-1.08-2.5-1.91-3.49c-0.8-0.94-1.78-1.69-2.94-2.23c-1.15-0.54-2.44-0.81-3.85-0.81
	c-0.47,0-1,0-1.6,0.04c-0.59,0-1.03,0.02-1.31,0.04v18.84c0,1.05,0.31,1.78,0.92,2.18c0.61,0.4,1.54,0.6,2.82,0.6
	c1.46,0,2.74-0.26,3.83-0.77c1.09-0.51,1.98-1.24,2.66-2.16c0.71-0.97,1.24-2.08,1.56-3.34c0.33-1.27,0.5-2.76,0.5-4.42
	L174.94,254.55z"/>
<path class="st0" d="M149.47,266.67h-7.8v-1.14c0.51-0.06,0.96-0.11,1.31-0.17c0.37-0.06,0.55-0.21,0.55-0.45
	c0-0.1-0.06-0.27-0.17-0.48c-0.11-0.22-0.23-0.42-0.34-0.6c-0.29-0.45-0.69-1.05-1.19-1.8c-0.49-0.76-1.1-1.67-1.83-2.71
	c-0.6,0.75-1.15,1.48-1.65,2.19c-0.5,0.7-1.04,1.45-1.59,2.24c-0.09,0.11-0.17,0.26-0.26,0.43s-0.12,0.31-0.12,0.42
	c0,0.26,0.16,0.47,0.48,0.64c0.33,0.16,0.83,0.27,1.48,0.33v1.1h-6.31v-1.07c0.78-0.23,1.41-0.5,1.89-0.83
	c0.48-0.33,0.93-0.75,1.32-1.23c0.36-0.47,0.86-1.09,1.48-1.9c0.65-0.81,1.47-1.9,2.49-3.28c-0.59-0.85-1.31-1.86-2.16-3.07
	c-0.85-1.23-1.53-2.23-2.09-3.04c-0.29-0.44-0.65-0.78-1.04-1.05c-0.38-0.27-0.92-0.42-1.63-0.42v-1.14h7.41v1.14
	c-0.37,0-0.74,0.02-1.09,0.07c-0.36,0.05-0.54,0.15-0.54,0.31c0,0.1,0.04,0.22,0.1,0.34s0.16,0.27,0.26,0.42
	c0.26,0.39,0.65,0.99,1.18,1.81c0.54,0.82,1.13,1.68,1.74,2.58c0.4-0.55,0.87-1.2,1.4-1.94c0.54-0.74,1.04-1.43,1.48-2.11
	c0.05-0.07,0.1-0.18,0.13-0.29c0.05-0.12,0.07-0.25,0.07-0.37c0-0.25-0.2-0.43-0.6-0.58c-0.39-0.15-0.77-0.26-1.13-0.31v-1.1h6.28
	v1.07c-0.88,0.23-1.58,0.5-2.07,0.83c-0.49,0.31-0.92,0.67-1.26,1.09c-0.38,0.47-0.83,1.05-1.36,1.74c-0.51,0.69-1.25,1.65-2.19,2.9
	c1.05,1.47,1.9,2.68,2.56,3.63c0.66,0.94,1.32,1.91,1.98,2.92c0.33,0.5,0.7,0.91,1.1,1.21c0.42,0.28,0.98,0.45,1.69,0.5v1.14
	L149.47,266.67z"/>
<path class="st0" d="M127.1,266.67h-11.04v-1.23c0.31-0.02,0.76-0.06,1.35-0.1c0.59-0.05,1-0.11,1.24-0.21
	c0.38-0.15,0.66-0.36,0.83-0.6c0.17-0.27,0.26-0.62,0.26-1.09V245.7c0-0.4-0.06-0.74-0.2-1c-0.12-0.27-0.43-0.5-0.89-0.69
	c-0.34-0.13-0.78-0.27-1.31-0.38c-0.51-0.12-0.94-0.2-1.27-0.22v-1.23h11.04v1.23c-0.36,0-0.78,0.06-1.27,0.13
	c-0.49,0.07-0.93,0.16-1.3,0.27c-0.44,0.13-0.74,0.37-0.88,0.67c-0.15,0.31-0.22,0.66-0.22,1.04v17.73c0,0.38,0.09,0.72,0.24,1.02
	c0.17,0.28,0.47,0.51,0.86,0.69c0.25,0.09,0.64,0.2,1.18,0.31c0.55,0.1,1.02,0.16,1.4,0.17v1.23L127.1,266.67z"/>
<path class="st0" d="M184.1,242.17v1.22c0.31,0.02,0.72,0.1,1.25,0.21c0.53,0.11,0.96,0.25,1.26,0.39c0.4,0.18,0.66,0.43,0.8,0.72
	c0.12,0.28,0.2,0.62,0.2,1v17.68c0,0.42-0.09,0.77-0.25,1.07c-0.15,0.28-0.39,0.5-0.74,0.66c-0.17,0.09-0.55,0.15-1.13,0.21
	c-0.58,0.05-1.04,0.07-1.38,0.1v1.23h10.62v-1.23c-0.29,0-0.74-0.07-1.31-0.2c-0.58-0.11-0.96-0.21-1.13-0.29
	c-0.38-0.18-0.65-0.43-0.8-0.72c-0.15-0.29-0.22-0.64-0.22-1.02v-8.44h1.63c2.3,0,2.84,0.28,3.2,0.58c0.23,0.2,0.44,0.51,0.64,0.96
	c0.21,0.44,0.34,0.8,0.37,0.94h1.31v-6.36h-1.31c-0.06,0.42-0.18,0.81-0.38,1.19c-0.18,0.37-0.39,0.64-0.62,0.81
	c-0.33,0.26-0.89,0.49-3.2,0.49h-1.63v-9.79h6.54c2.3,0,2.84,0.28,3.2,0.58c0.23,0.2,0.44,0.51,0.64,0.96
	c0.21,0.44,0.37,0.94,0.37,0.94h1.31v-3.9h-19.22L184.1,242.17z"/>
<path class="st0" d="M64.39,225.8c-0.34,0-0.67-0.15-0.91-0.43c-15.36-18.86-24.78-41.59-27.22-65.73c-0.06-0.64,0.4-1.21,1.04-1.27
	c0.65-0.06,1.21,0.4,1.27,1.04c2.39,23.69,11.63,46,26.71,64.5c0.4,0.5,0.33,1.24-0.17,1.64c-0.22,0.17-0.48,0.26-0.74,0.26H64.39z"
	/>
<path class="st0" d="M255.2,225.8c-0.26,0-0.51-0.09-0.74-0.26c-0.5-0.4-0.58-1.14-0.17-1.64c15.08-18.51,24.32-40.8,26.7-64.5
	c0.06-0.64,0.62-1.1,1.27-1.04c0.64,0.06,1.1,0.64,1.04,1.27c-2.44,24.14-11.85,46.88-27.22,65.73c-0.23,0.28-0.56,0.43-0.91,0.43
	H255.2z"/>
<path class="st0" d="M213.83,29.4l-0.28,0.56c0.13,0.09,0.31,0.21,0.51,0.38c0.22,0.17,0.38,0.33,0.49,0.47
	c0.15,0.17,0.21,0.34,0.2,0.51c0,0.16-0.06,0.33-0.15,0.5l-4.04,8.06c-0.1,0.18-0.21,0.33-0.36,0.43c-0.13,0.1-0.29,0.13-0.49,0.13
	c-0.1,0-0.28-0.06-0.56-0.16c-0.27-0.11-0.49-0.2-0.65-0.27l-0.28,0.56l4.84,2.43l0.28-0.56c-0.13-0.07-0.32-0.21-0.55-0.39
	c-0.23-0.18-0.38-0.32-0.44-0.39c-0.13-0.17-0.2-0.34-0.2-0.51c0-0.17,0.05-0.34,0.13-0.51l1.94-3.85l0.75,0.37
	c1.05,0.53,1.24,0.78,1.32,0.99c0.06,0.15,0.09,0.34,0.07,0.59c0,0.24-0.02,0.44-0.05,0.51l0.6,0.31l1.46-2.9l-0.6-0.31
	c-0.12,0.18-0.27,0.33-0.44,0.45c-0.17,0.12-0.32,0.2-0.47,0.22c-0.21,0.04-0.51,0.02-1.57-0.5l-0.75-0.37l2.24-4.47l2.99,1.49
	c1.05,0.53,1.24,0.78,1.32,0.99c0.06,0.15,0.09,0.34,0.07,0.59c0,0.24-0.05,0.51-0.05,0.51l0.6,0.31l0.89-1.78l-8.77-4.4
	L213.83,29.4z"/>
<path class="st1" d="M643.21,94.8c1.49,1.57,2.67,3.45,3.52,5.67c0.85,2.22,1.26,4.67,1.26,7.36c0,2.69-0.42,5.16-1.29,7.37
	c-0.86,2.21-2.05,4.09-3.59,5.65c-1.47,1.54-3.2,2.72-5.16,3.55c-1.96,0.83-4.05,1.25-6.26,1.25c-2.36,0-4.54-0.44-6.54-1.34
	s-3.72-2.12-5.15-3.71c-1.43-1.56-2.56-3.44-3.38-5.66c-0.82-2.22-1.24-4.59-1.24-7.12c0-2.77,0.43-5.24,1.3-7.41
	c0.86-2.17,2.05-4.04,3.55-5.62c1.51-1.57,3.25-2.77,5.22-3.6c1.98-0.83,4.07-1.25,6.24-1.25s4.36,0.43,6.35,1.27
	C640.03,92.07,641.76,93.27,643.21,94.8z M639.65,118.97c0.88-1.46,1.54-3.11,1.95-4.96c0.39-1.85,0.6-3.91,0.6-6.17
	c0-2.27-0.23-4.5-0.67-6.44c-0.45-1.96-1.11-3.63-2-5c-0.87-1.36-1.97-2.43-3.3-3.19c-1.32-0.77-2.83-1.15-4.54-1.15
	c-1.91,0-3.54,0.44-4.89,1.32c-1.34,0.88-2.43,2.06-3.27,3.53c-0.8,1.41-1.4,3.06-1.78,4.96c-0.4,1.89-0.59,3.88-0.59,5.97
	c0,2.3,0.21,4.39,0.62,6.25c0.42,1.86,1.07,3.52,1.96,4.96c0.86,1.41,1.94,2.51,3.25,3.31c1.31,0.8,2.88,1.19,4.69,1.19
	c1.7,0,3.25-0.4,4.61-1.2C637.67,121.54,638.8,120.42,639.65,118.97L639.65,118.97z"/>
<path class="st0" d="M544.73,124.46c1.85,0.8,3.79,1.2,5.81,1.2c3.1,0,5.79-0.72,8.05-2.17c2.25-1.45,4.07-3.86,5.44-7.24
	l-1.81-0.86c-0.38,1.05-0.88,2.03-1.48,2.93c-0.59,0.89-1.3,1.7-2.09,2.4c-0.78,0.67-1.72,1.21-2.81,1.62
	c-1.08,0.42-2.25,0.61-3.54,0.61c-1.72,0-3.26-0.38-4.65-1.15c-1.38-0.77-2.57-1.83-3.6-3.2c-1.02-1.37-1.8-2.96-2.33-4.79
	c-0.55-1.81-0.82-3.81-0.82-5.99c0-2.46,0.26-4.7,0.78-6.7c0.53-2,1.25-3.65,2.17-4.95c0.97-1.35,2.12-2.36,3.43-3.05
	c1.32-0.69,2.76-1.03,4.3-1.03c1.35,0,2.54,0.31,3.59,0.92s1.95,1.46,2.72,2.55c0.67,0.96,1.27,2.12,1.78,3.5
	c0.5,1.37,0.88,2.65,1.14,3.83h1.96l-0.21-12.13h-1.91l-0.98,1.63c-1.21-0.75-2.51-1.34-3.86-1.74c-1.35-0.42-2.85-0.62-4.53-0.62
	c-2.24,0-4.35,0.43-6.32,1.3c-1.97,0.86-3.67,2.08-5.13,3.67c-1.46,1.59-2.61,3.5-3.44,5.72c-0.82,2.22-1.25,4.68-1.25,7.41
	s0.43,5.17,1.27,7.34c0.83,2.17,1.97,4.01,3.38,5.51c1.42,1.51,3.06,2.66,4.92,3.47L544.73,124.46z"/>
<path class="st0" d="M363.72,124.82h-15.28v-1.71c0.34-0.02,0.8-0.06,1.38-0.1l0,0l0.49-0.04c0.81-0.06,1.38-0.16,1.71-0.29
	c0.53-0.21,0.89-0.49,1.14-0.85c0.24-0.36,0.36-0.86,0.36-1.49V95.7c0-0.56-0.09-1.03-0.26-1.41c-0.18-0.37-0.59-0.69-1.24-0.94
	c-0.49-0.2-1.08-0.37-1.81-0.54c-0.73-0.17-1.32-0.27-1.79-0.29V90.8h15.28v1.71c-0.5,0.01-1.09,0.07-1.78,0.17
	c-0.69,0.11-1.29,0.23-1.8,0.39c-0.6,0.2-1.02,0.5-1.21,0.93c-0.21,0.43-0.31,0.92-0.31,1.45v24.61c0,0.53,0.12,0.99,0.34,1.4
	c0.23,0.42,0.62,0.74,1.18,0.97c0.33,0.12,0.88,0.27,1.64,0.42c0.76,0.15,1.4,0.23,1.92,0.26v1.71L363.72,124.82z"/>
<path class="st0" d="M402.56,92.5c-0.45,0.01-1.13,0.15-2.06,0.38c-0.91,0.24-1.58,0.49-1.97,0.75c-0.58,0.4-0.97,1.16-1.15,2.3
	c-0.21,1.14-0.29,2.58-0.29,4.32v24.93h-2.06l-20.54-27.86v17.54c0,1.97,0.12,3.48,0.37,4.53c0.25,1.05,0.62,1.81,1.14,2.25
	c0.36,0.36,1.13,0.69,2.27,0.98c1.15,0.31,1.91,0.47,2.28,0.48v1.71h-13.9v-1.71c0.44-0.02,1.15-0.18,2.17-0.47
	c1.03-0.28,1.65-0.54,1.91-0.75c0.55-0.45,0.93-1.14,1.14-2.06c0.21-0.92,0.31-2.49,0.31-4.72V98.38c0-0.74-0.13-1.47-0.38-2.21
	c-0.25-0.74-0.59-1.3-1.03-1.7c-0.56-0.53-1.35-0.98-2.32-1.35c-0.99-0.38-1.76-0.58-2.39-0.61V90.8h9.67l19.06,25.92v-16.16
	c0-1.97-0.11-3.49-0.37-4.56c-0.26-1.07-0.62-1.76-1.1-2.12c-0.45-0.31-1.18-0.6-2.18-0.88c-1.02-0.29-1.78-0.44-2.3-0.48v-1.71
	h13.74v1.71V92.5z"/>
<path class="st0" d="M432.78,100.01h1.67v-9.22h-29.56v9.22h1.67c0.15-0.53,0.4-1.19,0.76-2c0.37-0.81,0.8-1.57,1.27-2.29
	c0.48-0.72,1-1.36,1.57-1.94c0.56-0.56,1.11-0.88,1.64-0.96c0.66-0.07,1.37-0.13,2.11-0.16c0.74-0.02,1.35-0.04,1.85-0.04h1.38
	v27.43c0,0.66-0.13,1.18-0.37,1.57c-0.25,0.39-0.62,0.69-1.16,0.91c-0.34,0.13-0.98,0.26-1.9,0.36c-0.91,0.1-1.6,0.16-2.05,0.18
	v1.71h16.01v-1.71c-0.5-0.01-1.21-0.12-2.13-0.31c-0.91-0.2-1.52-0.34-1.8-0.45c-0.56-0.23-0.94-0.58-1.16-1.02
	c-0.23-0.44-0.33-0.93-0.33-1.46V92.62h1.38c0.64,0,1.34,0.01,2.08,0.05c0.76,0.04,1.37,0.09,1.87,0.15
	c0.53,0.09,1.07,0.4,1.63,0.96c0.56,0.55,1.09,1.2,1.58,1.94c0.47,0.7,0.87,1.45,1.25,2.24c0.38,0.8,0.64,1.47,0.78,2.05
	L432.78,100.01z"/>
<path class="st0" d="M465.55,114.81l-0.64,10.02h-28.14v-1.71c0.49-0.02,1.11-0.1,1.92-0.2c0.8-0.1,1.32-0.21,1.56-0.33
	c0.51-0.23,0.87-0.55,1.08-0.93c0.2-0.38,0.29-0.87,0.29-1.46V95.75c0-0.53-0.09-0.99-0.27-1.4c-0.17-0.42-0.54-0.74-1.1-0.99
	c-0.43-0.21-1.02-0.39-1.73-0.55c-0.74-0.16-1.31-0.26-1.74-0.28v-1.71h26.24V99h-1.83c-0.31-1.21-1-2.5-2.05-3.86
	c-1.07-1.36-2.06-2.11-3.01-2.23c-0.5-0.06-1.09-0.11-1.78-0.15c-0.67-0.04-1.46-0.05-2.33-0.05h-5.3v13.51h3.81
	c1.21,0,2.11-0.11,2.67-0.34c0.56-0.23,1.07-0.62,1.48-1.16c0.34-0.47,0.64-1.08,0.89-1.85c0.25-0.78,0.42-1.51,0.49-2.19h1.81V114
	h-1.81c-0.06-0.77-0.25-1.58-0.51-2.44c-0.28-0.85-0.56-1.47-0.87-1.85c-0.49-0.62-1.05-1.03-1.68-1.22
	c-0.61-0.2-1.45-0.29-2.47-0.29h-3.81v10.2c0,1.03,0.06,1.83,0.22,2.43c0.13,0.59,0.4,1.04,0.83,1.34c0.42,0.31,0.98,0.5,1.69,0.59
	c0.72,0.09,1.73,0.13,3.05,0.13h2.08c0.86,0,1.58-0.04,2.17-0.1c0.6-0.06,1.24-0.18,1.87-0.34c0.64-0.17,1.1-0.39,1.37-0.69
	c0.74-0.77,1.49-1.94,2.29-3.49c0.81-1.56,1.32-2.71,1.54-3.44h1.71L465.55,114.81z"/>
<path class="st0" d="M595.81,100.01h-1.67c-0.15-0.58-0.4-1.25-0.78-2.05c-0.37-0.8-0.8-1.54-1.26-2.24c-0.48-0.74-1-1.38-1.57-1.94
	s-1.1-0.87-1.63-0.96c-0.5-0.06-1.13-0.11-1.87-0.15c-0.75-0.04-1.43-0.05-2.08-0.05h-1.38v27.22c0,0.53,0.1,1.02,0.33,1.46
	c0.22,0.44,0.61,0.78,1.16,1.02c0.28,0.11,0.88,0.27,1.79,0.45c0.91,0.2,1.63,0.29,2.13,0.31v1.71h-15.99v-1.71
	c0.44-0.02,1.13-0.09,2.03-0.18c0.92-0.1,1.56-0.22,1.91-0.36c0.51-0.21,0.91-0.51,1.15-0.91c0.24-0.39,0.37-0.92,0.37-1.57V92.65
	h-1.38c-0.5,0-1.11,0.01-1.85,0.04c-0.73,0.02-1.43,0.07-2.11,0.16c-0.53,0.07-1.08,0.39-1.64,0.96c-0.56,0.56-1.09,1.21-1.57,1.94
	s-0.89,1.48-1.27,2.29c-0.36,0.81-0.61,1.47-0.76,2h-1.67V90.8h29.56v9.22L595.81,100.01z"/>
<path class="st0" d="M598.1,124.82h15.26v-1.71c-0.53-0.01-1.16-0.1-1.92-0.26c-0.76-0.15-1.3-0.29-1.63-0.42
	c-0.56-0.23-0.94-0.56-1.19-0.97c-0.23-0.4-0.34-0.87-0.34-1.4V95.45c0-0.53,0.1-1.02,0.32-1.45c0.21-0.43,0.61-0.74,1.21-0.93
	c0.5-0.16,1.1-0.29,1.79-0.39c0.7-0.11,1.29-0.16,1.78-0.17V90.8h-15.26v1.71c0.47,0.04,1.05,0.13,1.78,0.29
	c0.72,0.17,1.32,0.34,1.8,0.54c0.65,0.26,1.07,0.58,1.25,0.94c0.18,0.37,0.26,0.85,0.26,1.41v24.63c0,0.64-0.11,1.14-0.34,1.49
	c-0.24,0.36-0.62,0.65-1.15,0.85c-0.33,0.13-0.91,0.22-1.72,0.29l-0.24,0.02c-0.69,0.05-1.24,0.1-1.62,0.12v1.71L598.1,124.82z"/>
<path class="st0" d="M684.99,92.88c0.92-0.23,1.6-0.37,2.05-0.38v-1.71h-13.76v1.71c0.53,0.04,1.3,0.18,2.32,0.48
	s1.74,0.59,2.18,0.88c0.49,0.34,0.85,1.05,1.1,2.12c0.26,1.07,0.39,2.58,0.39,4.56v16.16l-19.06-25.92h-9.67v1.71
	c0.6,0.04,1.4,0.23,2.38,0.61c0.99,0.37,1.75,0.82,2.34,1.35c0.42,0.4,0.77,0.97,1.03,1.7c0.26,0.74,0.38,1.47,0.38,2.21v16.75
	c0,2.23-0.1,3.8-0.31,4.72c-0.21,0.92-0.59,1.6-1.15,2.06c-0.24,0.22-0.88,0.47-1.9,0.75c-1.02,0.28-1.74,0.44-2.17,0.47v1.71h13.9
	v-1.71c-0.37-0.01-1.13-0.17-2.28-0.48c-1.15-0.31-1.91-0.64-2.28-0.98c-0.51-0.44-0.89-1.2-1.14-2.25
	c-0.24-1.05-0.37-2.56-0.37-4.53V97.3l20.54,27.86h2.07v-24.93c0-1.74,0.1-3.19,0.29-4.32c0.21-1.13,0.59-1.9,1.16-2.3
	c0.39-0.26,1.05-0.5,1.97-0.75L684.99,92.88z"/>
<path class="st1" d="M734.1,108.01c0,2.89-0.54,5.4-1.62,7.53c-1.09,2.13-2.5,3.87-4.24,5.23c-1.74,1.36-3.72,2.38-5.9,3.05
	c-2.18,0.67-4.43,1-6.76,1h-14.04v-1.71c0.48,0,1.08-0.05,1.83-0.13c0.75-0.09,1.24-0.18,1.47-0.31c0.48-0.21,0.82-0.51,1.04-0.92
	c0.22-0.4,0.32-0.91,0.32-1.47V95.73c0-0.54-0.09-1.03-0.28-1.46c-0.18-0.43-0.55-0.77-1.1-1.03c-0.5-0.23-1.04-0.42-1.62-0.53
	c-0.58-0.11-1.08-0.18-1.49-0.21V90.8h14.82c2.03,0,4.05,0.32,6.03,0.94c1.97,0.64,3.7,1.48,5.16,2.56c2,1.42,3.56,3.28,4.69,5.59
	c1.13,2.3,1.69,5.01,1.69,8.13L734.1,108.01z M728.23,108c0-2.29-0.29-4.35-0.89-6.2c-0.6-1.85-1.49-3.45-2.65-4.84
	c-1.1-1.31-2.45-2.34-4.04-3.09c-1.6-0.76-3.37-1.13-5.32-1.13c-0.65,0-1.38,0.01-2.2,0.04c-0.82,0.02-1.42,0.04-1.83,0.06V119
	c0,1.46,0.43,2.46,1.26,3.03c0.85,0.56,2.14,0.83,3.88,0.83c2.01,0,3.79-0.36,5.28-1.08c1.51-0.72,2.73-1.71,3.66-3
	c0.99-1.35,1.7-2.9,2.16-4.66c0.47-1.78,0.67-3.81,0.67-6.12H728.23z"/>
<path class="st0" d="M766.18,124.82l0.64-10.02h-1.72c-0.22,0.74-0.73,1.87-1.54,3.44c-0.8,1.56-1.57,2.72-2.29,3.49
	c-0.27,0.29-0.73,0.51-1.37,0.69c-0.64,0.17-1.27,0.28-1.87,0.34c-0.59,0.06-1.31,0.1-2.17,0.1h-2.08c-1.32,0-2.33-0.05-3.05-0.13
	c-0.72-0.09-1.29-0.28-1.69-0.59c-0.42-0.31-0.7-0.75-0.85-1.34c-0.13-0.59-0.21-1.4-0.21-2.43v-10.2h3.81
	c1.03,0,1.86,0.1,2.47,0.29c0.62,0.2,1.19,0.6,1.68,1.22c0.31,0.38,0.59,1,0.87,1.85c0.28,0.86,0.45,1.67,0.51,2.44h1.81v-13.32
	h-1.81c-0.09,0.69-0.24,1.41-0.49,2.19c-0.26,0.77-0.55,1.4-0.89,1.85c-0.43,0.54-0.92,0.93-1.49,1.16
	c-0.56,0.23-1.45,0.34-2.67,0.34h-3.81V92.7h5.3c0.87,0,1.65,0.02,2.34,0.05c0.67,0.04,1.27,0.07,1.78,0.15
	c0.94,0.13,1.95,0.87,3.01,2.23c1.05,1.36,1.74,2.65,2.07,3.86h1.81v-8.2h-26.24v1.71c0.43,0.04,1.02,0.12,1.74,0.28
	c0.73,0.16,1.31,0.34,1.73,0.55c0.56,0.26,0.93,0.59,1.1,0.99c0.18,0.4,0.27,0.87,0.27,1.4v24.45c0,0.59-0.1,1.08-0.29,1.46
	c-0.21,0.39-0.56,0.7-1.08,0.93c-0.23,0.11-0.76,0.22-1.56,0.33c-0.81,0.1-1.43,0.17-1.92,0.2v1.71h28.14L766.18,124.82z"/>
<path class="st0" d="M791.44,109.2c0.72,0.8,1.25,1.68,1.59,2.62c0.34,0.96,0.51,2.06,0.51,3.33c0,3-1.1,5.49-3.32,7.44
	c-2.2,1.95-4.96,2.93-8.24,2.93c-1.49,0-3.01-0.23-4.53-0.71c-1.52-0.48-2.82-1.05-3.92-1.71l-1.03,1.74h-1.91l-0.33-11.64h1.95
	c0.4,1.43,0.86,2.73,1.4,3.88c0.54,1.16,1.24,2.23,2.12,3.25c0.82,0.94,1.79,1.69,2.89,2.24c1.1,0.56,2.39,0.83,3.86,0.83
	c1.09,0,2.06-0.15,2.88-0.43c0.82-0.28,1.48-0.7,1.98-1.21c0.51-0.53,0.88-1.15,1.14-1.85c0.25-0.71,0.37-1.53,0.37-2.46
	c0-1.35-0.38-2.62-1.15-3.8c-0.76-1.18-1.9-2.06-3.41-2.67c-1.04-0.42-2.22-0.88-3.55-1.38c-1.35-0.5-2.5-0.98-3.47-1.43
	c-1.91-0.86-3.41-2-4.45-3.39c-1.07-1.4-1.59-3.22-1.59-5.49c0-1.3,0.26-2.5,0.78-3.63c0.53-1.11,1.29-2.12,2.24-3
	c0.92-0.83,2.01-1.48,3.27-1.96c1.26-0.48,2.57-0.71,3.94-0.71c1.56,0,2.95,0.23,4.18,0.72c1.25,0.48,2.36,1.05,3.38,1.69l0.98-1.63
	h1.91l0.2,11.29h-1.95c-0.36-1.3-0.75-2.54-1.18-3.71c-0.45-1.19-1.02-2.25-1.7-3.21c-0.7-0.93-1.52-1.67-2.51-2.22
	c-0.98-0.55-2.19-0.82-3.63-0.82c-1.52,0-2.79,0.48-3.86,1.46c-1.07,0.97-1.6,2.16-1.6,3.56s0.34,2.68,1.03,3.65
	c0.7,0.97,1.68,1.76,2.99,2.38c1.16,0.56,2.32,1.04,3.42,1.46c1.13,0.4,2.2,0.85,3.26,1.31c0.97,0.42,1.87,0.89,2.76,1.42
	c0.88,0.53,1.65,1.15,2.3,1.85L791.44,109.2z"/>
<path class="st0" d="M797.36,124.82h15.28v-1.71c-0.53-0.01-1.16-0.1-1.92-0.26c-0.76-0.15-1.3-0.29-1.63-0.42
	c-0.56-0.23-0.97-0.56-1.19-0.97c-0.23-0.4-0.34-0.87-0.34-1.4V95.45c0-0.53,0.1-1.02,0.31-1.45c0.22-0.43,0.61-0.74,1.24-0.93
	c0.5-0.16,1.1-0.29,1.79-0.39c0.7-0.11,1.29-0.16,1.76-0.17V90.8h-15.28v1.71c0.47,0.04,1.07,0.13,1.79,0.29
	c0.73,0.17,1.34,0.34,1.81,0.54c0.65,0.26,1.07,0.58,1.25,0.94c0.18,0.37,0.26,0.85,0.26,1.41v24.63c0,0.64-0.11,1.14-0.36,1.49
	c-0.23,0.36-0.61,0.65-1.14,0.85c-0.33,0.13-0.91,0.22-1.72,0.29l-0.24,0.02c-0.7,0.05-1.24,0.1-1.63,0.12v1.71L797.36,124.82z"/>
<path class="st0" d="M849.69,111.22c-0.38,0.05-0.89,0.12-1.54,0.22c-0.64,0.1-1.16,0.25-1.57,0.44c-0.48,0.23-0.81,0.59-1,1.03
	c-0.21,0.44-0.31,0.96-0.31,1.56v2.65c0.01,1.92,0.01,3.22,0.04,3.9c0.02,0.67,0.05,1.22,0.09,1.67c-2.12,0.97-4.24,1.7-6.32,2.22
	c-2.11,0.51-4.17,0.77-6.19,0.77c-2.17,0-4.26-0.4-6.26-1.22s-3.76-1.97-5.24-3.48c-1.51-1.52-2.72-3.37-3.6-5.55
	c-0.88-2.18-1.34-4.61-1.34-7.3s0.42-5,1.27-7.22c0.86-2.22,2.06-4.14,3.61-5.78c1.52-1.59,3.31-2.84,5.4-3.74
	c2.11-0.89,4.34-1.34,6.73-1.34c1.91,0,3.58,0.23,4.99,0.7c1.41,0.47,2.67,1.02,3.75,1.68l0.97-1.63h1.91l0.21,11.89h-1.96
	c-0.33-1.31-0.76-2.6-1.24-3.86c-0.49-1.27-1.13-2.4-1.91-3.41c-0.78-1-1.73-1.8-2.84-2.4c-1.13-0.6-2.46-0.89-4.03-0.89
	c-1.69,0-3.22,0.34-4.56,1.04c-1.34,0.7-2.5,1.73-3.49,3.11c-0.96,1.34-1.72,2.99-2.24,4.97c-0.51,1.98-0.78,4.2-0.78,6.65
	c0,2.17,0.26,4.2,0.77,6.11c0.53,1.91,1.27,3.56,2.25,4.96c0.99,1.43,2.22,2.55,3.71,3.37c1.47,0.82,3.16,1.23,5.02,1.23
	c1.41,0,2.68-0.22,3.83-0.65c1.15-0.44,1.96-0.89,2.45-1.38c0.12-0.83,0.2-1.68,0.21-2.52v-4.05c0-0.67-0.09-1.27-0.27-1.8
	c-0.18-0.53-0.56-0.91-1.14-1.15c-0.53-0.23-1.25-0.42-2.14-0.54c-0.89-0.12-1.6-0.2-2.12-0.22v-1.73h14.87v1.73L849.69,111.22z"/>
<path class="st0" d="M885.08,92.88c0.92-0.23,1.62-0.37,2.05-0.38v-1.71h-13.74v1.71c0.53,0.04,1.3,0.18,2.3,0.48
	c1.02,0.29,1.73,0.59,2.18,0.88c0.48,0.34,0.85,1.05,1.1,2.12c0.26,1.07,0.39,2.58,0.39,4.56v16.16l-19.07-25.92h-9.67v1.71
	c0.61,0.04,1.41,0.23,2.39,0.61c0.98,0.37,1.75,0.82,2.33,1.35c0.43,0.4,0.77,0.97,1.03,1.7c0.26,0.74,0.38,1.47,0.38,2.21v16.75
	c0,2.23-0.1,3.8-0.32,4.72c-0.21,0.92-0.58,1.6-1.14,2.06c-0.26,0.22-0.88,0.47-1.91,0.75c-1.02,0.28-1.73,0.44-2.17,0.47v1.71h13.9
	v-1.71c-0.37-0.01-1.13-0.17-2.28-0.48c-1.14-0.31-1.9-0.64-2.27-0.98c-0.51-0.44-0.89-1.2-1.14-2.25
	c-0.24-1.05-0.37-2.56-0.37-4.53V97.3l20.54,27.86h2.06v-24.93c0-1.74,0.1-3.19,0.29-4.32c0.21-1.13,0.59-1.9,1.15-2.3
	c0.39-0.26,1.07-0.5,1.97-0.75L885.08,92.88z"/>
<path class="st1" d="M446.96,163.05c-1.37-3.61-3.28-6.69-5.72-9.25c-2.36-2.5-5.17-4.45-8.42-5.83c-3.25-1.38-6.69-2.07-10.35-2.07
	s-6.91,0.67-10.14,2.03c-3.23,1.36-6.06,3.32-8.5,5.87c-2.46,2.58-4.4,5.64-5.79,9.18c-1.4,3.54-2.11,7.56-2.11,12.07
	c0,4.12,0.66,7.99,2,11.6c1.35,3.61,3.19,6.68,5.51,9.21c2.33,2.58,5.13,4.61,8.39,6.05c3.26,1.45,6.81,2.17,10.65,2.17
	c3.6,0,7.01-0.67,10.19-2.03c3.2-1.36,6-3.28,8.42-5.79c2.49-2.52,4.43-5.6,5.83-9.19c1.4-3.6,2.11-7.61,2.11-12
	c0-4.4-0.7-8.38-2.06-11.99V163.05z M438.63,185.11c-0.66,3-1.71,5.68-3.17,8.07c-1.41,2.35-3.23,4.18-5.46,5.49
	s-4.73,1.96-7.52,1.96c-2.96,0-5.5-0.65-7.63-1.94c-2.13-1.3-3.9-3.09-5.29-5.39c-1.46-2.35-2.52-5.03-3.21-8.07
	c-0.67-3.04-1-6.43-1-10.19c0-3.39,0.31-6.64,0.96-9.71c0.64-3.09,1.6-5.77,2.9-8.07c1.38-2.4,3.16-4.32,5.33-5.76
	c2.18-1.43,4.84-2.16,7.95-2.16c2.78,0,5.24,0.61,7.4,1.86c2.16,1.24,3.94,2.96,5.38,5.18c1.43,2.24,2.51,4.96,3.26,8.15
	c0.75,3.2,1.1,6.69,1.1,10.51c0,3.82-0.32,7.07-0.99,10.07L438.63,185.11z"/>
<path class="st0" d="M509.88,150.05c-0.72,0.02-1.79,0.18-3.18,0.47c-1.4,0.29-2.52,0.72-3.42,1.3c-0.88,0.6-1.48,1.84-1.83,3.71
	c-0.34,1.87-0.51,4.16-0.51,6.87v24.11c0,3.07-0.62,5.75-1.9,8.01c-1.27,2.27-2.95,4.13-5.02,5.6c-2.05,1.41-4.2,2.41-6.48,3.03
	c-2.27,0.61-4.43,0.92-6.52,0.92c-3.32,0-6.27-0.44-8.87-1.31c-2.58-0.87-4.77-2.06-6.53-3.54c-1.74-1.48-3.05-3.18-3.93-5.1
	c-0.87-1.92-1.32-3.92-1.32-6v-32.79c0-0.92-0.15-1.68-0.45-2.28c-0.31-0.61-0.91-1.18-1.84-1.7c-0.65-0.37-1.51-0.66-2.52-0.88
	c-1.03-0.22-1.86-0.37-2.52-0.42v-2.81h22.97v2.81c-0.74,0.02-1.63,0.15-2.73,0.36c-1.09,0.21-1.9,0.4-2.41,0.59
	c-0.87,0.32-1.46,0.83-1.75,1.57c-0.29,0.72-0.44,1.52-0.44,2.38v30.63c0,1.48,0.15,3.05,0.49,4.68c0.32,1.62,0.97,3.14,1.94,4.54
	c1.02,1.43,2.4,2.6,4.15,3.52c1.74,0.91,4.14,1.36,7.19,1.36c2.87,0,5.28-0.45,7.22-1.36c1.95-0.92,3.49-2.11,4.61-3.6
	c1.08-1.41,1.84-2.88,2.27-4.41c0.45-1.54,0.66-3.09,0.66-4.65v-22.74c0-2.89-0.21-5.26-0.62-7.09c-0.4-1.84-1.03-3.05-1.84-3.61
	c-0.91-0.65-2.16-1.16-3.74-1.53c-1.58-0.36-2.78-0.58-3.6-0.62v-2.81h22.47v2.81L509.88,150.05z"/>
<path class="st0" d="M569.58,150.68c1.51-0.39,2.62-0.6,3.34-0.62v-2.81h-22.41v2.81c0.86,0.05,2.11,0.32,3.76,0.78
	c1.64,0.47,2.83,0.96,3.55,1.45c0.78,0.58,1.37,1.71,1.79,3.44c0.4,1.73,0.61,4.2,0.61,7.44v26.33l-31.05-42.23h-15.75v2.81
	c0.99,0.05,2.28,0.39,3.87,0.99c1.6,0.61,2.85,1.35,3.8,2.21c0.71,0.65,1.27,1.57,1.68,2.77c0.4,1.2,0.62,2.39,0.62,3.59v27.29
	c0,3.61-0.18,6.17-0.51,7.67c-0.33,1.49-0.96,2.61-1.86,3.33c-0.43,0.37-1.45,0.77-3.1,1.23c-1.67,0.45-2.84,0.71-3.54,0.76v2.81
	h22.65v-2.79c-0.6-0.04-1.85-0.29-3.72-0.78c-1.87-0.49-3.11-1.03-3.7-1.6c-0.85-0.72-1.46-1.95-1.86-3.66
	c-0.4-1.71-0.6-4.18-0.6-7.39v-28.58l33.47,45.39h3.34v-40.6c0-2.84,0.17-5.18,0.49-7.03c0.32-1.85,0.97-3.1,1.89-3.75
	c0.65-0.42,1.72-0.82,3.22-1.21L569.58,150.68z"/>
<path class="st1" d="M630.34,175.31c0,4.72-0.88,8.81-2.66,12.26c-1.75,3.47-4.05,6.3-6.87,8.53c-2.85,2.22-6.06,3.87-9.62,4.96
	c-3.55,1.1-7.22,1.64-11,1.64h-22.87v-2.81c0.76,0,1.73-0.06,2.95-0.21c1.2-0.15,2-0.31,2.4-0.49c0.78-0.33,1.35-0.83,1.69-1.49
	c0.36-0.66,0.53-1.47,0.53-2.4v-39.97c0-0.88-0.13-1.68-0.45-2.38c-0.31-0.7-0.89-1.26-1.8-1.68c-0.82-0.39-1.69-0.67-2.65-0.86
	c-0.94-0.18-1.75-0.31-2.45-0.36v-2.81h24.14c3.32,0,6.6,0.51,9.82,1.54s6.01,2.41,8.42,4.16c3.25,2.32,5.78,5.35,7.63,9.1
	c1.85,3.75,2.76,8.17,2.77,13.25L630.34,175.31z M620.78,175.29c0-3.72-0.5-7.09-1.47-10.09c-0.99-3-2.43-5.64-4.31-7.88
	c-1.79-2.13-3.98-3.81-6.58-5.03c-2.6-1.23-5.49-1.84-8.67-1.84c-1.07,0-2.25,0.02-3.59,0.06c-1.34,0.04-2.32,0.07-2.96,0.1v42.61
	c0,2.36,0.69,4.02,2.06,4.92c1.37,0.92,3.48,1.36,6.32,1.36c3.28,0,6.15-0.59,8.61-1.75c2.45-1.18,4.45-2.79,5.98-4.88
	c1.6-2.19,2.77-4.72,3.5-7.6c0.75-2.88,1.11-6.21,1.11-9.97L620.78,175.29z"/>
<path class="st1" d="M665.77,202.7h22.96v-2.79c-0.65-0.04-1.46-0.17-2.43-0.42c-0.97-0.26-1.73-0.55-2.34-0.92
	c-0.88-0.6-1.57-1.21-2.06-1.84c-0.49-0.62-0.94-1.45-1.32-2.46l-18.41-47.82h-3.11l-2.55,6.6c-1.96,5.07-4.09,10.6-6.41,16.57
	c-3.34,8.67-6.41,16.49-9.19,23.45c-0.55,1.36-1.1,2.41-1.68,3.19c-0.58,0.77-1.37,1.51-2.41,2.2c-0.65,0.42-1.48,0.75-2.5,0.99
	c-1,0.25-1.85,0.39-2.52,0.44v2.81h20.83v-2.79c-2.06-0.11-3.9-0.45-5.52-1.02c-1.64-0.58-2.46-1.38-2.46-2.43
	c0-0.44,0.07-1,0.21-1.71c0.12-0.7,0.36-1.6,0.7-2.73c0.37-1.15,0.78-2.4,1.24-3.75c0.47-1.35,1.05-2.94,1.76-4.77h19.39l4.58,12.41
	c0.1,0.27,0.18,0.56,0.23,0.91c0.05,0.34,0.07,0.62,0.07,0.86c0,0.58-0.66,1.05-2,1.45c-1.35,0.39-3.03,0.65-5.03,0.78v2.81
	L665.77,202.7z M658.15,158.51l8.38,21.54H649.9L658.15,158.51L658.15,158.51z"/>
<path class="st0" d="M735.67,162.3h-2.71c-0.24-0.94-0.66-2.06-1.27-3.34s-1.3-2.5-2.05-3.65c-0.77-1.2-1.63-2.24-2.55-3.15
	c-0.91-0.89-1.81-1.41-2.67-1.54c-0.8-0.1-1.83-0.18-3.04-0.23c-1.23-0.05-2.35-0.07-3.38-0.07h-2.25v44.33
	c0,0.86,0.18,1.65,0.54,2.36c0.36,0.72,1,1.27,1.9,1.67c0.48,0.18,1.45,0.43,2.94,0.75c1.48,0.31,2.65,0.48,3.48,0.51v2.79h-26.07
	v-2.81c0.73-0.05,1.84-0.16,3.33-0.31c1.48-0.16,2.52-0.36,3.1-0.59c0.86-0.34,1.48-0.83,1.89-1.47c0.4-0.64,0.6-1.49,0.6-2.56
	v-44.69h-2.25c-0.81,0-1.81,0.02-3,0.06c-1.19,0.04-2.34,0.12-3.43,0.24c-0.86,0.11-1.74,0.61-2.67,1.54
	c-0.92,0.93-1.78,1.97-2.55,3.15c-0.78,1.18-1.47,2.43-2.07,3.74c-0.6,1.32-1.02,2.4-1.25,3.27h-2.72v-15.06h48.15v15.06
	L735.67,162.3z"/>
<path class="st0" d="M741.84,202.7h24.87v-2.79c-0.86-0.04-1.9-0.17-3.12-0.42c-1.24-0.26-2.12-0.48-2.67-0.69
	c-0.91-0.39-1.56-0.92-1.92-1.58c-0.38-0.66-0.56-1.42-0.56-2.29v-40.09c0-0.86,0.17-1.63,0.5-2.34c0.33-0.71,1-1.21,1.98-1.53
	c0.83-0.27,1.81-0.48,2.93-0.65c1.11-0.17,2.07-0.27,2.87-0.29v-2.81h-24.87v2.81c0.75,0.05,1.72,0.22,2.9,0.49
	c1.18,0.28,2.16,0.56,2.94,0.88c1.07,0.42,1.74,0.93,2.02,1.54c0.28,0.61,0.43,1.37,0.43,2.28v40.13c0,1.04-0.2,1.85-0.58,2.44
	c-0.39,0.59-1.02,1.05-1.87,1.38c-0.55,0.21-1.48,0.37-2.81,0.47c-1.32,0.1-2.33,0.18-3.03,0.23v2.81L741.84,202.7z"/>
<path class="st1" d="M815.81,153.79c2.44,2.56,4.35,5.64,5.72,9.25c1.37,3.61,2.07,7.61,2.07,11.99s-0.71,8.42-2.11,12
	c-1.41,3.6-3.34,6.66-5.84,9.19c-2.41,2.5-5.21,4.43-8.4,5.79c-3.2,1.36-6.59,2.03-10.19,2.03c-3.85,0-7.4-0.72-10.66-2.17
	c-3.25-1.45-6.04-3.47-8.39-6.05c-2.33-2.54-4.17-5.6-5.5-9.21c-1.34-3.61-2.01-7.48-2.01-11.6c0-4.51,0.71-8.54,2.11-12.07
	c1.41-3.53,3.33-6.59,5.81-9.18c2.44-2.56,5.27-4.51,8.5-5.87s6.6-2.03,10.14-2.03c3.54,0,7.1,0.69,10.35,2.07
	c3.25,1.38,6.04,3.33,8.42,5.83L815.81,153.79z M810.02,193.18c1.45-2.38,2.51-5.07,3.18-8.07c0.66-3,0.99-6.37,0.99-10.07
	s-0.37-7.31-1.11-10.51c-0.73-3.19-1.83-5.9-3.25-8.15c-1.42-2.22-3.22-3.96-5.38-5.18c-2.16-1.24-4.63-1.86-7.4-1.86
	c-3.11,0-5.77,0.71-7.95,2.16c-2.18,1.43-3.97,3.36-5.34,5.76c-1.3,2.3-2.27,4.99-2.92,8.07c-0.62,3.09-0.94,6.32-0.94,9.71
	c0,3.76,0.33,7.15,1.02,10.19c0.69,3.03,1.74,5.72,3.2,8.07c1.41,2.3,3.17,4.09,5.29,5.39c2.13,1.3,4.68,1.94,7.64,1.94
	c2.77,0,5.28-0.65,7.52-1.96c2.23-1.31,4.05-3.14,5.45-5.49L810.02,193.18z"/>
<path class="st0" d="M883.87,150.68c1.51-0.39,2.62-0.6,3.33-0.62v-2.81h-22.39v2.81c0.85,0.05,2.11,0.32,3.75,0.78
	c1.65,0.47,2.83,0.96,3.56,1.45c0.77,0.58,1.37,1.71,1.78,3.44c0.43,1.73,0.62,4.2,0.62,7.44v26.33l-31.04-42.23h-15.75v2.81
	c0.99,0.05,2.28,0.39,3.87,0.99c1.59,0.61,2.87,1.35,3.8,2.21c0.7,0.65,1.26,1.57,1.67,2.77c0.43,1.2,0.62,2.39,0.62,3.59v27.29
	c0,3.61-0.17,6.17-0.5,7.67c-0.34,1.49-0.97,2.61-1.87,3.33c-0.42,0.37-1.45,0.77-3.1,1.23c-1.65,0.45-2.83,0.71-3.53,0.76v2.81
	h22.64v-2.79c-0.6-0.04-1.84-0.29-3.71-0.78c-1.89-0.49-3.11-1.03-3.72-1.6c-0.83-0.72-1.45-1.95-1.86-3.66
	c-0.39-1.71-0.6-4.18-0.6-7.39v-28.58l33.47,45.39h3.36v-40.6c0-2.84,0.17-5.18,0.49-7.03c0.32-1.85,0.96-3.1,1.89-3.75
	c0.64-0.42,1.72-0.82,3.22-1.21L883.87,150.68z"/>
<path class="st1" d="M499.66,122.98l-0.13-0.02c-0.07-0.01-0.15-0.02-0.22-0.04c-0.62-0.11-1.14-0.27-1.56-0.48
	c-0.56-0.29-1.13-0.66-1.69-1.11c-0.56-0.45-1.19-1.16-1.9-2.12c-1.6-2.18-2.96-4.02-4.07-5.54c-1.11-1.52-2.5-3.38-4.18-5.61
	c1.21-0.34,2.33-0.78,3.33-1.29c1-0.5,1.86-1.1,2.57-1.79c0.78-0.74,1.37-1.6,1.78-2.61c0.39-1.02,0.6-2.17,0.6-3.48
	c0-1.46-0.29-2.71-0.88-3.74c-0.59-1.03-1.37-1.86-2.36-2.51c-1.03-0.65-2.16-1.13-3.42-1.42s-2.6-0.44-4.04-0.44h-15.63v1.71
	c0.44,0.04,0.98,0.1,1.62,0.22c0.62,0.12,1.14,0.26,1.54,0.4c0.58,0.22,0.94,0.55,1.11,0.98c0.16,0.43,0.23,0.93,0.23,1.48v24.59
	c0,0.62-0.1,1.13-0.32,1.53c-0.22,0.4-0.55,0.71-1.03,0.92c-0.28,0.12-0.8,0.23-1.52,0.31c-0.72,0.09-1.26,0.15-1.64,0.17v1.71
	h14.28v-1.71c-0.49-0.01-1.09-0.07-1.81-0.17c-0.72-0.09-1.21-0.2-1.49-0.31c-0.58-0.22-0.96-0.55-1.13-0.97
	c-0.17-0.43-0.26-0.92-0.26-1.47V109.4h3.47c1.91,2.46,3.69,4.85,5.3,7.17c1.63,2.33,3.47,5.07,5.48,8.26h7.95v-1.85H499.66z
	 M480.59,107.33h-3.12V92.74h4.05c2.16,0,3.82,0.6,4.99,1.81c1.18,1.2,1.78,2.84,1.78,4.9c0,2.43-0.74,4.35-2.19,5.76
	c-1.46,1.42-3.3,2.12-5.49,2.12L480.59,107.33z"/>
<path class="st1" d="M534.68,122.86c-0.58-0.16-1.07-0.34-1.42-0.56c-0.55-0.37-0.98-0.75-1.27-1.13c-0.31-0.39-0.58-0.89-0.82-1.51
	l-11.29-29.36h-1.91c-1.62,4.15-3.45,8.91-5.5,14.22c-2.06,5.33-3.93,10.12-5.65,14.39c-0.33,0.83-0.66,1.48-1.03,1.96
	c-0.34,0.47-0.85,0.92-1.47,1.36c-0.4,0.26-0.91,0.45-1.54,0.61c-0.07,0.01-0.12,0.02-0.2,0.04v1.95h11.43v-1.71
	c-1.26-0.06-2.39-0.27-3.39-0.62c-1-0.36-1.51-0.85-1.51-1.49c0-0.27,0.04-0.62,0.11-1.05c0.09-0.44,0.23-0.99,0.44-1.68
	c0.22-0.7,0.48-1.47,0.76-2.3c0.28-0.83,0.64-1.8,1.09-2.93h11.91l2.81,7.63c0.06,0.16,0.1,0.34,0.13,0.55
	c0.02,0.21,0.04,0.39,0.04,0.53c0,0.36-0.4,0.65-1.24,0.89c-0.82,0.23-1.85,0.4-3.09,0.48v1.71h14.1v-1.71
	C535.77,123.1,535.27,123.01,534.68,122.86L534.68,122.86z M512.33,110.92l5.07-13.23l5.15,13.23h-10.2H512.33z"/>
<path class="st0" d="M348.45,147.24v2.78c0.7,0.05,1.64,0.21,2.82,0.47c1.2,0.26,2.16,0.56,2.85,0.89c0.91,0.42,1.51,0.97,1.8,1.64
	c0.28,0.65,0.43,1.41,0.43,2.27v40.02c0,0.94-0.18,1.75-0.55,2.43c-0.33,0.65-0.89,1.15-1.68,1.48c-0.39,0.18-1.24,0.34-2.54,0.47
	c-1.3,0.1-2.34,0.18-3.12,0.23v2.77h24.03v-2.77c-0.67-0.02-1.67-0.17-2.96-0.43c-1.3-0.26-2.16-0.48-2.54-0.66
	c-0.86-0.42-1.46-0.97-1.8-1.64c-0.34-0.67-0.5-1.45-0.5-2.3v-19.11h3.69c5.22,0,6.44,0.64,7.23,1.3c0.51,0.44,1,1.18,1.45,2.17
	c0.47,1,0.77,1.8,0.82,2.14h2.98v-14.39h-2.98c-0.13,0.94-0.42,1.84-0.86,2.68c-0.42,0.82-0.88,1.43-1.41,1.83
	c-0.76,0.58-2.01,1.1-7.23,1.1h-3.69v-22.16h14.81c5.22,0,6.44,0.64,7.23,1.3c0.51,0.44,1,1.18,1.45,2.17
	c0.47,1,0.82,2.13,0.82,2.13h2.98v-8.81h-43.5L348.45,147.24z"/>
</svg>
