<?xml version="1.0" encoding="UTF-8"?><svg id="Layer_1" xmlns="http://www.w3.org/2000/svg" viewBox="0 0 40 40"><defs><style>.cls-1{fill:#d71e25;}.cls-2{fill:#fff;}</style></defs><g id="layer1"><g id="g2156"><path id="path1397" class="cls-1" d="M40,40H0V0h40v40Z"/><path id="path1399" class="cls-2" d="M3.6,16.5h2.5v8.2h-2.5v-8.2Z"/><path id="path1401" class="cls-2" d="M7.5,16.5h2.4v.8s.4-1,2.4-1c2.6,0,3,1.7,3,3.9v4.5h-2.5v-4c0-.9,0-2.2-1.3-2.2s-1.5,1-1.5,2.1v4.1h-2.5v-8.2Z"/><path id="path1403" class="cls-2" d="M16.7,15.1c0-1.8.5-3.3,3.2-3.3s1,0,1.5.2v2.1c-.4-.1-.6-.2-.9-.2-.8,0-1.2.3-1.2,1.3v1.3h1.9v2h-1.9v6.2h-2.5v-9.7Z"/><path id="path1405" class="cls-2" d="M26,16.3c2.5,0,4.6,1.7,4.6,4.3s-2,4.3-4.6,4.3-4.6-1.7-4.6-4.3,2-4.3,4.6-4.3M26,22.7c1.3,0,2-.8,2-2.1s-.8-2.1-2-2.1-2,.8-2,2.1.8,2.1,2,2.1"/><path id="path1407" class="cls-2" d="M31.5,16.5h2.5v.7s.7-1,3.2-.9v2.2c-.4-.1-.7-.2-1.1-.2-1.9,0-2.2,1.4-2.2,3v3.3h-2.5v-8.2Z"/><path id="path1409" class="cls-2" d="M3.6,13.8l2.5-1.7v3.1h-2.5v-1.4Z"/></g></g></svg>