<?xml version="1.0" encoding="UTF-8"?>
<svg id="Layer_1" xmlns="http://www.w3.org/2000/svg" xmlns:xlink="http://www.w3.org/1999/xlink" version="1.1" viewBox="0 0 1285 390">
  <!-- Generator: Adobe Illustrator 29.4.0, SVG Export Plug-In . SVG Version: 2.1.0 Build 152)  -->
  <defs>
    <style>
      .st0 {
        fill: none;
      }

      .st1 {
        clip-path: url(#clippath-17);
      }

      .st2 {
        clip-path: url(#clippath-19);
      }

      .st3 {
        clip-path: url(#clippath-11);
      }

      .st4 {
        clip-path: url(#clippath-16);
      }

      .st5 {
        clip-path: url(#clippath-18);
      }

      .st6 {
        clip-path: url(#clippath-10);
      }

      .st7 {
        clip-path: url(#clippath-15);
      }

      .st8 {
        clip-path: url(#clippath-13);
      }

      .st9 {
        clip-path: url(#clippath-14);
      }

      .st10 {
        clip-path: url(#clippath-12);
      }

      .st11 {
        clip-path: url(#clippath-31);
      }

      .st12 {
        clip-path: url(#clippath-32);
      }

      .st13 {
        clip-path: url(#clippath-33);
      }

      .st14 {
        clip-path: url(#clippath-34);
      }

      .st15 {
        clip-path: url(#clippath-35);
      }

      .st16 {
        clip-path: url(#clippath-39);
      }

      .st17 {
        clip-path: url(#clippath-30);
      }

      .st18 {
        clip-path: url(#clippath-36);
      }

      .st19 {
        clip-path: url(#clippath-37);
      }

      .st20 {
        clip-path: url(#clippath-38);
      }

      .st21 {
        clip-path: url(#clippath-27);
      }

      .st22 {
        clip-path: url(#clippath-29);
      }

      .st23 {
        clip-path: url(#clippath-26);
      }

      .st24 {
        clip-path: url(#clippath-28);
      }

      .st25 {
        clip-path: url(#clippath-20);
      }

      .st26 {
        clip-path: url(#clippath-21);
      }

      .st27 {
        clip-path: url(#clippath-22);
      }

      .st28 {
        clip-path: url(#clippath-23);
      }

      .st29 {
        clip-path: url(#clippath-24);
      }

      .st30 {
        clip-path: url(#clippath-25);
      }

      .st31 {
        clip-path: url(#clippath-40);
      }

      .st32 {
        clip-path: url(#clippath-1);
      }

      .st33 {
        clip-path: url(#clippath-3);
      }

      .st34 {
        clip-path: url(#clippath-4);
      }

      .st35 {
        clip-path: url(#clippath-2);
      }

      .st36 {
        clip-path: url(#clippath-7);
      }

      .st37 {
        clip-path: url(#clippath-6);
      }

      .st38 {
        clip-path: url(#clippath-9);
      }

      .st39 {
        clip-path: url(#clippath-8);
      }

      .st40 {
        clip-path: url(#clippath-5);
      }

      .st41 {
        fill: #044c7d;
      }

      .st42 {
        fill: #002d72;
      }

      .st43 {
        clip-path: url(#clippath);
      }
    </style>
    <clipPath id="clippath">
      <rect class="st0" x="92.9" y="90.8" width="194.9" height="210"/>
    </clipPath>
    <clipPath id="clippath-1">
      <rect class="st0" x="92.9" y="90.8" width="194.9" height="210"/>
    </clipPath>
    <clipPath id="clippath-2">
      <rect class="st0" x="92.9" y="90.8" width="194.9" height="210"/>
    </clipPath>
    <clipPath id="clippath-3">
      <rect class="st0" x="92.9" y="90.8" width="194.9" height="210"/>
    </clipPath>
    <clipPath id="clippath-4">
      <rect class="st0" x="92.9" y="90.8" width="194.9" height="210"/>
    </clipPath>
    <clipPath id="clippath-5">
      <rect class="st0" x="92.9" y="90.8" width="194.9" height="210"/>
    </clipPath>
    <clipPath id="clippath-6">
      <rect class="st0" x="92.9" y="90.8" width="194.9" height="210"/>
    </clipPath>
    <clipPath id="clippath-7">
      <rect class="st0" x="92.9" y="90.8" width="194.9" height="210"/>
    </clipPath>
    <clipPath id="clippath-8">
      <rect class="st0" x="92.9" y="90.8" width="194.9" height="210"/>
    </clipPath>
    <clipPath id="clippath-9">
      <rect class="st0" x="92.9" y="90.8" width="194.9" height="210"/>
    </clipPath>
    <clipPath id="clippath-10">
      <rect class="st0" x="92.9" y="90.8" width="194.9" height="210"/>
    </clipPath>
    <clipPath id="clippath-11">
      <rect class="st0" x="92.9" y="90.8" width="194.9" height="210"/>
    </clipPath>
    <clipPath id="clippath-12">
      <rect class="st0" x="92.9" y="90.8" width="194.9" height="210"/>
    </clipPath>
    <clipPath id="clippath-13">
      <rect class="st0" x="92.9" y="90.8" width="194.9" height="210"/>
    </clipPath>
    <clipPath id="clippath-14">
      <rect class="st0" x="92.9" y="90.8" width="194.9" height="210"/>
    </clipPath>
    <clipPath id="clippath-15">
      <rect class="st0" x="92.9" y="90.8" width="194.9" height="210"/>
    </clipPath>
    <clipPath id="clippath-16">
      <rect class="st0" x="92.9" y="90.8" width="194.9" height="210"/>
    </clipPath>
    <clipPath id="clippath-17">
      <rect class="st0" x="92.9" y="90.8" width="194.9" height="210"/>
    </clipPath>
    <clipPath id="clippath-18">
      <rect class="st0" x="92.9" y="90.8" width="194.9" height="210"/>
    </clipPath>
    <clipPath id="clippath-19">
      <rect class="st0" x="92.9" y="90.8" width="194.9" height="210"/>
    </clipPath>
    <clipPath id="clippath-20">
      <rect class="st0" x="92.9" y="90.8" width="194.9" height="210"/>
    </clipPath>
    <clipPath id="clippath-21">
      <rect class="st0" x="92.9" y="90.8" width="194.9" height="210"/>
    </clipPath>
    <clipPath id="clippath-22">
      <rect class="st0" x="92.9" y="90.8" width="194.9" height="210"/>
    </clipPath>
    <clipPath id="clippath-23">
      <rect class="st0" x="92.9" y="90.8" width="194.9" height="210"/>
    </clipPath>
    <clipPath id="clippath-24">
      <rect class="st0" x="92.9" y="90.8" width="194.9" height="210"/>
    </clipPath>
    <clipPath id="clippath-25">
      <rect class="st0" x="92.9" y="90.8" width="194.9" height="210"/>
    </clipPath>
    <clipPath id="clippath-26">
      <rect class="st0" x="92.9" y="90.8" width="194.9" height="210"/>
    </clipPath>
    <clipPath id="clippath-27">
      <rect class="st0" x="92.9" y="90.8" width="194.9" height="210"/>
    </clipPath>
    <clipPath id="clippath-28">
      <rect class="st0" x="92.9" y="90.8" width="194.9" height="210"/>
    </clipPath>
    <clipPath id="clippath-29">
      <rect class="st0" x="320.5" y="114.5" width="871.6" height="119"/>
    </clipPath>
    <clipPath id="clippath-30">
      <rect class="st0" x="320.5" y="114.5" width="871.6" height="119"/>
    </clipPath>
    <clipPath id="clippath-31">
      <rect class="st0" x="320.5" y="114.5" width="871.6" height="119"/>
    </clipPath>
    <clipPath id="clippath-32">
      <rect class="st0" x="320.5" y="114.5" width="871.6" height="119"/>
    </clipPath>
    <clipPath id="clippath-33">
      <rect class="st0" x="320.5" y="114.5" width="871.6" height="119"/>
    </clipPath>
    <clipPath id="clippath-34">
      <rect class="st0" x="320.5" y="114.5" width="871.6" height="119"/>
    </clipPath>
    <clipPath id="clippath-35">
      <rect class="st0" x="320.5" y="114.5" width="871.6" height="119"/>
    </clipPath>
    <clipPath id="clippath-36">
      <rect class="st0" x="320.5" y="114.5" width="871.6" height="119"/>
    </clipPath>
    <clipPath id="clippath-37">
      <rect class="st0" x="320.5" y="114.5" width="871.6" height="119"/>
    </clipPath>
    <clipPath id="clippath-38">
      <rect class="st0" x="320.5" y="114.5" width="871.6" height="119"/>
    </clipPath>
    <clipPath id="clippath-39">
      <rect class="st0" x="320.5" y="114.5" width="871.6" height="119"/>
    </clipPath>
    <clipPath id="clippath-40">
      <rect class="st0" x="320.5" y="114.5" width="871.6" height="119"/>
    </clipPath>
  </defs>
  <g>
    <path class="st42" d="M480.2,258.7c0-3.7-.1-10.6-1.1-12.4-.4-.7-1.5-1.1-3-1.3l-1.5-.1c-.4-.4-.2-1.2.1-1.4,2.3.1,4.5.2,6.8.2,2.5,0,4.1-.1,6.3-.2.5.3.4,1.1.1,1.4l-1.4.1c-1.5.1-2.6.7-3,1.4-.8,2-.8,8.9-.8,12.2v6.8c0,5.2-.8,10.7-4.2,14.3-2.6,2.8-7,4.4-11.5,4.4-4.1,0-8.3-.8-11.2-3.3-3.2-2.6-4.7-7-4.7-14.2v-14.2c0-6.2-.1-7.3-3.6-7.6l-1.5-.1c-.4-.2-.2-1.3.1-1.4,3,.1,5,.2,7.4.2s4.4-.1,7.4-.2c.4.2.5,1.2.1,1.4l-1.4.1c-3.5.3-3.6,1.3-3.6,7.6v13c0,9.7,3,16,12.2,16,8.7,0,12-6.8,12-16v-6.7h0Z"/>
    <path class="st42" d="M558.6,273c0,1.8,0,8.9.2,10.5-.1.4-.5.7-1.1.7-.7-1-2.5-3.1-7.7-9.1l-13.9-15.8c-1.6-1.9-5.7-6.8-7-8.1h-.1c-.2.7-.3,2.1-.3,3.9v13.1c0,2.8.1,10.6,1.1,12.4.4.7,1.6,1,3.1,1.1l1.9.2c.4.5.3,1.2-.1,1.5-2.7-.1-4.8-.2-7-.2-2.5,0-4.1.1-6.2.2-.4-.3-.5-1.1-.1-1.5l1.6-.2c1.4-.2,2.3-.5,2.6-1.2.8-2.1.8-9.5.8-12.4v-17.3c0-1.7-.1-2.9-1.3-4.3-.8-.8-2.3-1.3-3.7-1.4l-1-.1c-.4-.4-.4-1.3.1-1.5,2.5.2,5.7.2,6.8.2,1,0,2-.1,2.8-.2,1.2,3.1,8.3,11,10.3,13.2l5.8,6.5c4.1,4.6,7.1,8,9.9,10.9h.1c.2-.3.2-1.3.2-2.5v-12.8c0-2.8-.1-10.6-1.2-12.4-.4-.6-1.3-.9-3.7-1.2l-1-.1c-.4-.4-.4-1.3.1-1.5,2.8.1,4.8.2,7.1.2,2.6,0,4.1-.1,6.2-.2.5.3.5,1.1.1,1.5l-.8.1c-1.9.3-3.1.8-3.4,1.3-1,2.2-.9,9.6-.9,12.4v14.1h-.3Z"/>
    <path class="st42" d="M603.3,252.7c0-6.4-.1-7.4-3.7-7.7l-1.5-.1c-.4-.2-.2-1.3.1-1.5,3,.1,5,.2,7.6.2,2.4,0,4.4-.1,7.4-.2.4.2.5,1.3.1,1.5l-1.5.1c-3.5.3-3.7,1.3-3.7,7.7v21.4c0,6.4.1,7.2,3.7,7.6l1.5.2c.4.2.2,1.3-.1,1.5-3-.1-5-.2-7.4-.2s-4.6.1-7.6.2c-.4-.2-.5-1.1-.1-1.5l1.5-.2c3.5-.4,3.7-1.3,3.7-7.6v-21.4Z"/>
    <path class="st42" d="M651.9,250c-1.4-3.4-2.3-4.6-4.9-4.9l-1.1-.1c-.4-.4-.4-1.2.1-1.5,1.7.1,3.7.2,6.2.2s4.7-.1,7.3-.2c.4.2.5,1.1.1,1.5l-.9.1c-2.3.3-2.8.7-2.8,1.1.1.6,1.1,3.8,3,8.4,2.8,7,5.5,13.9,8.5,20.7,1.8-4,4.4-10.1,5.8-13.3,1.7-4.1,4.6-10.9,5.6-13.4.5-1.3.5-1.9.5-2.3s-.6-.9-2.7-1.1l-1.1-.1c-.4-.4-.3-1.3.1-1.5,1.7.1,4,.2,6.2.2,2,0,3.8-.1,5.8-.2.4.2.4,1.2.1,1.5l-1.8.1c-1.4.1-2.3.8-3.1,2.1-1.7,2.8-4,7.7-6.7,13.8l-3.2,7.4c-2.4,5.5-5.2,12.5-6.2,15.7-.2.1-.4.2-.6.2-.3,0-.6-.1-.9-.2-.7-2.5-1.7-5.5-2.8-8l-10.5-26.2Z"/>
    <path class="st42" d="M724.2,252.6c0-6.3-.1-7.2-3.7-7.6l-1-.1c-.4-.2-.2-1.3.1-1.5,2.6.1,4.6.2,7.1.2h11.3c3.8,0,7.4,0,8.1-.2.4,1,.7,5.3,1,8-.2.4-1.2.5-1.5.1-.9-2.8-1.4-4.9-4.6-5.7-1.3-.3-3.2-.4-5.8-.4h-4.3c-1.8,0-1.8.1-1.8,2.4v12c0,1.7.2,1.7,2,1.7h3.5c2.5,0,4.4-.1,5.1-.4.7-.2,1.1-.6,1.4-2.1l.5-2.5c.3-.4,1.3-.4,1.5.1,0,1.4-.2,3.8-.2,6.1s.2,4.4.2,5.7c-.2.4-1.3.4-1.5.1l-.6-2.3c-.2-1.1-.6-2-1.8-2.3-.8-.2-2.3-.3-4.6-.3h-3.5c-1.8,0-2,.1-2,1.6v8.5c0,3.2.2,5.2,1.1,6.2.7.7,2,1.4,7.3,1.4,4.6,0,6.4-.2,7.7-.9,1.1-.6,2.7-2.7,4.3-5.8.4-.3,1.3-.1,1.5.4-.4,2.1-1.9,6.7-2.7,8.3-5.4-.1-10.7-.2-16.1-.2h-5.4c-2.6,0-4.6.1-8.2.2-.4-.2-.5-1.1-.1-1.5l2-.2c3.4-.3,3.7-1.2,3.7-7.5v-21.5h0Z"/>
    <path class="st42" d="M789.2,252.7c0-5.7-.2-6.7-2.6-7l-1.9-.2c-.4-.3-.4-1.3.1-1.5,3.3-.3,7.5-.5,13.4-.5,3.7,0,7.3.3,10,1.8,2.9,1.5,5,4.2,5,8.4,0,5.7-4.5,8.8-7.5,10-.3.4,0,1,.3,1.4,4.8,7.7,8,12.5,12.1,16,1,.9,2.5,1.6,4.1,1.7.3.1.4.6.1.8-.5.2-1.5.3-2.6.3-5.1,0-8.2-1.5-12.4-7.6-1.6-2.2-4-6.4-5.9-9.1-.9-1.3-1.9-1.9-4.3-1.9-2.7,0-2.8.1-2.8,1.3v7.6c0,6.3.1,7,3.6,7.5l1.2.2c.4.3.2,1.3-.1,1.5-2.7-.1-4.7-.2-7.1-.2s-4.7.1-7.5.2c-.4-.2-.5-1.1-.1-1.5l1.5-.2c3.5-.4,3.6-1.2,3.6-7.5v-21.5h-.2ZM794.1,261.3c0,1.1,0,1.7.2,2,.2.2,1.1.3,4.1.3,2.2,0,4.4-.2,6.2-1.6,1.6-1.3,3-3.4,3-7.4,0-4.7-2.9-9.2-9.6-9.2-3.7,0-3.9.2-3.9,1.9v14Z"/>
    <path class="st42" d="M861.7,284.2c-5,0-8.2-1.6-9.4-2.2-.7-1.3-1.5-5.6-1.6-8.4.3-.4,1.2-.5,1.4-.2.9,3.1,3.4,8.9,10.3,8.9,5,0,7.5-3.3,7.5-6.9,0-2.6-.5-5.6-4.9-8.4l-5.7-3.7c-3-2-6.5-5.4-6.5-10.3,0-5.7,4.4-10.3,12.2-10.3,1.9,0,4,.4,5.6.8.8.2,1.6.4,2.1.4.5,1.4,1.1,4.8,1.1,7.3-.2.4-1.2.5-1.5.2-.8-2.9-2.4-6.8-8.2-6.8s-7.1,3.9-7.1,6.7c0,3.5,2.9,6,5.1,7.4l4.8,3c3.8,2.3,7.5,5.8,7.5,11.5.1,6.5-4.9,11-12.7,11"/>
    <path class="st42" d="M915.3,252.7c0-6.4-.1-7.4-3.7-7.7l-1.5-.1c-.4-.2-.2-1.3.1-1.5,3,.1,5,.2,7.6.2,2.4,0,4.4-.1,7.4-.2.4.2.5,1.3.1,1.5l-1.5.1c-3.5.3-3.7,1.3-3.7,7.7v21.4c0,6.4.1,7.2,3.7,7.6l1.5.2c.4.2.2,1.3-.1,1.5-3-.1-5-.2-7.4-.2s-4.6.1-7.6.2c-.4-.2-.5-1.1-.1-1.5l1.5-.2c3.5-.4,3.7-1.3,3.7-7.6v-21.4Z"/>
    <path class="st42" d="M981.9,274.2c0,6.3.1,7.2,3.6,7.5l1.9.2c.4.2.2,1.3-.1,1.5-3.4-.1-5.5-.2-7.9-.2s-4.5.1-8.3.2c-.4-.2-.5-1.2,0-1.5l2.2-.2c3.4-.3,3.7-1.2,3.7-7.5v-26.8q0-1.9-1.8-1.9h-3.3c-2.6,0-5.9.1-7.4,1.5-1.4,1.3-2,2.6-2.7,4.1-.5.4-1.3.1-1.6-.4,1-2.7,1.9-6.6,2.3-8.9.2-.1,1-.2,1.1,0,.4,1.9,2.3,1.9,5.1,1.9h24.3c3.2,0,3.8-.1,4.7-1.7.3-.1,1-.1,1.1.2-.7,2.5-1.1,7.3-.9,9.1-.2.5-1.3.5-1.6.1-.2-1.5-.6-3.7-1.5-4.4-1.4-1-3.7-1.5-7-1.5h-4.3c-1.8,0-1.7.1-1.7,2v26.7h.1Z"/>
    <path class="st42" d="M1050.3,274.1c0,6.4.4,7.4,3.6,7.6l2.3.2c.3.4.2,1.3-.1,1.5-3.7-.1-5.8-.2-8.2-.2s-4.7.1-7.9.2c-.4-.2-.5-1.1-.1-1.5l1.9-.2c3.5-.4,3.6-1.2,3.6-7.6v-3.1c0-3.3-.2-4.1-1.9-7.4l-7.1-13.8c-2-4-2.9-4.3-4.7-4.6l-1.7-.3c-.4-.4-.3-1.3.1-1.5,1.9.1,4.1.2,7,.2s4.9-.1,6.4-.2c.5.2.5,1.1.2,1.5l-.8.1c-2.1.3-2.5.6-2.5,1.1,0,.6,1.6,4,1.9,4.6,2.2,4.4,4.4,9.2,6.8,13.3,1.8-3.2,3.8-6.7,5.6-10.1,1.7-3.1,3.9-7.2,3.9-7.9,0-.4-1.1-.8-2.5-1l-1.1-.1c-.4-.4-.4-1.3.1-1.5,2.2.1,3.9.2,5.8.2s3.5-.1,5.6-.2c.5.3.5,1.1.1,1.5l-1.7.3c-3.1.5-4.9,4.3-7.9,9.5l-3.8,6.5c-2.6,4.6-2.8,5.1-2.8,9.7v3.2h-.1Z"/>
  </g>
  <g>
    <g class="st43">
      <path class="st42" d="M194.6,299.1c5.1-2.8,11.3-6.7,18-11.8v-60.7l-18-12v84.5Z"/>
    </g>
    <g class="st32">
      <path class="st42" d="M194.6,172.6l18,12v-30.7c-6-.3-12-.4-18-.5v19.2Z"/>
    </g>
    <g class="st35">
      <path class="st42" d="M248.7,157.1c-6-.8-12-1.4-18-1.9v41.4l18,12v-51.5Z"/>
    </g>
    <g class="st33">
      <path class="st42" d="M230.7,238.6v33c6.1-6,12.2-13,18-20.9v-.1l-18-12Z"/>
    </g>
    <g class="st34">
      <path class="st41" d="M248.7,250.6h0Z"/>
    </g>
    <g class="st40">
      <path class="st42" d="M266.7,159.8v60.8h.1c7.9-16.3,14.2-35.3,17.8-57.4l-.6-.1c-5.7-1.2-11.5-2.3-17.3-3.3"/>
    </g>
    <g class="st37">
      <polygon class="st42" points="212.6 184.6 212.6 226.6 230.7 238.6 230.7 196.6 212.6 184.6"/>
    </g>
    <g class="st36">
      <path class="st42" d="M248.7,208.6v42h0c6.5-8.7,12.6-18.7,18-29.9v-.1l-18-12Z"/>
    </g>
    <g class="st39">
      <path class="st41" d="M266.7,220.7c.1,0,.1-.1,0,0v-.1.1Z"/>
    </g>
    <g class="st38">
      <path class="st42" d="M155,229.3c5.3-1.5,10-4.4,13.6-8.5-2-.7-4.3-1.4-6.9-2-2,4.4-4.4,7.9-6.7,10.5"/>
    </g>
    <g class="st6">
      <path class="st42" d="M126.4,220.9c3.6,4,8.3,7,13.6,8.5-2.2-2.6-4.7-6.1-6.7-10.5-2.6.5-4.9,1.3-6.9,2"/>
    </g>
    <g class="st3">
      <path class="st42" d="M144.9,177.1c-2,2.2-4.3,5.2-6.2,9,1.9.3,4,.4,6.2.5v-9.5Z"/>
    </g>
    <g class="st10">
      <path class="st42" d="M163.5,213.9c3.3.8,6,1.7,8.3,2.6,2.1-3.5,3.5-7.6,3.9-11.9h-10.5c-.2,3.4-.8,6.5-1.7,9.3"/>
    </g>
    <g class="st8">
      <path class="st42" d="M140,174.7c-5.3,1.5-10,4.5-13.6,8.5,2,.7,4.3,1.4,6.9,2,2-4.4,4.5-7.8,6.7-10.5"/>
    </g>
    <g class="st9">
      <path class="st42" d="M168.6,183.2c-3.6-4-8.3-7-13.6-8.4,2.2,2.6,4.7,6.1,6.7,10.5,2.6-.7,4.9-1.4,6.9-2.1"/>
    </g>
    <g class="st7">
      <path class="st42" d="M165.2,199.4h10.5c-.4-4.3-1.8-8.3-3.9-11.9-2.3.9-5,1.8-8.3,2.6.9,2.8,1.5,6,1.7,9.3"/>
    </g>
    <g class="st4">
      <path class="st42" d="M150.1,227c2-2.2,4.3-5.2,6.2-9.1-1.9-.3-4-.4-6.2-.5v9.6Z"/>
    </g>
    <g class="st1">
      <path class="st42" d="M144.9,204.6h-9.9c.2,3,.8,5.8,1.6,8.3,2.5-.4,5.3-.6,8.2-.8v-7.5h.1Z"/>
    </g>
    <g class="st5">
      <path class="st42" d="M150.1,212.2c3,.1,5.7.4,8.2.7.8-2.5,1.4-5.3,1.6-8.3h-9.9v7.6h.1Z"/>
    </g>
    <g class="st2">
      <path class="st42" d="M156.3,186.1c-1.9-3.9-4.3-6.9-6.2-9.1v9.6c2.2,0,4.3-.2,6.2-.5"/>
    </g>
    <g class="st25">
      <path class="st42" d="M160,199.4c-.2-3-.8-5.8-1.6-8.3-2.5.4-5.3.6-8.2.8v7.6h9.8v-.1Z"/>
    </g>
    <g class="st26">
      <path class="st42" d="M138.7,217.9c1.9,3.8,4.2,6.9,6.2,9v-9.5c-2.2.1-4.3.3-6.2.5"/>
    </g>
    <g class="st27">
      <path class="st42" d="M131.5,190.1c-3.3-.8-6-1.7-8.3-2.6-2.1,3.5-3.5,7.6-3.9,11.9h10.5c.2-3.3.8-6.5,1.7-9.3"/>
    </g>
    <g class="st28">
      <path class="st42" d="M144.9,191.9c-2.9-.1-5.7-.4-8.2-.8-.8,2.5-1.4,5.3-1.6,8.3h9.8v-7.5Z"/>
    </g>
    <g class="st29">
      <path class="st42" d="M129.8,204.6h-10.5c.4,4.3,1.8,8.3,3.9,11.9,2.3-.9,5-1.8,8.3-2.6-.9-2.8-1.5-5.9-1.7-9.3"/>
    </g>
    <g class="st30">
      <path class="st42" d="M96.1,163.2c13.2,81.8,64.5,121.8,90,135.9v-145.7c-30.2.3-60.2,3.5-89.4,9.7l-.6.1ZM147.5,168.5c18.5,0,33.5,15,33.5,33.5s-15.1,33.5-33.5,33.5-33.5-15.1-33.5-33.5,15-33.5,33.5-33.5"/>
    </g>
    <g class="st23">
      <path class="st42" d="M283.9,100.6h0c-30.2-6.5-61.5-9.9-93.6-9.9s-63.4,3.4-93.6,9.9h-.1c-2.1.5-3.7,2.5-3.7,4.8v16.9c0,11.1.7,21.6,1.9,31.5,31.3-6.6,63.5-9.9,95.6-9.9s64.2,3.3,95.5,9.9c1.2-9.9,1.9-20.4,1.9-31.5v-16.9c0-2.3-1.7-4.3-3.9-4.8M262.8,142.5c-23.5-4.5-50.4-5.8-72.5-5.8h0c-22.1,0-49,1.4-72.5,5.8-.9.2-1.7-.6-1.2-1.6l15.4-34.1c.2-.3,10.1-5.2,10.1-5.2,12.7-2.7,33.5-1.5,48.1,3.9h.1c14.6-5.4,35.4-6.5,48.1-3.9,0,0,10,4.9,10.1,5.2l15.4,34.1c.6,1-.2,1.8-1.1,1.6"/>
    </g>
    <g class="st21">
      <path class="st42" d="M234.4,107.5l6.5,17.4c-15.1-2.1-27.6-1.1-46.1,4.9v1.6c17.5-.7,39.6-1.6,57.4,2.2l-9.7-22.4-8.1-3.7Z"/>
    </g>
    <g class="st24">
      <path class="st42" d="M139.5,124.8l6.5-17.4-8.1,3.7-9.7,22.4c17.9-3.8,40-2.9,57.4-2.2v-1.6c-18.4-6-30.9-6.9-46.1-4.9"/>
    </g>
  </g>
  <g>
    <g class="st22">
      <path class="st42" d="M345.4,135.9c0-15.3-1.4-16.9-9.5-17.6l-3.4-.3c-.8-.6-.6-3,.3-3.4,8,.3,12.7.4,18.5.4,5.5,0,10.2-.1,15.7-.4.8.4,1.1,2.9.3,3.4l-2.1.3c-8.1,1.1-8.4,3-8.4,17.6v51.1c0,10.9-.6,20.4-3.2,26.7-4.6,11-14.3,19.8-27.1,19.8-1.6,0-5.9-.1-5.9-2.9,0-2.3,2.1-6.3,5-6.3,1.7,0,3.3.3,5.1.8,1.9.5,3.9,1,5.8,1,2.9,0,4.6-1.7,5.5-3.6,3.2-6.5,3.6-27.1,3.6-34.6v-52h-.2Z"/>
    </g>
    <g class="st17">
      <path class="st42" d="M366.9,168.3c0-23.2,17.4-41,41.4-41,26.8,0,40.3,19.4,40.3,39.9,0,23.5-17.9,40.6-40.3,40.6-25.8-.1-41.4-18.5-41.4-39.5M437,170.8c0-19.2-8.5-39.9-30.7-39.9-12.1,0-27.8,8.3-27.8,33.7,0,17.2,8.4,39.5,31.3,39.5,13.9,0,27.2-10.4,27.2-33.3"/>
    </g>
    <g class="st11">
      <path class="st42" d="M475,168.3c-5.6,0-5.8.2-5.8,3.7v16.4c0,12.2.6,13.8,7.1,14.5l3.4.4c.7.5.5,2.6-.2,2.9-6.3-.2-10.2-.3-14.8-.3-5,0-8.9.2-13.5.3-.7-.3-.9-2.2-.2-2.9l2-.4c6.5-1.2,6.7-2.3,6.7-14.5v-41.8c0-12.2-.8-14.2-6.9-14.6l-3-.2c-.7-.5-.5-2.6.2-2.9,5.7.1,9.7.3,14.6.3,4.5,0,8.5-.1,13.5-.3.7.3.9,2.4.2,2.9l-2.2.2c-6.7.7-7,2.4-7,14.6v13.4c0,3.6.2,3.7,5.8,3.7h33.2c5.6,0,5.8-.1,5.8-3.7v-13.4c0-12.2-.2-13.9-7.1-14.6l-2.2-.2c-.7-.5-.5-2.6.2-2.9,5.3.2,9.3.3,14.1.3,4.5,0,8.5-.1,13.7-.3.7.3.9,2.4.2,2.9l-2.4.2c-6.7.7-7,2.4-7,14.6v41.8c0,12.2.2,13.7,7,14.5l2.8.4c.7.5.5,2.6-.2,2.9-5.6-.2-9.5-.3-14.1-.3s-8.9.1-14.1.3c-.7-.3-.9-2.2-.2-2.9l2.2-.4c7.1-1.2,7.1-2.3,7.1-14.5v-16.4c0-3.5-.2-3.7-5.8-3.7h-33.1Z"/>
    </g>
    <g class="st12">
      <path class="st42" d="M612.7,186.1c0,3.5,0,17.3.3,20.3-.2.7-.9,1.3-2.2,1.3-1.4-2-4.8-6-14.9-17.5l-27-30.7c-3.1-3.6-11-13.1-13.5-15.7h-.2c-.5,1.4-.6,4.1-.6,7.5v25.3c0,5.5.1,20.6,2.1,24,.7,1.3,3,2,5.9,2.2l3.6.4c.7.9.6,2.3-.2,2.9-5.2-.2-9.3-.3-13.6-.3-4.9,0-8,.1-12.1.3-.8-.6-.9-2.2-.2-2.9l3.1-.4c2.7-.3,4.5-1,5.1-2.3,1.6-4.2,1.5-18.4,1.5-23.9v-33.6c0-3.3-.1-5.7-2.6-8.4-1.6-1.6-4.4-2.4-7.2-2.8l-2-.2c-.7-.7-.7-2.4.2-2.9,4.9.3,11,.3,13.1.3,1.9,0,3.8-.1,5.3-.3,2.3,5.9,16,21.3,19.9,25.6l11.3,12.7c8,8.9,13.7,15.5,19.2,21h.2c.5-.6.5-2.4.5-4.9v-24.9c0-5.5-.1-20.6-2.3-24.1-.7-1-2.6-1.7-7.2-2.3l-2-.2c-.8-.7-.7-2.6.2-2.9,5.4.2,9.3.3,13.7.3,5,0,8-.1,12-.3.9.6.9,2.2.2,2.9l-1.3.4c-3.7.6-6,1.5-6.5,2.4-2,4.2-1.7,18.6-1.7,23.9v27.8h-.1Z"/>
    </g>
    <g class="st13">
      <path class="st42" d="M643.4,207.7c-9.8,0-15.9-3-18.1-4.3-1.4-2.6-2.9-10.8-3.1-16.3.6-.8,2.3-1.1,2.8-.3,1.7,5.9,6.5,17.3,20,17.3,9.8,0,14.5-6.4,14.5-13.4,0-5.1-1-10.8-9.5-16.3l-11-7.2c-5.8-3.8-12.5-10.5-12.5-20,0-11,8.6-20,23.7-20,3.6,0,7.8.7,10.8,1.5,1.5.5,3.1.7,4.1.7,1,2.8,2.1,9.3,2.1,14.2-.5.7-2.3,1-2.9.4-1.5-5.6-4.6-13.1-15.8-13.1s-13.8,7.6-13.8,12.9c0,6.7,5.6,11.6,9.9,14.3l9.3,5.8c7.3,4.5,14.5,11.3,14.5,22.3-.2,12.8-9.9,21.5-25,21.5"/>
    </g>
    <g class="st14">
      <path class="st42" d="M737.2,161.4c-6.6,0-6.9.3-6.9,4.4v19.4c0,14.5.7,16.4,8.4,17.2l4,.4c.8.5.6,3-.3,3.4-7.4-.3-12.1-.4-17.5-.4-5.9,0-10.6.3-16,.4-.8-.4-1.1-2.6-.3-3.4l2.3-.4c7.7-1.4,8-2.8,8-17.2v-49.6c0-14.5-1-16.8-8.1-17.4l-3.6-.3c-.8-.5-.6-3,.3-3.4,6.7.1,11.4.4,17.4.4,5.4,0,10.1-.1,16-.4.8.4,1.1,2.9.3,3.4l-2.6.3c-8,.8-8.3,2.9-8.3,17.4v15.8c0,4.3.3,4.4,6.9,4.4h39.4c6.6,0,6.9-.1,6.9-4.4v-15.8c0-14.5-.3-16.5-8.4-17.4l-2.6-.3c-.8-.5-.5-3,.3-3.4,6.3.3,11,.4,16.7.4,5.4,0,10.1-.1,16.3-.4.8.4,1.1,2.9.3,3.4l-2.9.3c-8,.8-8.3,2.9-8.3,17.4v49.6c0,14.5.3,16.3,8.3,17.2l3.3.4c.8.5.6,3-.3,3.4-6.6-.3-11.3-.4-16.7-.4s-10.6.1-16.7.4c-.8-.4-1.1-2.6-.3-3.4l2.6-.4c8.4-1.4,8.4-2.8,8.4-17.2v-19.4c0-4.1-.3-4.4-6.9-4.4h-39.4Z"/>
    </g>
    <g class="st15">
      <path class="st42" d="M805.4,168.3c0-23.2,17.4-41,41.4-41,26.9,0,40.3,19.4,40.3,39.9,0,23.5-17.9,40.6-40.3,40.6-25.8-.1-41.4-18.5-41.4-39.5M875.5,170.8c0-19.2-8.5-39.9-30.7-39.9-12.1,0-27.8,8.3-27.8,33.7,0,17.2,8.4,39.5,31.3,39.5,14,0,27.2-10.4,27.2-33.3"/>
    </g>
    <g class="st18">
      <path class="st42" d="M908.2,188.5c0,12.2.2,13.7,7.7,14.5l3.1.3c.7.6.5,2.6-.2,2.9-6.6-.2-10.5-.3-15.1-.3-4.9,0-9.1.1-14.2.3-.7-.3-.9-2.2-.2-2.9l2.4-.3c6.7-.9,7-2.3,7-14.5v-42.9c0-9.9-.2-11.9-5.5-12.4l-4.2-.5c-.8-.7-.7-2.4.2-2.9,6.2-.8,13.4-.9,23-.9s16.9,1.3,22.3,4.7c5.3,3.4,9.3,9.4,9.3,17.4,0,10.7-6.6,16-11.6,18.5-5.1,2.4-11.3,3.5-16,3.5-.8-.3-.8-2.1-.1-2.3,12.6-2.3,17.1-9.4,17.1-19.5,0-11.3-6.6-18.6-18.7-18.6-6.2,0-6.3.5-6.3,4.2v51.7Z"/>
    </g>
    <g class="st19">
      <path class="st42" d="M956.5,146.6c0-12.2-.2-14.1-7-14.6l-2.9-.2c-.7-.5-.5-2.6.2-2.9,5.7.2,9.4.3,14.6.3,4.5,0,8.5-.1,13.5-.3.7.3.9,2.4.2,2.9l-2.1.2c-6.7.7-7,2.4-7,14.6v13.4c0,2.2.2,4.4,1.5,4.4,1,0,2.4-.7,3.2-1.3,1.6-1.4,4.6-4.4,5.9-5.6l12.5-12.4c2.2-2.1,7.9-8,9.1-9.6.6-.8.8-1.4.8-1.9s-.5-.8-2-1.2l-3.1-.7c-.8-.8-.7-2.3.2-2.9,4.1.2,8.7.3,12.8.3s8-.1,11.5-.3c.8.6.9,2.2.2,2.9-3,.2-7.5,1.4-10.8,3.3-3.3,1.9-9.8,7.3-16.3,13.5l-10.5,9.9c-1.6,1.6-2.7,2.7-2.7,3.6,0,.8.7,1.7,2.2,3.6,11,12.7,20,23.1,29.1,32.7,2.8,2.8,4.9,4.3,8.9,4.8l2.2.3c.8.6.6,2.6-.2,2.9-3-.2-6.2-.4-11.7-.4-4.8,0-8.8.1-14.2.4-.8-.2-1.2-2.2-.5-2.9l2.7-.5c1.6-.2,2.8-.6,2.8-1.2,0-.7-.8-1.6-1.6-2.7-2.2-2.8-5.2-5.9-9.6-10.9l-9.3-10.5c-6.6-7.4-8.5-9.8-11.3-9.8-1.7,0-2,1.5-2,5.6v15c0,12.2.2,13.8,6.7,14.5l3.1.3c.7.5.5,2.6-.2,2.9-5.7-.2-9.6-.4-14.2-.4s-8.7.1-13.5.4c-.7-.4-.9-2.1-.2-2.9l2.3-.3c6.2-.9,6.4-2.3,6.4-14.5v-41.8h.3Z"/>
    </g>
    <g class="st20">
      <path class="st42" d="M1036.3,146.8c0-12.3-.2-14.3-7.1-14.9l-2.9-.2c-.7-.5-.5-2.6.2-2.9,5.8.2,9.8.4,14.6.4s8.6-.1,14.4-.4c.7.4.9,2.4.2,2.9l-2.9.2c-6.9.6-7.1,2.6-7.1,14.9v41.4c0,12.3.2,14,7.1,14.8l2.9.3c.7.5.5,2.6-.2,2.9-5.8-.2-9.8-.4-14.4-.4-4.9,0-8.4.1-14.2.4-.7-.4-.9-2.2-.2-2.9l2.5-.3c6.9-.8,7.1-2.4,7.1-14.8v-41.4Z"/>
    </g>
    <g class="st16">
      <path class="st42" d="M1136.8,186.1c0,3.5,0,17.3.4,20.3-.2.7-.9,1.3-2.2,1.3-1.4-2-4.8-6-14.9-17.5l-27-30.7c-3.1-3.6-11-13.1-13.5-15.7h-.2c-.5,1.4-.6,4.1-.6,7.5v25.3c0,5.5.1,20.6,2.1,24,.7,1.3,3,2,5.9,2.2l3.6.4c.7.9.6,2.3-.2,2.9-5.2-.2-9.3-.3-13.6-.3-4.9,0-8,.1-12.1.3-.8-.6-.9-2.2-.2-2.9l3.1-.4c2.7-.3,4.5-1,5.1-2.3,1.6-4.2,1.5-18.4,1.5-23.9v-33.6c0-3.3-.1-5.7-2.6-8.4-1.6-1.6-4.4-2.4-7.2-2.8l-2-.2c-.7-.7-.7-2.4.2-2.9,4.9.3,11,.3,13.1.3,1.9,0,3.8-.1,5.3-.3,2.3,5.9,16,21.3,19.9,25.6l11.3,12.7c8,8.9,13.7,15.5,19.2,21h.2c.5-.6.5-2.4.5-4.9v-24.9c0-5.5-.1-20.6-2.3-24.1-.7-1-2.6-1.7-7.2-2.3l-2-.2c-.8-.7-.7-2.6.2-2.9,5.4.2,9.3.3,13.7.3,5,0,8-.1,12-.3.9.6.9,2.2.2,2.9l-1.6.2c-3.7.6-6,1.5-6.5,2.4-2,4.2-1.7,18.6-1.7,23.9v28h.1Z"/>
    </g>
    <g class="st31">
      <path class="st42" d="M1167.4,207.7c-9.8,0-15.9-3-18.1-4.3-1.4-2.6-2.9-10.8-3.1-16.3.6-.8,2.3-1.1,2.8-.3,1.7,5.9,6.5,17.3,20,17.3,9.8,0,14.5-6.4,14.5-13.4,0-5.1-1.1-10.8-9.5-16.3l-11-7.2c-5.8-3.8-12.6-10.5-12.6-20,0-11,8.6-20,23.7-20,3.6,0,7.8.7,10.8,1.5,1.5.5,3.1.7,4.1.7,1.1,2.8,2.1,9.3,2.1,14.2-.5.7-2.3,1-2.9.4-1.5-5.6-4.6-13.1-15.8-13.1s-13.8,7.6-13.8,12.9c0,6.7,5.6,11.6,9.9,14.3l9.3,5.8c7.3,4.5,14.5,11.3,14.5,22.3-.2,12.8-9.8,21.5-24.9,21.5"/>
    </g>
  </g>
</svg>