<?xml version="1.0" encoding="UTF-8"?><svg id="Layer_1" xmlns="http://www.w3.org/2000/svg" viewBox="0 0 146.8 37.7"><path d="M144.8,25.3c-1.1,0-2,.9-2,2s.9,2,2,2,2-.9,2-2c0-1.1-.9-2-2-2ZM144.8,29.1c-1,0-1.7-.8-1.7-1.8s.8-1.8,1.7-1.8,1.7.8,1.7,1.8-.8,1.8-1.7,1.8Z"/><path d="M145.6,26.9c0-.4-.2-.7-.7-.7h-.8v2.2h.3v-.8h.5l.4.8h.3l-.4-.9c.3-.1.4-.4.4-.6ZM144.9,27.3h-.5v-.8h.5c.3,0,.5.2.5.4s-.1.4-.5.4ZM10.1,25.3c0,2,.2,2.3,2.7,2.5v1.6H0v-1.6c2.5-.3,2.7-.6,2.7-2.5V7.1c0-2-.2-2.3-2.7-2.5v-1.6h12.8v1.6c-2.5.3-2.7.6-2.7,2.5v18.1ZM24.4,25.3c1.1,1.5,1.7,2.3,3.4,2.5v1.6h-8.7c-1.2-1.1-2.4-2.7-3.4-4.3l-5.2-8.5,8.8-9.2c.6-.6,1.1-1.2,1.1-1.8s-.6-1-2.6-1.1v-1.6h8.9v1.6c-1.5,0-2.2.4-3.2,1.4l-6.7,7.2s7.8,12,7.8,12Z"/><path d="M45.3,17v.9h-12c0,4.5,2.4,7.2,5.8,7.2s4.2-.9,5.6-2.7l.7.5c-1,4.1-3.9,6.9-8.6,6.9s-9.8-3.7-9.8-10,4.6-11,10-11c5.5,0,8.2,3.5,8.2,8.2h0ZM33.4,16.2h6c0-3.7-.7-5.8-2.7-5.8-2,0-3.1,2.3-3.2,5.8ZM62.4,13c.2-.5.3-.8.3-1.1,0-.8-.5-1.1-2.5-1.3v-1.5h6.4v1.5c-.9.4-1.2.7-1.5,1.5l-8.5,20.5c-1.4,3.3-2.8,5-5.4,5s-2.6-.6-3.2-1.6v-2.7c1,.2,1.8.4,2.9.4,2.1,0,3.2-.6,3.9-2.2l.6-1.3-8.5-18.2c-.4-.8-.6-1.1-1.9-1.5v-1.4h12v1.5c-2,.3-2.5.5-2.5,1.3s.1.6.3,1.1l3.9,9.6,3.7-9.5h0Z"/><path d="M67.9,3.9l-2.1-1.1v-1.1l7.8-1.7h1.2v12.5c1.4-1.8,3.6-3.8,7-3.8s5.6,2.1,5.6,6.1v11.5c0,1.2.6,1.4,2.1,1.5v1.5h-11v-1.5c1.5-.1,2-.3,2-1.5v-10.9c0-1.7-.6-2.6-2.5-2.6s-2.3.3-3.2.8v12.8c0,1.2.5,1.4,2,1.5v1.5h-11v-1.5c1.5-.1,2.1-.3,2.1-1.5V3.9h0ZM120.3,26.4c0,1.2.6,1.4,2.1,1.5v1.5h-11.1v-1.5c1.5-.1,2.1-.3,2.1-1.5V3.9l-2.1-1.1v-1.1l7.8-1.7h1.2v26.4ZM141.1,17v.9h-12c0,4.5,2.4,7.2,5.8,7.2s4.2-.9,5.6-2.7l.7.5c-1,4.1-3.9,6.9-8.6,6.9s-9.8-3.7-9.8-10,4.6-11,10-11c5.5,0,8.2,3.5,8.2,8.2ZM129.2,16.2h6c0-3.7-.7-5.8-2.7-5.8-2,0-3.1,2.3-3.2,5.8ZM100.3,8.5c-5.9,0-10.7,4.8-10.7,10.7s4.8,10.7,10.7,10.7,10.7-4.8,10.7-10.7c0-5.9-4.8-10.7-10.7-10.7h0ZM97.6,24.6l1.5-5.5c0-.3,0-.6-.3-.8-.8-.5-1.4-1.5-1.4-2.5,0-1.5,1.3-2.9,2.9-2.9,1.6,0,3,1.3,3,2.9s-.6,2-1.4,2.5c-.3.2-.4.5-.3.8l1.5,5.5c.1.4-.2.8-.6.8h-4.4c-.4,0-.6-.4-.5-.8Z"/></svg>