<?xml version="1.0" encoding="UTF-8"?><svg id="Layer_1" xmlns="http://www.w3.org/2000/svg" viewBox="0 0 141.8 29"><defs><style>.cls-1{fill:#ffa502;}</style></defs><path class="cls-1" d="M0,22.6V7c1.5.1,4.2-.7,4.3,1.6,2.2-2.5,6.5-2.7,7.8.8,1.7-3.1,6.8-3.6,9.1-1.1,2.5,2.4,1.1,11.1,1.4,14.2h-4.4v-9.9c.3-3.4-4.6-3.1-4.4,0,0,0,0,9.9,0,9.9h-4.7v-9.9c.3-2.8-2.9-3-4.4-1.4v11.3H0Z"/><path class="cls-1" d="M30.9,6.7c4.4-.4,8.6,4.9,6.5,8.8-.1,0-.3,0-.5,0h-9c1.4,7.5,7.3,1.1,8.6,2.9,0,0,1.4,1.7,1.4,1.7-11.9,10.7-22.5-11.6-6.9-13.4ZM31,10c-1.9,0-2.8,1.1-3.1,2.9h5.8c0-1.6-1-3-2.7-2.9Z"/><path class="cls-1" d="M49.6,22.6c-1.4,0-1.4-.7-1.8-1.8-10.5,7.6-13.9-8.4-.5-7.3,0-7.2-5.6,0-7.3-2.9,0,0-.8-1.5-.8-1.5,2.7-2.6,8.1-3.7,10.9-.7,2.7,2.4,1.2,11,1.6,14.2h-2.1ZM44,19.8c1.3,0,2-.4,2.9-1.3v-2.1c-1.6,0-3.6.1-4.5,1.3-.6,1.2.1,2.3,1.5,2.2Z"/><path class="cls-1" d="M57.2,0v22.6h-4.7V0h4.7Z"/><path class="cls-1" d="M84.2,22.6c-1.4,0-1.4-.7-1.8-1.8-10.5,7.6-13.9-8.4-.5-7.3,0-7.2-5.6,0-7.3-2.9,0,0-.8-1.5-.8-1.5,2.7-2.6,8.1-3.7,10.9-.7,2.7,2.4,1.2,11,1.6,14.2h-2.1ZM78.9,19.8c1.3,0,2-.4,2.9-1.3v-2.1c-1.6,0-3.6.1-4.5,1.3-.6,1.2.1,2.3,1.5,2.2Z"/><path class="cls-1" d="M87.1,22.6V7c2.6.2,4.2-.9,4.4,2.5,1.2-2,3.9-3.8,6-2.3-.7,7.8-2.7.9-5.7,5.8,0,0,0,9.5,0,9.5h-4.7Z"/><path class="cls-1" d="M108.6,22.6c-1.1.1-1.3-1.2-1.5-2-13.4,10.9-14.3-20.7-.3-12.7V0h4.7v22.6h-2.9ZM103.8,19.3c1.2,0,2.2-.5,2.9-1.5v-6.6c-5.2-5-7.9,7.4-2.9,8.1Z"/><path class="cls-1" d="M120,6.7c4.4-.4,8.6,4.9,6.5,8.8-.1,0-.3,0-.5,0h-9c1.4,7.5,7.3,1.1,8.6,2.9,0,0,1.4,1.7,1.4,1.7-11.9,10.7-22.5-11.6-6.9-13.4ZM120.1,10c-1.9,0-2.8,1.1-3.1,2.9h5.8c0-1.6-1-3-2.7-2.9Z"/><path class="cls-1" d="M127.6,22.6V7c1.5.1,4.2-.7,4.3,1.7,2.1-2.3,6.3-2.7,8.4-.2,2.4,2.4,1,11.1,1.4,14.1h-4.7v-9.9c0-3.1-3-2.9-4.7-1.2v11.1h-4.7Z"/><path class="cls-1" d="M68.1,7.6c-4.3-2.1-11.6,0-10.1,5.9-.2-.5,3.2-1.5,3.2-1.5-.9-1.9.4-2.4,1.8-2.6,2.5-.5,5.1,1.9,5.4,3.1-1.4,0-2.5,1.1-3.6,2.1-3,2.1-4.5-2.5.6-2.8-3.5,0-5.4,1.6-6.3,3.5.4.4.9.8,1.5,1.1-2.2.9-3.1,3.8-1,5.2-7.7,4.5,3.9,9,8.4,6.7,4.5-.9,6.9-7.9,1.5-9.1-1.1-.7-8.7.4-6.3-2,4.2.7,9.1-1.8,7.8-6.6,2.3-.3,2.3-.9,2.2-3h-4.9ZM63.7,22.6c1.6-.2,6.2.2,3.7,2.5-1.9,1.2-8.6.4-5-2.6.4,0,.9.1,1.4.1Z"/></svg>