<?xml version="1.0" encoding="UTF-8"?><svg id="Layer_1" xmlns="http://www.w3.org/2000/svg" viewBox="0 0 218.7 44.8"><defs><style>.cls-1{fill:#ffa502;}</style></defs><path class="cls-1" d="M0,34.8V10.9c2.3.2,6.5-1,6.6,2.5,3.4-3.9,10-4.2,12,1.2,2.6-4.8,10.4-5.5,14.1-1.7,3.9,3.7,1.6,17.2,2.2,22h-6.8v-15.3c.5-5.2-7.1-4.8-6.8,0,0,0,0,15.3,0,15.3h-7.2v-15.3c.4-4.4-4.4-4.7-6.8-2.1v17.4H0Z"/><path class="cls-1" d="M47.7,10.3c6.9-.7,13.3,7.5,10,13.6-.2,0-.5.1-.8.1h-13.9c2.1,11.5,11.2,1.7,13.3,4.4,0,0,2.1,2.6,2.1,2.6-18.3,16.6-34.8-17.8-10.7-20.7ZM47.8,15.4c-2.9,0-4.3,1.8-4.8,4.5h9c0-2.5-1.6-4.7-4.2-4.5Z"/><path class="cls-1" d="M76.4,34.8c-2.1,0-2.2-1.1-2.8-2.8-16.1,11.7-21.4-12.9-.8-11.2,0-11-8.6,0-11.3-4.5,0,0-1.3-2.3-1.3-2.3,4.2-4,12.6-5.7,16.9-1.1,4.2,3.7,1.9,17,2.4,21.9h-3.2ZM67.8,30.6c2,0,3.1-.7,4.5-2.1v-3.3c-2.5,0-5.5.2-6.9,1.9-.9,1.8.2,3.6,2.3,3.4Z"/><path class="cls-1" d="M88.2,0v34.8h-7.2V0h7.2Z"/><path class="cls-1" d="M129.8,34.8c-2.1,0-2.2-1.1-2.8-2.8-16.1,11.7-21.4-12.9-.8-11.2,0-11-8.6,0-11.3-4.5,0,0-1.3-2.3-1.3-2.3,4.2-4,12.6-5.7,16.9-1.1,4.2,3.7,1.9,17,2.4,21.9h-3.2ZM121.7,30.5c2,0,3.1-.7,4.5-2.1v-3.3c-2.5,0-5.5.2-6.9,1.9-.9,1.8.2,3.6,2.3,3.4Z"/><path class="cls-1" d="M134.4,34.8V10.9c4,.3,6.5-1.5,6.8,3.9,1.9-3.1,6-5.8,9.3-3.6-1.1,12-4.2,1.4-8.8,8.9,0,0,0,14.7,0,14.7h-7.2Z"/><path class="cls-1" d="M167.4,34.8c-1.7.2-2-1.9-2.3-3-20.7,16.8-22.1-31.9-.4-19.6V0h7.2v34.8h-4.5ZM160.1,29.8c1.9,0,3.4-.8,4.5-2.3v-10.2c-8-7.6-12.1,11.4-4.5,12.5Z"/><path class="cls-1" d="M185.1,10.3c6.9-.7,13.3,7.5,10,13.6-.2,0-.5.1-.8.1h-13.9c2.1,11.5,11.2,1.7,13.3,4.4,0,0,2.1,2.6,2.1,2.6-18.3,16.6-34.8-17.8-10.7-20.7ZM185.3,15.4c-2.9,0-4.3,1.8-4.8,4.5h9c0-2.5-1.6-4.7-4.2-4.5Z"/><path class="cls-1" d="M196.8,34.8V10.9c2.3.2,6.5-1,6.6,2.6,3.3-3.5,9.8-4.2,13-.4,3.7,3.7,1.6,17.1,2.1,21.8h-7.2v-15.3c0-4.8-4.6-4.5-7.2-1.9v17.2h-7.2Z"/><path class="cls-1" d="M105.1,11.8c-6.7-3.3-17.9.1-15.6,9.1-.2-.8,4.9-2.3,4.9-2.3-1.4-3,.6-3.7,2.7-3.9,3.8-.7,7.8,3,8.3,4.8-2.2.1-3.9,1.6-5.6,3.2-4.7,3.2-6.9-3.8.9-4.4-5.3,0-8.4,2.5-9.7,5.4.6.7,1.4,1.3,2.3,1.7-3.4,1.4-4.7,5.8-1.5,8-11.9,6.9,6,13.9,12.9,10.4,7-1.3,10.6-12.3,2.2-14.1-1.8-1.1-13.5.7-9.8-3.1,6.5,1,14-2.7,12-10.2,3.6-.4,3.5-1.4,3.4-4.7h-7.5ZM98.2,34.8c2.5-.3,9.5.3,5.7,3.9-3,1.8-13.3.6-7.8-4.1.7.1,1.4.2,2.1.2Z"/></svg>