<?xml version="1.0" encoding="UTF-8"?>
<svg id="Layer_1" xmlns="http://www.w3.org/2000/svg" version="1.1" viewBox="0 0 517.9 100.8">
  <!-- Generator: Adobe Illustrator 29.4.0, SVG Export Plug-In . SVG Version: 2.1.0 Build 152)  -->
  <defs>
    <style>
      .st0 {
        fill: #36bdb2;
      }

      .st1 {
        fill: #f26649;
      }

      .st2 {
        fill: #bac130;
      }

      .st3 {
        fill: #23c0d7;
      }

      .st4 {
        fill: #009ec2;
      }

      .st5 {
        fill: #c6006f;
      }

      .st6 {
        fill: #5a87c6;
      }

      .st7 {
        fill: #232945;
      }
    </style>
  </defs>
  <g>
    <path class="st7" d="M236,20.5h-3.3v-5.6h16.1c6.6,0,11.2,4.1,11.2,10.9s-4.5,9.2-6,9.5v.1c.8.4,1.4,1,1.8,1.8l3.5,6.9c.5,1.1,1.4,1.2,2.5,1.2h.7v5.6h-3.5c-2.7,0-3.9-.4-5-2.7l-4.6-9.1c-.8-1.4-1.5-1.7-3.4-1.7h-3.4v13.4h-6.6v-30.3ZM248,31.7c3.3,0,5.3-2.1,5.3-5.7s-2-5.6-5.2-5.6h-5.4v11.3h5.3Z"/>
    <path class="st7" d="M278.5,24.4c7.9,0,14.2,5.6,14.2,13.5s-6.3,13.5-14.2,13.5-14.2-5.6-14.2-13.5,6.3-13.5,14.2-13.5ZM278.5,46c4.5.2,8.3-3.2,8.5-7.6.2-4.5-3.2-8.3-7.6-8.5s-8.3,3.2-8.5,7.6v.4c-.2,4.2,3.1,7.9,7.3,8.1h.3Z"/>
    <path class="st7" d="M300,56.1c1.8,0,3.4-1.1,4.3-3.3l.9-2-8.6-19.4c-.1-.6-.7-1-1.4-.9h-.8v-5.5h4.3c1.6-.2,3,.9,3.4,2.4l5.1,12.9c.4,1.1.7,2.3.9,3.4h.1c.2-1.2.5-2.3.9-3.4l4.4-12.9c.4-1.6,1.8-2.6,3.5-2.4h4.4v5.5h-.8c-.7-.1-1.3.3-1.5.9l-9.3,23.4c-1.8,4.7-5.5,6.7-9.3,6.7-2.4,0-4.8-1-6.5-2.6l2.4-4.5c.9.9,2.2,1.6,3.6,1.7Z"/>
    <path class="st7" d="M338.5,34.6h.8v-.2c0-3.7-1.5-5.1-4.8-5.1-1.2,0-3.5.3-3.5,1.7v1.4h-6v-2.7c0-4.8,6.8-5.3,9.5-5.3,8.6,0,11.1,4.5,11.1,10.3v9.6c-.1.5.3,1,.9,1.1h2.3v5.4h-5.8c-2.4,0-3.3-1.3-3.3-2.8v-1.1h-.1c-1.5,2.9-4.5,4.7-7.8,4.6-4.6,0-8.8-2.9-8.8-8.1.2-8.1,11.3-8.8,15.5-8.8h0ZM333.5,46.4c3.5,0,5.9-3.6,5.9-6.8v-.6h-1.1c-3.4,0-8.7.5-8.7,4.1.1,1.7,1.3,3.3,3.9,3.3h0Z"/>
    <path class="st7" d="M352.9,21.4c.1-.5-.3-1-.9-1.1h-2.2v-5.5h6.1c2.4,0,3.5,1.1,3.5,3.4v26c-.1.5.3,1,.9,1.1h2.3v5.4h-6.1c-2.4,0-3.5-1-3.5-3.4l-.1-25.9Z"/>
    <path class="st7" d="M379,20.5h-3.3v-5.6h16.1c6.6,0,11.2,4.1,11.2,10.9s-4.5,9.2-6,9.5v.1c.8.4,1.4,1,1.8,1.8l3.5,6.9c.6,1.1,1.4,1.2,2.5,1.2h.7v5.6h-3.5c-2.7,0-3.9-.4-5-2.7l-4.6-9.1c-.8-1.4-1.5-1.7-3.4-1.7h-3.3v13.4h-6.6v-30.3h-.1ZM390.9,31.7c3.4,0,5.3-2.1,5.3-5.7s-2-5.6-5.2-5.6h-5.4v11.3h5.3Z"/>
    <path class="st7" d="M421.5,24.4c7.9,0,14.2,5.6,14.2,13.5s-6.3,13.5-14.2,13.5-14.2-5.6-14.2-13.5,6.3-13.5,14.2-13.5ZM421.5,46c4.5.2,8.3-3.2,8.5-7.6.2-4.5-3.2-8.3-7.6-8.5-4.5-.2-8.3,3.2-8.5,7.6v.4c-.2,4.2,3.1,7.9,7.3,8.1h.3Z"/>
    <path class="st7" d="M454.1,34.6h.8v-.2c0-3.7-1.5-5.1-4.8-5.1-1.2,0-3.5.3-3.5,1.7v1.4h-6v-2.7c0-4.8,6.8-5.3,9.5-5.3,8.6,0,11.2,4.5,11.2,10.3v9.6c-.1.5.3,1,.9,1.1h2.3v5.4h-5.7c-2.4,0-3.3-1.3-3.3-2.8v-1.1h-.2c-1.5,2.9-4.5,4.7-7.8,4.6-4.6,0-8.8-2.9-8.8-8.1,0-8.1,11.2-8.8,15.4-8.8ZM449.1,46.4c3.5,0,5.9-3.6,5.9-6.8v-.6h-1.1c-3.3,0-8.7.5-8.7,4.1,0,1.7,1.3,3.3,3.9,3.3h0Z"/>
    <path class="st7" d="M477.8,24.4c5.6,0,7.5,3.1,7.5,3.1h.1v-6.1c.1-.5-.3-1.1-.8-1.1h-2.3v-5.5h6.1c2.4,0,3.5,1.1,3.5,3.4v26c-.1.5.3,1,.9,1.1h2.2v5.4h-5.9c-2.3,0-3.2-1.1-3.2-2.6v-1h-.1s-2.1,4.2-8.1,4.2c-7,0-11.5-5.5-11.5-13.5-.1-8.1,4.8-13.4,11.6-13.4h0ZM485.5,37.9c0-4-2.1-8-6.4-8-3.5,0-6.5,2.9-6.5,8s2.6,8.1,6.4,8.1c3.3,0,6.5-2.4,6.5-8.1Z"/>
    <path class="st7" d="M500.3,42.6s3.3,3.8,7.7,3.8c2,0,3.5-.8,3.5-2.5,0-3.6-13.6-3.6-13.6-12,0-5.2,4.7-7.6,10-7.6,3.5,0,9.1,1.2,9.1,5.4v2.7h-5.7v-1.3c0-1.2-1.8-1.8-3.2-1.8-2.3,0-3.9.8-3.9,2.3,0,4.1,13.7,3.2,13.7,11.9,0,4.9-4.3,7.9-9.9,7.9-4.1.1-8-1.6-10.8-4.6l3.1-4.2Z"/>
    <path class="st7" d="M234.2,71c0-.4-.2-.7-.6-.7h-1.6v-2.9h3.4c1.5,0,2.1.6,2.1,2.1v13.1c-.2,2.9,1.9,5.4,4.8,5.6h.8c3.4,0,5.6-2.1,5.6-5.7v-13c0-1.5.7-2.1,2.2-2.1h3.3v2.9h-1.4c-.4,0-.7.2-.7.6v11.9c0,5.1-3.6,8.6-9,8.6s-9-3.5-9-8.6l.1-11.8Z"/>
    <path class="st7" d="M259.8,88.1h1.4c.4,0,.7-.2.7-.6v-20.1h3l10.5,15c.9,1.3,2,3.2,2,3.2h.1s-.2-1.9-.2-3.2v-12.8c0-1.5.6-2.1,2.2-2.1h3.3v2.9h-1.4c-.4,0-.7.2-.7.6v20.2h-3l-10.5-15c-.9-1.3-1.9-3.2-1.9-3.2h-.1s.2,1.9.2,3.2v12.8c0,1.5-.6,2.1-2.1,2.1h-3.4l-.1-3Z"/>
    <path class="st7" d="M288.8,88.1h2.3v-17.8h-2.3v-2.9h7.8v2.9h-2.3v17.8h2.3v2.9h-7.8v-2.9Z"/>
    <path class="st7" d="M303.3,71c-.1-.5-.6-.8-1.1-.7h-.5v-2.9h1.9c1.7,0,2.2.4,2.8,1.9l5.2,14.5c.4,1.3.9,3.2.9,3.2h.1c.2-1.1.5-2.2.9-3.2l5.2-14.5c.6-1.6,1.1-1.9,2.8-1.9h1.9v2.9h-.5c-.6,0-.9.1-1.1.7l-7.4,20h-3.5l-7.6-20Z"/>
    <path class="st7" d="M330.4,70.3h-2.1v-2.9h13.9c1.5,0,2.1.6,2.1,2.1v3h-3v-1.5c0-.4-.2-.7-.6-.7h-6.9v7.4h8.2v2.9h-8.2v6.9c0,.4.2.7.6.7h7c.4,0,.7-.2.7-.6v-1.6h3.1v3c0,1.5-.6,2.1-2.1,2.1h-10.6c-1.5,0-2.1-.6-2.1-2.1v-18.7Z"/>
    <path class="st7" d="M352.8,70.3h-2.2v-2.9h10.3c4.1,0,7,2.6,7,6.9,0,3.9-2.6,5.9-4.2,6.2v.1c.4.3.8.6,1,1.1l2.8,5.6c.3.7.9.8,1.7.8h.4v2.9h-1.6c-1.8,0-2.5-.2-3.3-1.8l-3.2-6.4c-.6-1.1-1-1.3-2.3-1.3h-3.1v9.4h-3.3v-20.6ZM360.4,78.7c2.5,0,4-1.6,4-4.3s-1.5-4.2-4-4.2h-4.4v8.4h4.4v.1Z"/>
    <path class="st7" d="M376.4,85.5c1.5,1.7,3.6,2.7,5.9,2.8,2.2,0,4-1.3,4-3.5,0-4.9-11.4-4.2-11.4-11.5,0-3.5,3.1-6.3,7.5-6.3,2.5,0,6.7,1.1,6.7,4.3v2h-3.1v-1.1c0-1.2-1.8-2.1-3.6-2.1-2.5,0-4.1,1.4-4.1,3.2,0,4.8,11.4,3.7,11.4,11.4,0,3.6-2.8,6.7-7.5,6.7-3,0-5.8-1.3-7.8-3.5l2-2.4Z"/>
    <path class="st7" d="M395.8,88.1h2.3v-17.8h-2.3v-2.9h7.8v2.9h-2.3v17.8h2.3v2.9h-7.8v-2.9Z"/>
    <path class="st7" d="M417.3,70.3h-4.7c-.4,0-.7.2-.7.6v1.7h-3v-3.1c0-1.5.5-2,2-2h16.2c1.5,0,2,.5,2,2v3.1h-3v-1.5c0-.4-.2-.7-.6-.7h-4.9v20.7h-3.3v-20.8Z"/>
    <path class="st7" d="M441.7,80.7l-6-9.6c-.3-.5-.8-.9-1.4-.8h-.7v-2.9h1.5c1.3-.2,2.7.5,3.2,1.8l3.6,6c.8,1.3,1.4,2.6,1.4,2.6h.1s.6-1.3,1.4-2.6l3.5-6c.5-1.2,1.8-2,3.2-1.8h1.5v2.9h-.6c-.6-.1-1.2.3-1.5.8l-6,9.6v10.3h-3.3l.1-10.3Z"/>
    <path class="st7" d="M181,0v25.2h-25.1V0h-25.2v25.2h-25.2V0h-25.2v100.8h125.9V0h-25.2Z"/>
  </g>
  <path class="st3" d="M42.5,12.6h12.6v12.6h-12.6v-12.6Z"/>
  <path class="st7" d="M29.9,0h12.6v12.6h-12.6V0Z"/>
  <path class="st4" d="M42.5,0h12.6v12.6h-12.6V0Z"/>
  <path class="st5" d="M29.9,25.2h12.6v12.6h-12.6v-12.6Z"/>
  <path class="st7" d="M42.5,25.2h12.6v12.6h-12.6v-12.6Z"/>
  <path class="st7" d="M29.9,37.8h12.6v12.6h-12.6v-12.6Z"/>
  <path class="st4" d="M42.5,37.8h12.6v12.6h-12.6v-12.6Z"/>
  <path class="st3" d="M55.1,25.2h12.6v12.6h-12.6v-12.6Z"/>
  <path class="st2" d="M0,25.2h12.6v12.6H0v-12.6Z"/>
  <path class="st7" d="M67.7,25.2h12.6v12.6h-12.6v-12.6Z"/>
  <path class="st4" d="M80.3,25.2h12.6v12.6h-12.6v-12.6Z"/>
  <path class="st3" d="M92.9,37.8h12.6v12.6h-12.6v-12.6Z"/>
  <path class="st4" d="M80.3,75.6h12.6v12.6h-12.6v-12.6Z"/>
  <path class="st4" d="M67.7,88.2h12.6v12.6h-12.6v-12.6Z"/>
  <path class="st4" d="M67.7,75.6h12.6v12.6h-12.6v-12.6Z"/>
  <path class="st3" d="M67.7,63h12.6v12.6h-12.6v-12.6Z"/>
  <path class="st3" d="M80.3,50.4h12.6v12.6h-12.6v-12.6Z"/>
  <path class="st4" d="M80.3,37.8h12.6v12.6h-12.6v-12.6Z"/>
  <path class="st4" d="M67.7,50.4h12.6v12.6h-12.6v-12.6Z"/>
  <path class="st3" d="M67.7,37.8h12.6v12.6h-12.6v-12.6Z"/>
  <path class="st4" d="M42.5,50.4h12.6v12.6h-12.6v-12.6Z"/>
  <path class="st0" d="M17.4,50.4h12.6v12.6h-12.6v-12.6Z"/>
  <path class="st3" d="M55.1,50.4h12.6v12.6h-12.6v-12.6Z"/>
  <path class="st3" d="M29.9,63h12.6v12.6h-12.6v-12.6Z"/>
  <path class="st7" d="M29.9,75.6h12.6v12.6h-12.6v-12.6Z"/>
  <path class="st3" d="M42.5,75.6h12.6v12.6h-12.6v-12.6Z"/>
  <path class="st1" d="M0,75.6h12.6v12.6H0v-12.6Z"/>
  <path class="st7" d="M55.1,63h12.6v12.6h-12.6v-12.6Z"/>
  <path class="st7" d="M42.5,88.2h12.6v12.6h-12.6v-12.6Z"/>
  <path class="st3" d="M55.1,88.2h12.6v12.6h-12.6v-12.6Z"/>
  <path class="st6" d="M17.4,88.2h12.6v12.6h-12.6v-12.6Z"/>
  <path class="st3" d="M105.5,63h12.6v12.6h-12.6v-12.6Z"/>
</svg>