<?xml version="1.0" encoding="UTF-8" standalone="no"?>
<!-- Created with Inkscape (http://www.inkscape.org/) -->

<svg
   version="1.1"
   id="svg1"
   width="187.70496"
   height="49.401306"
   viewBox="0 0 187.70496 49.401306"
   sodipodi:docname="TrapezeWM-CaseStudy-DetroitSMART.pdf"
   xmlns:inkscape="http://www.inkscape.org/namespaces/inkscape"
   xmlns:sodipodi="http://sodipodi.sourceforge.net/DTD/sodipodi-0.dtd"
   xmlns="http://www.w3.org/2000/svg"
   xmlns:svg="http://www.w3.org/2000/svg">
  <defs
     id="defs1">
    <clipPath
       clipPathUnits="userSpaceOnUse"
       id="clipPath65">
      <path
         d="M 435.275,36 H 586 V 73.051 H 435.275 Z"
         transform="translate(-504.64839,-42.379404)"
         id="path65" />
    </clipPath>
    <clipPath
       clipPathUnits="userSpaceOnUse"
       id="clipPath66">
      <path
         d="M 435.275,36 H 586 V 73.051 H 435.275 Z"
         transform="translate(-513.23139,-42.221199)"
         id="path66" />
    </clipPath>
    <clipPath
       clipPathUnits="userSpaceOnUse"
       id="clipPath67">
      <path
         d="M 435.275,36 H 586 V 73.051 H 435.275 Z"
         transform="translate(-525.78871,-41.608876)"
         id="path67" />
    </clipPath>
    <clipPath
       clipPathUnits="userSpaceOnUse"
       id="clipPath68">
      <path
         d="M 435.275,36 H 586 V 73.051 H 435.275 Z"
         transform="translate(-533.93551,-37.960201)"
         id="path68" />
    </clipPath>
    <clipPath
       clipPathUnits="userSpaceOnUse"
       id="clipPath69">
      <path
         d="M 435.275,36 H 586 V 73.051 H 435.275 Z"
         transform="translate(-552.32934,-43.103701)"
         id="path69" />
    </clipPath>
    <clipPath
       clipPathUnits="userSpaceOnUse"
       id="clipPath70">
      <path
         d="M 435.275,36 H 586 V 73.051 H 435.275 Z"
         transform="translate(-563.54904,-42.197799)"
         id="path70" />
    </clipPath>
    <clipPath
       clipPathUnits="userSpaceOnUse"
       id="clipPath71">
      <path
         d="M 435.275,36 H 586 V 73.051 H 435.275 Z"
         transform="translate(-575.62591,-43.103701)"
         id="path71" />
    </clipPath>
    <clipPath
       clipPathUnits="userSpaceOnUse"
       id="clipPath72">
      <path
         d="M 435.275,36 H 586 V 73.051 H 435.275 Z"
         transform="translate(-580.33089,-59.560299)"
         id="path72" />
    </clipPath>
    <clipPath
       clipPathUnits="userSpaceOnUse"
       id="clipPath73">
      <path
         d="M 435.275,36 H 586 V 73.051 H 435.275 Z"
         transform="translate(-585.99999,-55.121499)"
         id="path73" />
    </clipPath>
    <clipPath
       clipPathUnits="userSpaceOnUse"
       id="clipPath74">
      <path
         d="M 435.275,36 H 586 V 73.051 H 435.275 Z"
         transform="translate(-444.44319,-53.836404)"
         id="path74" />
    </clipPath>
    <clipPath
       clipPathUnits="userSpaceOnUse"
       id="clipPath75">
      <path
         d="M 435.275,36 H 586 V 73.051 H 435.275 Z"
         transform="translate(-471.85434,-50.224801)"
         id="path75" />
    </clipPath>
    <clipPath
       clipPathUnits="userSpaceOnUse"
       id="clipPath76">
      <path
         d="M 0,792 H 612 V 0 H 0 Z"
         id="path76" />
    </clipPath>
    <clipPath
       clipPathUnits="userSpaceOnUse"
       id="clipPath92">
      <path
         d="M 435.275,36 H 586 V 73.051 H 435.275 Z"
         transform="translate(-504.64839,-42.379404)"
         id="path92" />
    </clipPath>
    <clipPath
       clipPathUnits="userSpaceOnUse"
       id="clipPath94">
      <path
         d="M 435.275,36 H 586 V 73.051 H 435.275 Z"
         transform="translate(-513.23139,-42.221199)"
         id="path94" />
    </clipPath>
    <clipPath
       clipPathUnits="userSpaceOnUse"
       id="clipPath96">
      <path
         d="M 435.275,36 H 586 V 73.051 H 435.275 Z"
         transform="translate(-525.78871,-41.608876)"
         id="path96" />
    </clipPath>
    <clipPath
       clipPathUnits="userSpaceOnUse"
       id="clipPath98">
      <path
         d="M 435.275,36 H 586 V 73.051 H 435.275 Z"
         transform="translate(-533.93551,-37.960201)"
         id="path98" />
    </clipPath>
    <clipPath
       clipPathUnits="userSpaceOnUse"
       id="clipPath100">
      <path
         d="M 435.275,36 H 586 V 73.051 H 435.275 Z"
         transform="translate(-552.32934,-43.103701)"
         id="path100" />
    </clipPath>
    <clipPath
       clipPathUnits="userSpaceOnUse"
       id="clipPath102">
      <path
         d="M 435.275,36 H 586 V 73.051 H 435.275 Z"
         transform="translate(-563.54904,-42.197799)"
         id="path102" />
    </clipPath>
    <clipPath
       clipPathUnits="userSpaceOnUse"
       id="clipPath104">
      <path
         d="M 435.275,36 H 586 V 73.051 H 435.275 Z"
         transform="translate(-575.62591,-43.103701)"
         id="path104" />
    </clipPath>
    <clipPath
       clipPathUnits="userSpaceOnUse"
       id="clipPath106">
      <path
         d="M 435.275,36 H 586 V 73.051 H 435.275 Z"
         transform="translate(-580.33089,-59.560299)"
         id="path106" />
    </clipPath>
    <clipPath
       clipPathUnits="userSpaceOnUse"
       id="clipPath108">
      <path
         d="M 435.275,36 H 586 V 73.051 H 435.275 Z"
         transform="translate(-585.99999,-55.121499)"
         id="path108" />
    </clipPath>
    <clipPath
       clipPathUnits="userSpaceOnUse"
       id="clipPath110">
      <path
         d="M 435.275,36 H 586 V 73.051 H 435.275 Z"
         transform="translate(-444.44319,-53.836404)"
         id="path110" />
    </clipPath>
    <clipPath
       clipPathUnits="userSpaceOnUse"
       id="clipPath112">
      <path
         d="M 435.275,36 H 586 V 73.051 H 435.275 Z"
         transform="translate(-471.85434,-50.224801)"
         id="path112" />
    </clipPath>
  </defs>
  <sodipodi:namedview
     id="namedview1"
     pagecolor="#ffffff"
     bordercolor="#000000"
     borderopacity="0.25"
     inkscape:showpageshadow="2"
     inkscape:pageopacity="0.0"
     inkscape:pagecheckerboard="0"
     inkscape:deskcolor="#d1d1d1">
    <inkscape:page
       x="5.3730723e-06"
       y="2.9561268e-06"
       width="187.70496"
       height="49.401306"
       id="page2"
       margin="0"
       bleed="0" />
  </sodipodi:namedview>
  <g
     id="g64"
     inkscape:groupmode="layer"
     inkscape:label="2"
     transform="translate(-1416.3669,-958.59869)">
    <g
       id="g88">
      <path
         d="m 0,0 c 0,-0.408 -0.09,-0.475 -0.477,-0.475 h -2.105 c -0.386,0 -0.478,0.067 -0.478,0.475 v 12.325 h -2.967 c -0.316,0 -0.385,0.067 -0.385,0.385 v 1.949 c 0,0.316 0.069,0.385 0.385,0.385 h 9.335 c 0.453,0 0.566,-0.046 0.566,-0.25 0,-0.112 -0.022,-0.158 -0.067,-0.317 L 3.331,12.688 C 3.24,12.325 2.991,12.325 2.809,12.325 H 0 Z"
         style="fill:#424a52;fill-opacity:1;fill-rule:nonzero;stroke:none"
         transform="matrix(1.3333333,0,0,-1.3333333,1508.8645,999.49413)"
         clip-path="url(#clipPath65)"
         id="path77" />
      <path
         d="M 0,0 C 0,-0.25 -0.045,-0.317 -0.317,-0.317 H -2.56 c -0.271,0 -0.316,0.067 -0.316,0.317 v 6.843 c 0,2.491 -0.592,2.9 -0.592,3.421 0,0.09 0.092,0.158 0.206,0.202 l 1.721,0.703 c 0.09,0.023 0.205,0.091 0.295,0.091 0.271,0 0.724,-1.019 0.838,-1.791 0.431,0.521 1.271,1.791 2.808,1.791 0.66,0 1.317,-0.228 1.317,-0.521 0,-0.092 -0.026,-0.182 -0.046,-0.228 L 2.971,8.608 C 2.944,8.54 2.876,8.405 2.787,8.405 2.65,8.405 2.244,8.654 1.721,8.654 1.021,8.654 0.296,7.885 0,7.567 Z"
         style="fill:#424a52;fill-opacity:1;fill-rule:nonzero;stroke:none"
         transform="matrix(1.3333333,0,0,-1.3333333,1520.3085,999.70507)"
         clip-path="url(#clipPath66)"
         id="path78" />
      <path
         d="m 0,0 c -0.092,-0.023 -0.204,-0.09 -0.293,-0.09 -0.205,0 -0.547,0.792 -0.658,1.358 -0.454,-0.452 -1.246,-1.358 -2.948,-1.358 -2.084,0 -3.398,1.358 -3.398,3.488 0,3.831 4.124,3.831 5.915,3.831 v 0.7 c 0,1.02 -0.18,1.677 -1.61,1.677 -1.269,0 -2.515,-0.68 -2.81,-0.68 -0.11,0 -0.201,0.137 -0.227,0.226 l -0.45,1.382 c -0.044,0.093 -0.072,0.184 -0.072,0.272 0,0.523 2.248,1.066 3.99,1.066 2.833,0 3.9,-1.291 3.9,-3.648 V 3.852 c 0,-2.198 0.585,-2.492 0.585,-2.946 0,-0.09 -0.09,-0.158 -0.204,-0.204 m -3.102,4.667 c -0.569,0 -3.195,0.182 -3.195,-1.811 0,-0.884 0.636,-1.54 1.495,-1.54 0.839,0 1.427,0.589 1.7,0.858 z"
         style="fill:#424a52;fill-opacity:1;fill-rule:nonzero;stroke:none"
         transform="matrix(1.3333333,0,0,-1.3333333,1537.0516,1000.5215)"
         clip-path="url(#clipPath67)"
         id="path79" />
      <path
         d="m 0,0 c 0,-0.316 -0.159,-0.361 -0.43,-0.408 l -1.903,-0.384 c -0.066,-0.022 -0.273,-0.069 -0.385,-0.069 -0.115,0 -0.16,0.091 -0.16,0.477 v 11.488 c 0,3.193 -0.43,3.012 -0.43,3.534 0,0.113 0.089,0.203 0.251,0.248 l 1.721,0.567 c 0.137,0.045 0.248,0.068 0.342,0.068 0.292,0 0.449,-0.431 0.7,-1.179 0.499,0.476 1.381,1.179 2.901,1.179 2.516,0 3.92,-1.971 3.92,-5.777 C 6.527,5.778 5.303,3.558 2.358,3.558 1.043,3.558 0.474,3.897 0,4.147 Z M 0,6.255 C 0.409,6.027 0.77,5.823 1.655,5.823 c 1.583,0 1.991,1.135 1.991,3.808 0,2.332 -0.428,3.623 -1.833,3.623 -0.951,0 -1.498,-0.566 -1.813,-0.859 z"
         style="fill:#424a52;fill-opacity:1;fill-rule:nonzero;stroke:none"
         transform="matrix(1.3333333,0,0,-1.3333333,1547.914,1005.3864)"
         clip-path="url(#clipPath68)"
         id="path80" />
      <path
         d="m 0,0 c 0.044,-0.066 0.067,-0.156 0.067,-0.248 0,-0.59 -2.264,-1.338 -4.055,-1.338 -2.992,0 -5.073,1.7 -5.073,5.87 0,3.601 1.926,6.094 4.959,6.094 3.852,0 4.531,-3.445 4.531,-6.187 0,-0.429 -0.089,-0.565 -0.521,-0.565 h -6.096 c 0,-1.268 0.362,-2.833 2.495,-2.833 1.631,0 2.56,0.748 2.875,0.748 0.116,0 0.205,-0.091 0.251,-0.179 m -2.062,4.371 c 0,0.929 -0.07,2.537 -1.63,2.537 -1.767,0 -1.859,-1.903 -1.929,-2.537 z"
         style="fill:#424a52;fill-opacity:1;fill-rule:nonzero;stroke:none"
         transform="matrix(1.3333333,0,0,-1.3333333,1572.4391,998.5284)"
         clip-path="url(#clipPath69)"
         id="path81" />
      <path
         d="m 0,0 c -0.07,-0.182 -0.229,-0.294 -0.315,-0.294 h -7.547 c -0.138,0 -0.228,0.091 -0.228,0.227 v 1.7 l 5.214,6.886 h -4.579 c -0.114,0 -0.158,0.135 -0.158,0.295 v 1.767 c 0,0.227 0.069,0.317 0.317,0.317 h 7.182 c 0.184,0 0.385,-0.09 0.385,-0.227 V 8.903 L -4.848,2.085 h 5.163 c 0.431,0 0.431,-0.158 0.431,-0.229 0,-0.112 -0.069,-0.201 -0.09,-0.247"
         style="fill:#424a52;fill-opacity:1;fill-rule:nonzero;stroke:none"
         transform="matrix(1.3333333,0,0,-1.3333333,1587.3987,999.73627)"
         clip-path="url(#clipPath70)"
         id="path82" />
      <path
         d="m 0,0 c 0.045,-0.066 0.066,-0.156 0.066,-0.248 0,-0.59 -2.268,-1.338 -4.055,-1.338 -2.991,0 -5.076,1.7 -5.076,5.87 0,3.601 1.926,6.094 4.963,6.094 3.849,0 4.53,-3.445 4.53,-6.187 0,-0.429 -0.091,-0.565 -0.523,-0.565 h -6.09 c 0,-1.268 0.361,-2.833 2.491,-2.833 1.629,0 2.556,0.748 2.876,0.748 0.114,0 0.202,-0.091 0.25,-0.179 m -2.06,4.371 c 0,0.929 -0.071,2.537 -1.636,2.537 -1.765,0 -1.855,-1.903 -1.921,-2.537 z"
         style="fill:#424a52;fill-opacity:1;fill-rule:nonzero;stroke:none"
         transform="matrix(1.3333333,0,0,-1.3333333,1603.5012,998.5284)"
         clip-path="url(#clipPath71)"
         id="path83" />
      <path
         d="m 0,0 v -4.439 c 0,-0.058 -0.029,-0.087 -0.086,-0.087 h -0.428 c -0.06,0 -0.088,0.029 -0.088,0.087 V 0 h -1.099 c -0.057,0 -0.086,0.03 -0.086,0.089 v 0.332 c 0,0.051 0.021,0.095 0.103,0.095 H 1.2 c 0.051,0 0.09,-0.015 0.09,-0.059 0,-0.03 -0.023,-0.06 -0.031,-0.095 L 1.154,0.08 C 1.133,0.023 1.089,0 1.041,0"
         style="fill:#424a52;fill-opacity:1;fill-rule:nonzero;stroke:none"
         transform="matrix(1.3333333,0,0,-1.3333333,1609.7745,976.58627)"
         clip-path="url(#clipPath72)"
         id="path84" />
      <path
         d="m 0,0 c 0,-0.058 -0.03,-0.087 -0.089,-0.087 h -0.427 c -0.059,0 -0.087,0.029 -0.087,0.087 l -0.122,3.785 c -0.004,0.147 0,0.331 0.009,0.456 L -0.729,4.255 C -0.733,4.092 -0.761,3.909 -0.817,3.733 L -1.709,1.171 C -1.736,1.105 -1.755,1.091 -1.821,1.091 h -0.218 c -0.068,0 -0.089,0.014 -0.112,0.08 L -3.003,3.733 C -3.064,3.909 -3.085,4.092 -3.095,4.255 L -3.105,4.241 C -3.1,4.116 -3.095,3.932 -3.1,3.785 L -3.209,0 c 0,-0.058 -0.031,-0.087 -0.091,-0.087 h -0.426 c -0.058,0 -0.089,0.029 -0.089,0.087 l 0.282,4.866 c 0,0.059 0.028,0.089 0.087,0.089 h 0.478 c 0.06,0 0.06,-0.015 0.083,-0.075 l 0.868,-2.538 c 0.035,-0.111 0.065,-0.295 0.092,-0.457 h 0.019 c 0.037,0.156 0.065,0.346 0.103,0.457 l 0.866,2.538 c 0.022,0.06 0.022,0.075 0.082,0.075 h 0.48 c 0.057,0 0.087,-0.03 0.087,-0.089"
         style="fill:#424a52;fill-opacity:1;fill-rule:nonzero;stroke:none"
         transform="matrix(1.3333333,0,0,-1.3333333,1617.3333,982.50467)"
         clip-path="url(#clipPath73)"
         id="path85" />
      <path
         d="m 0,0 c 0,8.925 18.771,16.158 41.922,16.158 8.299,0 16.033,-0.931 22.54,-2.532 -7.687,3.42 -19.043,5.589 -31.71,5.589 -23.153,0 -41.92,-7.235 -41.92,-16.157 0,-5.726 7.728,-10.755 19.379,-13.624 C 3.85,-7.736 0,-4.04 0,0"
         style="fill:#a20b31;fill-opacity:1;fill-rule:nonzero;stroke:none"
         transform="matrix(1.3333333,0,0,-1.3333333,1428.5909,984.21813)"
         clip-path="url(#clipPath74)"
         id="path86" />
      <path
         d="m 0,0 c 0,7.9 8.198,14.91 26.146,16.414 2.879,0.269 5.931,0.404 9.132,0.402 0.453,0 2.409,-0.008 3.152,-0.051 -5.919,1.231 -11.162,1.693 -18.359,1.693 -23.151,0 -33.608,-7.786 -33.608,-16.712 0,-8.09 15.431,-14.792 35.568,-15.971 C 8.912,-11.495 0,-6.148 0,0"
         style="fill:#a20b31;fill-opacity:1;fill-rule:nonzero;stroke:none"
         transform="matrix(1.3333333,0,0,-1.3333333,1465.1391,989.0336)"
         clip-path="url(#clipPath75)"
         id="path87" />
      <path
         d="m -9.03,-13.28 h 630 V 5.04 h -630 z"
         style="fill:#8e1536;fill-opacity:1;fill-rule:nonzero;stroke:none"
         transform="matrix(1.3333333,0,0,-1.3333333,836,1056)"
         clip-path="url(#clipPath76)"
         id="path88" />
    </g>
    <g
       id="g246">
      <g
         id="g90">
        <g
           id="g175">
          <path
             id="path105"
             d="m 0,0 v -4.439 c 0,-0.058 -0.029,-0.087 -0.086,-0.087 h -0.428 c -0.06,0 -0.088,0.029 -0.088,0.087 V 0 h -1.099 c -0.057,0 -0.086,0.03 -0.086,0.089 v 0.332 c 0,0.051 0.021,0.095 0.103,0.095 H 1.2 c 0.051,0 0.09,-0.015 0.09,-0.059 0,-0.03 -0.023,-0.06 -0.031,-0.095 L 1.154,0.08 C 1.133,0.023 1.089,0 1.041,0"
             style="fill:#424a52;fill-opacity:1;fill-rule:nonzero;stroke:none"
             transform="matrix(1.3333333,0,0,-1.3333333,1609.7745,976.58627)"
             clip-path="url(#clipPath106)" />
          <path
             id="path107"
             d="m 0,0 c 0,-0.058 -0.03,-0.087 -0.089,-0.087 h -0.427 c -0.059,0 -0.087,0.029 -0.087,0.087 l -0.122,3.785 c -0.004,0.147 0,0.331 0.009,0.456 L -0.729,4.255 C -0.733,4.092 -0.761,3.909 -0.817,3.733 L -1.709,1.171 C -1.736,1.105 -1.755,1.091 -1.821,1.091 h -0.218 c -0.068,0 -0.089,0.014 -0.112,0.08 L -3.003,3.733 C -3.064,3.909 -3.085,4.092 -3.095,4.255 L -3.105,4.241 C -3.1,4.116 -3.095,3.932 -3.1,3.785 L -3.209,0 c 0,-0.058 -0.031,-0.087 -0.091,-0.087 h -0.426 c -0.058,0 -0.089,0.029 -0.089,0.087 l 0.282,4.866 c 0,0.059 0.028,0.089 0.087,0.089 h 0.478 c 0.06,0 0.06,-0.015 0.083,-0.075 l 0.868,-2.538 c 0.035,-0.111 0.065,-0.295 0.092,-0.457 h 0.019 c 0.037,0.156 0.065,0.346 0.103,0.457 l 0.866,2.538 c 0.022,0.06 0.022,0.075 0.082,0.075 h 0.48 c 0.057,0 0.087,-0.03 0.087,-0.089"
             style="fill:#424a52;fill-opacity:1;fill-rule:nonzero;stroke:none"
             transform="matrix(1.3333333,0,0,-1.3333333,1617.3333,982.50467)"
             clip-path="url(#clipPath108)" />
          <g
             id="g247">
            <g
               id="g248">
              <path
                 id="path91"
                 d="m 0,0 c 0,-0.408 -0.09,-0.475 -0.477,-0.475 h -2.105 c -0.386,0 -0.478,0.067 -0.478,0.475 v 12.325 h -2.967 c -0.316,0 -0.385,0.067 -0.385,0.385 v 1.949 c 0,0.316 0.069,0.385 0.385,0.385 h 9.335 c 0.453,0 0.566,-0.046 0.566,-0.25 0,-0.112 -0.022,-0.158 -0.067,-0.317 L 3.331,12.688 C 3.24,12.325 2.991,12.325 2.809,12.325 H 0 Z"
                 style="fill:#424a52;fill-opacity:1;fill-rule:nonzero;stroke:none"
                 transform="matrix(1.3333333,0,0,-1.3333333,1508.8645,999.49413)"
                 clip-path="url(#clipPath92)" />
              <path
                 id="path93"
                 d="M 0,0 C 0,-0.25 -0.045,-0.317 -0.317,-0.317 H -2.56 c -0.271,0 -0.316,0.067 -0.316,0.317 v 6.843 c 0,2.491 -0.592,2.9 -0.592,3.421 0,0.09 0.092,0.158 0.206,0.202 l 1.721,0.703 c 0.09,0.023 0.205,0.091 0.295,0.091 0.271,0 0.724,-1.019 0.838,-1.791 0.431,0.521 1.271,1.791 2.808,1.791 0.66,0 1.317,-0.228 1.317,-0.521 0,-0.092 -0.026,-0.182 -0.046,-0.228 L 2.971,8.608 C 2.944,8.54 2.876,8.405 2.787,8.405 2.65,8.405 2.244,8.654 1.721,8.654 1.021,8.654 0.296,7.885 0,7.567 Z"
                 style="fill:#424a52;fill-opacity:1;fill-rule:nonzero;stroke:none"
                 transform="matrix(1.3333333,0,0,-1.3333333,1520.3085,999.70507)"
                 clip-path="url(#clipPath94)" />
              <path
                 id="path95"
                 d="m 0,0 c -0.092,-0.023 -0.204,-0.09 -0.293,-0.09 -0.205,0 -0.547,0.792 -0.658,1.358 -0.454,-0.452 -1.246,-1.358 -2.948,-1.358 -2.084,0 -3.398,1.358 -3.398,3.488 0,3.831 4.124,3.831 5.915,3.831 v 0.7 c 0,1.02 -0.18,1.677 -1.61,1.677 -1.269,0 -2.515,-0.68 -2.81,-0.68 -0.11,0 -0.201,0.137 -0.227,0.226 l -0.45,1.382 c -0.044,0.093 -0.072,0.184 -0.072,0.272 0,0.523 2.248,1.066 3.99,1.066 2.833,0 3.9,-1.291 3.9,-3.648 V 3.852 c 0,-2.198 0.585,-2.492 0.585,-2.946 0,-0.09 -0.09,-0.158 -0.204,-0.204 m -3.102,4.667 c -0.569,0 -3.195,0.182 -3.195,-1.811 0,-0.884 0.636,-1.54 1.495,-1.54 0.839,0 1.427,0.589 1.7,0.858 z"
                 style="fill:#424a52;fill-opacity:1;fill-rule:nonzero;stroke:none"
                 transform="matrix(1.3333333,0,0,-1.3333333,1537.0516,1000.5215)"
                 clip-path="url(#clipPath96)" />
              <path
                 id="path97"
                 d="m 0,0 c 0,-0.316 -0.159,-0.361 -0.43,-0.408 l -1.903,-0.384 c -0.066,-0.022 -0.273,-0.069 -0.385,-0.069 -0.115,0 -0.16,0.091 -0.16,0.477 v 11.488 c 0,3.193 -0.43,3.012 -0.43,3.534 0,0.113 0.089,0.203 0.251,0.248 l 1.721,0.567 c 0.137,0.045 0.248,0.068 0.342,0.068 0.292,0 0.449,-0.431 0.7,-1.179 0.499,0.476 1.381,1.179 2.901,1.179 2.516,0 3.92,-1.971 3.92,-5.777 C 6.527,5.778 5.303,3.558 2.358,3.558 1.043,3.558 0.474,3.897 0,4.147 Z M 0,6.255 C 0.409,6.027 0.77,5.823 1.655,5.823 c 1.583,0 1.991,1.135 1.991,3.808 0,2.332 -0.428,3.623 -1.833,3.623 -0.951,0 -1.498,-0.566 -1.813,-0.859 z"
                 style="fill:#424a52;fill-opacity:1;fill-rule:nonzero;stroke:none"
                 transform="matrix(1.3333333,0,0,-1.3333333,1547.914,1005.3864)"
                 clip-path="url(#clipPath98)" />
              <path
                 id="path99"
                 d="m 0,0 c 0.044,-0.066 0.067,-0.156 0.067,-0.248 0,-0.59 -2.264,-1.338 -4.055,-1.338 -2.992,0 -5.073,1.7 -5.073,5.87 0,3.601 1.926,6.094 4.959,6.094 3.852,0 4.531,-3.445 4.531,-6.187 0,-0.429 -0.089,-0.565 -0.521,-0.565 h -6.096 c 0,-1.268 0.362,-2.833 2.495,-2.833 1.631,0 2.56,0.748 2.875,0.748 0.116,0 0.205,-0.091 0.251,-0.179 m -2.062,4.371 c 0,0.929 -0.07,2.537 -1.63,2.537 -1.767,0 -1.859,-1.903 -1.929,-2.537 z"
                 style="fill:#424a52;fill-opacity:1;fill-rule:nonzero;stroke:none"
                 transform="matrix(1.3333333,0,0,-1.3333333,1572.4391,998.5284)"
                 clip-path="url(#clipPath100)" />
              <path
                 id="path101"
                 d="m 0,0 c -0.07,-0.182 -0.229,-0.294 -0.315,-0.294 h -7.547 c -0.138,0 -0.228,0.091 -0.228,0.227 v 1.7 l 5.214,6.886 h -4.579 c -0.114,0 -0.158,0.135 -0.158,0.295 v 1.767 c 0,0.227 0.069,0.317 0.317,0.317 h 7.182 c 0.184,0 0.385,-0.09 0.385,-0.227 V 8.903 L -4.848,2.085 h 5.163 c 0.431,0 0.431,-0.158 0.431,-0.229 0,-0.112 -0.069,-0.201 -0.09,-0.247"
                 style="fill:#424a52;fill-opacity:1;fill-rule:nonzero;stroke:none"
                 transform="matrix(1.3333333,0,0,-1.3333333,1587.3987,999.73627)"
                 clip-path="url(#clipPath102)" />
              <path
                 id="path103"
                 d="m 0,0 c 0.045,-0.066 0.066,-0.156 0.066,-0.248 0,-0.59 -2.268,-1.338 -4.055,-1.338 -2.991,0 -5.076,1.7 -5.076,5.87 0,3.601 1.926,6.094 4.963,6.094 3.849,0 4.53,-3.445 4.53,-6.187 0,-0.429 -0.091,-0.565 -0.523,-0.565 h -6.09 c 0,-1.268 0.361,-2.833 2.491,-2.833 1.629,0 2.556,0.748 2.876,0.748 0.114,0 0.202,-0.091 0.25,-0.179 m -2.06,4.371 c 0,0.929 -0.071,2.537 -1.636,2.537 -1.765,0 -1.855,-1.903 -1.921,-2.537 z"
                 style="fill:#424a52;fill-opacity:1;fill-rule:nonzero;stroke:none"
                 transform="matrix(1.3333333,0,0,-1.3333333,1603.5012,998.5284)"
                 clip-path="url(#clipPath104)" />
              <path
                 id="path109"
                 d="m 0,0 c 0,8.925 18.771,16.158 41.922,16.158 8.299,0 16.033,-0.931 22.54,-2.532 -7.687,3.42 -19.043,5.589 -31.71,5.589 -23.153,0 -41.92,-7.235 -41.92,-16.157 0,-5.726 7.728,-10.755 19.379,-13.624 C 3.85,-7.736 0,-4.04 0,0"
                 style="fill:#a20b31;fill-opacity:1;fill-rule:nonzero;stroke:none"
                 transform="matrix(1.3333333,0,0,-1.3333333,1428.5909,984.21813)"
                 clip-path="url(#clipPath110)" />
              <path
                 id="path111"
                 d="m 0,0 c 0,7.9 8.198,14.91 26.146,16.414 2.879,0.269 5.931,0.404 9.132,0.402 0.453,0 2.409,-0.008 3.152,-0.051 -5.919,1.231 -11.162,1.693 -18.359,1.693 -23.151,0 -33.608,-7.786 -33.608,-16.712 0,-8.09 15.431,-14.792 35.568,-15.971 C 8.912,-11.495 0,-6.148 0,0"
                 style="fill:#a20b31;fill-opacity:1;fill-rule:nonzero;stroke:none"
                 transform="matrix(1.3333333,0,0,-1.3333333,1465.1391,989.0336)"
                 clip-path="url(#clipPath112)" />
            </g>
          </g>
        </g>
      </g>
    </g>
  </g>
</svg>
