<?xml version="1.0" encoding="UTF-8"?><svg id="Layer_1" xmlns="http://www.w3.org/2000/svg" xmlns:xlink="http://www.w3.org/1999/xlink" viewBox="0 0 145.6 38.1"><defs><style>.cls-1{fill:none;}.cls-2{fill:#424a52;}.cls-3{clip-path:url(#clippath-10);}.cls-4{clip-path:url(#clippath-1);}.cls-5{clip-path:url(#clippath-3);}.cls-6{clip-path:url(#clippath-4);}.cls-7{clip-path:url(#clippath-2);}.cls-8{clip-path:url(#clippath-7);}.cls-9{clip-path:url(#clippath-6);}.cls-10{clip-path:url(#clippath-9);}.cls-11{clip-path:url(#clippath-8);}.cls-12{clip-path:url(#clippath-5);}.cls-13{fill:#a20b31;}.cls-14{clip-path:url(#clippath);}</style><clipPath id="clippath"><rect class="cls-1" x="0" y="0" width="145.6" height="38.1"/></clipPath><clipPath id="clippath-1"><rect class="cls-1" y="0" width="145.6" height="38.1"/></clipPath><clipPath id="clippath-2"><rect class="cls-1" x="0" y="0" width="145.6" height="38.1"/></clipPath><clipPath id="clippath-3"><rect class="cls-1" x="0" y="0" width="145.6" height="38.1"/></clipPath><clipPath id="clippath-4"><rect class="cls-1" x="0" y="0" width="145.6" height="38.1"/></clipPath><clipPath id="clippath-5"><rect class="cls-1" x="0" y="0" width="145.6" height="38.1"/></clipPath><clipPath id="clippath-6"><rect class="cls-1" x="0" y="0" width="145.6" height="38.1"/></clipPath><clipPath id="clippath-7"><rect class="cls-1" x="0" y="0" width="145.6" height="38.1"/></clipPath><clipPath id="clippath-8"><rect class="cls-1" x="0" y="0" width="145.6" height="38.1"/></clipPath><clipPath id="clippath-9"><rect class="cls-1" x="0" y="0" width="145.6" height="38.1"/></clipPath><clipPath id="clippath-10"><rect class="cls-1" x="0" y="0" width="145.6" height="38.1"/></clipPath></defs><g id="g246"><g id="g90"><g id="g175"><g class="cls-14"><path id="path105" class="cls-2" d="M140.1,13.9v4.6c0,0,0,0,0,0h-.4c0,0,0,0,0,0v-4.6h-1.1c0,0,0,0,0,0v-.3c0,0,0,0,0,0h2.8s0,0,0,0,0,0,0,0v.3c-.1,0-.2,0-.2,0"/></g><g class="cls-4"><path id="path107" class="cls-2" d="M145.6,18.4c0,0,0,0,0,0h-.4c0,0,0,0,0,0v-3.9c-.1-.2-.1-.3-.1-.5h0c0,.2,0,.3,0,.5l-.9,2.6c0,0,0,0-.1,0h-.2c0,0,0,0-.1,0l-.8-2.6c0-.2,0-.4,0-.5h0c0,.1,0,.3,0,.5v3.9c-.1,0-.1,0-.2,0h-.4c0,0,0,0,0,0l.3-5c0,0,0,0,0,0h.5c0,0,0,0,0,0l.8,2.6c0,.1,0,.3,0,.5h0c0-.2,0-.4,0-.5l.8-2.6c0,0,0,0,0,0h.5c0,0,0,0,0,0"/></g><g id="g247"><g id="g248"><g class="cls-7"><path id="path91" class="cls-2" d="M67,31.5c0,.4,0,.5-.5.5h-2c-.4,0-.5,0-.5-.5v-12.7h-2.9c-.3,0-.4,0-.4-.4v-2c0-.3,0-.4.4-.4h9c.4,0,.5,0,.5.3s0,.2,0,.3l-.5,1.8c0,.4-.3.4-.5.4h-2.7v12.7Z"/></g><g class="cls-5"><path id="path93" class="cls-2" d="M75.3,31.7c0,.3,0,.3-.3.3h-2.2c-.3,0-.3,0-.3-.3v-7c0-2.6-.6-3-.6-3.5s0-.2.2-.2l1.7-.7c0,0,.2,0,.3,0,.3,0,.7,1,.8,1.8.4-.5,1.2-1.8,2.7-1.8s1.3.2,1.3.5,0,.2,0,.2l-.7,2c0,0,0,.2-.2.2-.1,0-.5-.3-1-.3s-1.4.8-1.7,1.1v7.8Z"/></g><g class="cls-6"><path id="path95" class="cls-2" d="M87.4,32.3c0,0-.2,0-.3,0-.2,0-.5-.8-.6-1.4-.4.5-1.2,1.4-2.8,1.4s-3.3-1.4-3.3-3.6c0-3.9,4-3.9,5.7-3.9v-.7c0-1-.2-1.7-1.6-1.7s-2.4.7-2.7.7-.2-.1-.2-.2l-.4-1.4c0,0,0-.2,0-.3,0-.5,2.2-1.1,3.9-1.1,2.7,0,3.8,1.3,3.8,3.7v4.5c0,2.3.6,2.6.6,3s0,.2-.2.2M86.1,26.8c-.5,0-3.1-.2-3.1,1.9s.6,1.6,1.4,1.6,1.4-.6,1.6-.9v-2.6Z"/></g><g class="cls-12"><path id="path97" class="cls-2" d="M95.3,36c0,.3-.2.4-.4.4l-1.8.4c0,0-.3,0-.4,0s-.2,0-.2-.5v-11.8c0-3.3-.4-3.1-.4-3.6s0-.2.2-.3l1.7-.6c.1,0,.2,0,.3,0,.3,0,.4.4.7,1.2.5-.5,1.3-1.2,2.8-1.2,2.4,0,3.8,2,3.8,5.9s-1.2,6.4-4,6.4-1.8-.3-2.3-.6v4.3ZM95.3,29.6c.4.2.7.4,1.6.4,1.5,0,1.9-1.2,1.9-3.9s-.4-3.7-1.8-3.7-1.4.6-1.8.9v6.3Z"/></g><g class="cls-9"><path id="path99" class="cls-2" d="M113.1,30.8c0,0,0,.2,0,.3,0,.6-2.2,1.4-3.9,1.4-2.9,0-4.9-1.7-4.9-6s1.9-6.3,4.8-6.3,4.4,3.5,4.4,6.4,0,.6-.5.6h-5.9c0,1.3.3,2.9,2.4,2.9s2.5-.8,2.8-.8.2,0,.2.2M110.5,24.9c0-1,0-2.6-1.6-2.6s-1.8,2-1.9,2.6h3.4Z"/></g><g class="cls-8"><path id="path101" class="cls-2" d="M123.9,31.7c0,.2-.2.3-.3.3h-7.3c-.1,0-.2,0-.2-.2v-1.7l5-7.1h-4.4c-.1,0-.2-.1-.2-.3v-1.8c0-.2,0-.3.3-.3h6.9c.2,0,.4,0,.4.2v1.8l-4.9,7h5c.4,0,.4.2.4.2,0,.1,0,.2,0,.3"/></g><g class="cls-11"><path id="path103" class="cls-2" d="M135.6,30.8c0,0,0,.2,0,.3,0,.6-2.2,1.4-3.9,1.4-2.9,0-4.9-1.7-4.9-6s1.9-6.3,4.8-6.3,4.4,3.5,4.4,6.4,0,.6-.5.6h-5.9c0,1.3.3,2.9,2.4,2.9s2.5-.8,2.8-.8.2,0,.2.2M133,24.9c0-1,0-2.6-1.6-2.6s-1.8,2-1.9,2.6h3.4Z"/></g><g class="cls-10"><path id="path109" class="cls-13" d="M8.9,19.7C8.9,10.6,27,3.1,49.4,3.1s15.5,1,21.8,2.6C63.7,2.2,52.7,0,40.5,0,18.1,0,0,7.4,0,16.6s7.5,11,18.7,14c-6.1-2.9-9.9-6.7-9.9-10.9"/></g><g class="cls-3"><path id="path111" class="cls-13" d="M35.3,23.4c0-8.1,7.9-15.3,25.3-16.9,2.8-.3,5.7-.4,8.8-.4.4,0,2.3,0,3,0-5.7-1.3-10.8-1.7-17.7-1.7-22.4,0-32.5,8-32.5,17.2s14.9,15.2,34.4,16.4c-12.7-2.8-21.3-8.3-21.3-14.6"/></g></g></g></g></g></g></svg>