<?xml version="1.0" encoding="utf-8"?>
<!-- Generator: Adobe Illustrator 29.4.0, SVG Export Plug-In . SVG Version: 9.03 Build 0)  -->
<svg version="1.0" id="svg2" xmlns:svg="http://www.w3.org/2000/svg"
	 xmlns="http://www.w3.org/2000/svg" xmlns:xlink="http://www.w3.org/1999/xlink" x="0px" y="0px" viewBox="0 0 885.83 318.9"
	 style="enable-background:new 0 0 885.83 318.9;" xml:space="preserve">
<style type="text/css">
	.st0{fill:#231F20;}
	.st1{fill:#E51535;}
</style>
<g id="layer1">
	<g id="g3546" transform="matrix(4.6833423,0,0,4.6833423,-2179.7583,-3914.9763)">
		<path id="path2588" class="st0" d="M479.86,882.53c0,2.04-1.23,2.55-2.25,2.55c-1.02,0-2.25-0.51-2.25-2.55v-3.74h0.8v3.95
			c0,0.83,0.36,1.71,1.45,1.71c1.09,0,1.45-0.87,1.45-1.71v-3.95h0.8V882.53z"/>
		<path id="path2590" class="st0" d="M488.39,878.79h1.05l2.48,4.3c0.13,0.23,0.34,0.64,0.41,0.85h0.04
			c-0.02-0.21-0.04-0.5-0.04-0.77v-4.38h0.8v6.16h-1.06l-2.47-4.35c-0.13-0.22-0.34-0.64-0.42-0.85h-0.04
			c0.02,0.21,0.04,0.5,0.04,0.77v4.43h-0.8V878.79z"/>
		<path id="path2592" class="st0" d="M502.47,884.95h-0.8v-6.16h0.8V884.95z"/>
		<path id="path2594" class="st0" d="M512.75,883.44c0.09,0.25,0.15,0.5,0.21,0.75h0.04c0.06-0.25,0.12-0.5,0.21-0.75l1.54-4.65
			h0.82l-2.1,6.16h-1.03l-2.05-6.16h0.87L512.75,883.44z"/>
		<path id="path2596" class="st0" d="M523.49,878.79h3.7v0.64h-2.91v2.01h2.76v0.64h-2.76v2.23h3v0.64h-3.79V878.79z"/>
		<path id="path2598" class="st0" d="M535.52,878.79h2.12c1.06,0,1.89,0.52,1.89,1.65c0,1.19-0.81,1.47-1.12,1.58l1.47,2.93h-0.95
			l-1.27-2.79h-1.33v2.79h-0.8V878.79z M536.31,881.52h1.26c0.9,0,1.16-0.55,1.16-1.02c0-1.03-0.89-1.07-1.25-1.07h-1.17V881.52z"/>
		<path id="path2600" class="st0" d="M548.29,883.49c0.11,0.43,0.46,0.95,1.28,0.95c0.78,0,1.19-0.55,1.19-1.07
			c0-0.66-0.42-0.87-0.65-0.98l-1.49-0.69c-0.58-0.27-0.92-0.71-0.92-1.35c0-1.2,1.05-1.69,1.93-1.69c0.87,0,1.59,0.3,1.89,1.12
			l-0.78,0.26c-0.15-0.58-0.67-0.74-1.11-0.74c-0.76,0-1.08,0.43-1.08,0.99c0,0.61,0.42,0.8,0.81,0.97l1.11,0.48
			c0.38,0.16,1.14,0.54,1.14,1.6c0,0.58-0.36,1.73-2.11,1.73c-1.35,0-1.85-0.85-1.98-1.31L548.29,883.49z"/>
		<path id="path2602" class="st0" d="M560.7,884.95h-0.8v-6.16h0.8V884.95z"/>
		<path id="path2604" class="st0" d="M570.42,879.48h-1.79v-0.69h4.38v0.69h-1.79v5.47h-0.8V879.48z"/>
		<path id="path2606" class="st0" d="M580.93,878.79h3.7v0.64h-2.91v2.01h2.76v0.64h-2.76v2.23h2.99v0.64h-3.79V878.79z
			 M582.9,877.16h0.94l-1.23,1.24h-0.61L582.9,877.16z"/>
		<path id="path2608" class="st0" d="M479.87,894.6c0,2.04-1.23,2.55-2.25,2.55c-1.02,0-2.25-0.51-2.25-2.55v-3.74h0.8v3.95
			c0,0.83,0.36,1.71,1.45,1.71c1.09,0,1.45-0.88,1.45-1.71v-3.95h0.8V894.6z"/>
		<path id="path2610" class="st0" d="M488.35,890.86h1.06l2.48,4.3c0.13,0.22,0.34,0.64,0.42,0.85h0.04
			c-0.02-0.21-0.04-0.5-0.04-0.77v-4.38h0.79v6.16h-1.06l-2.47-4.35c-0.13-0.22-0.34-0.64-0.42-0.85h-0.04
			c0.02,0.21,0.04,0.5,0.04,0.77v4.43h-0.8V890.86z"/>
		<path id="path2612" class="st0" d="M502.38,897.03h-0.8v-6.16h0.8V897.03z"/>
		<path id="path2614" class="st0" d="M512.61,895.51c0.09,0.25,0.15,0.5,0.21,0.75h0.04c0.06-0.25,0.12-0.5,0.21-0.75l1.54-4.65
			h0.82l-2.1,6.16h-1.03l-2.05-6.16h0.88L512.61,895.51z"/>
		<path id="path2616" class="st0" d="M523.29,890.86h3.71v0.64h-2.91v2.01h2.76v0.64h-2.76v2.23h2.99v0.64h-3.79V890.86z"/>
		<path id="path2618" class="st0" d="M535.27,890.86h2.12c1.05,0,1.89,0.52,1.89,1.65c0,1.19-0.81,1.47-1.12,1.58l1.47,2.93h-0.95
			l-1.27-2.79h-1.33v2.79h-0.8V890.86z M536.06,893.6h1.26c0.9,0,1.16-0.54,1.16-1.02c0-1.03-0.89-1.08-1.25-1.08h-1.17V893.6z"/>
		<path id="path2620" class="st0" d="M547.99,895.56c0.11,0.43,0.46,0.95,1.28,0.95c0.78,0,1.2-0.55,1.2-1.07
			c0-0.67-0.42-0.88-0.65-0.98l-1.49-0.69c-0.58-0.27-0.92-0.71-0.92-1.35c0-1.2,1.05-1.69,1.93-1.69c0.87,0,1.59,0.3,1.89,1.12
			l-0.78,0.26c-0.15-0.58-0.67-0.74-1.11-0.74c-0.76,0-1.08,0.43-1.08,1c0,0.6,0.42,0.79,0.81,0.97l1.11,0.49
			c0.38,0.17,1.14,0.54,1.14,1.6c0,0.58-0.35,1.73-2.11,1.73c-1.35,0-1.85-0.85-1.98-1.31L547.99,895.56z"/>
		<path id="path2622" class="st0" d="M560.35,897.03h-0.8v-6.16h0.8V897.03z"/>
		<path id="path2624" class="st0" d="M570.02,891.56h-1.79v-0.69h4.38v0.69h-1.79v5.47h-0.8V891.56z"/>
		<path id="path2626" class="st0" d="M582.08,894.51l-2.18-3.64h0.95l1.39,2.41c0.09,0.16,0.17,0.35,0.25,0.52h0.02
			c0.08-0.17,0.16-0.36,0.26-0.52l1.39-2.41h0.9l-2.18,3.64v2.52h-0.8V894.51z"/>
		<path id="path2628" class="st0" d="M475.41,887.42v0.39l109.52-0.01v-0.39L475.41,887.42z"/>
		<path id="path2630" class="st0" d="M480.88,870.04h0.86c1.78,0,2.17-0.68,2.17-2.53v-5.63l-6.84-12.25
			c-1.39-2.49-1.85-2.81-3.6-2.81h-0.32v-1.07c1.53,0.04,3.03,0.11,4.49,0.11c1.5,0,3.03-0.07,4.52-0.11v1.07h-0.64
			c-0.75,0-1.32,0.25-1.32,1.14c0,0.5,0.43,1.46,0.78,2.1l5.27,9.51l4.91-9.4c0.29-0.54,0.96-1.89,0.96-2.53
			c0-0.61-0.43-0.82-1.39-0.82h-0.68v-1.07c1.46,0.04,2.42,0.11,3.53,0.11c1.17,0,2.39-0.07,3.53-0.11v1.07h-0.89
			c-1.46,0-1.78,0.46-2.89,2.53l-6.3,11.79v6.38c0,2.1,0.78,2.53,2.17,2.53h0.71v1.07c-1.5-0.04-3.03-0.11-4.52-0.11
			c-1.57,0-3.2,0.07-4.52,0.11V870.04z"/>
		<path id="path2632" class="st0" d="M512.9,845.29c7.09,0,13.29,5.73,13.29,13.14c0,6.27-4.84,13.14-13.39,13.14
			c-7.69,0-13.25-5.8-13.25-12.86C499.54,850.77,505.88,845.29,512.9,845.29 M512.79,846.79c-4.99,0-9.69,3.06-9.69,11.33
			c0,5.77,3.78,12.11,9.9,12.11c6.59,0,9.62-4.84,9.62-11.4C522.63,853.09,519.03,846.79,512.79,846.79"/>
		<path id="path2634" class="st0" d="M531.78,870.04h0.64c1.64,0,2.35-0.61,2.35-2.92v-17.38c0-2.31-0.71-2.92-2.35-2.92h-0.64
			v-1.07c1.25,0.04,2.96,0.11,4.56,0.11c2.39,0,4.1-0.11,5.66-0.11c6.31,0,7.45,4.95,7.45,6.59c0,4.67-3.28,6.09-5.06,6.66
			l4.77,7.91c1.96,3.21,2.53,3.42,5.41,3.6v0.75c-0.68,0-1.32,0.03-1.99,0.03c-3.13,0-4.6-0.39-6.48-3.49l-4.17-6.8
			c-0.82-1.32-1.28-1.39-4.02-1.46v6.73c0,3.38,0.61,3.78,2.03,3.78h1.03v1.07c-1.57-0.04-3.06-0.11-4.63-0.11
			c-1.6,0-3.31,0.07-4.56,0.11V870.04z M537.91,857.93c0.61,0.21,1.5,0.25,2.42,0.25c3.2,0,5.84-1.46,5.84-5.16
			c0-1.57-1.07-5.91-6.02-5.91c-0.85,0-1.53,0.07-2.24,0.14V857.93z"/>
		<path id="path2636" class="st0" d="M560.13,870.04h0.64c1.64,0,2.35-0.61,2.35-2.92v-17.38c0-2.31-0.71-2.92-2.35-2.92h-0.64
			v-1.07c1.25,0.04,2.96,0.11,4.56,0.11c1.57,0,3.06-0.07,4.63-0.11v1.07h-1.03c-1.42,0-2.03,0.39-2.03,3.78v8.37l7.8-8.69
			c0.36-0.39,1.71-1.82,1.71-2.53c0-0.64-0.5-0.93-1.18-0.93h-0.64v-1.07c1.32,0.04,2.81,0.11,4.2,0.11c1.42,0,2.81-0.07,4.24-0.11
			v1.07h-0.64c-1.74,0-2.35,0.32-4.45,2.53l-6.88,7.23l9.19,10.76c1.99,2.35,3.03,2.71,4.49,2.71h0.54v1.07
			c-1.14-0.04-2.32-0.11-3.46-0.11c-1.14,0-2.32,0.07-3.46,0.11c-0.18-1.03-0.28-1.57-2.32-3.88l-7.3-8.37l-1.85,1.96v5.45
			c0,3.38,0.61,3.78,2.03,3.78h1.03v1.07c-1.57-0.04-3.06-0.11-4.63-0.11c-1.6,0-3.31,0.07-4.56,0.11V870.04z"/>
		<path id="path2638" class="st1" d="M630.34,890.49c-9.2,0-17.17-5.69-17.17-18.12v-29.56h-20.56v54.24h54.24v-19.79
			C645.22,885.14,639.49,890.49,630.34,890.49"/>
		<path id="path2640" class="st1" d="M630.34,879.38c4.94,0,6.45-4.34,6.45-8.58v-27.99h-12.62v27.99
			C624.16,875.22,625.73,879.38,630.34,879.38"/>
	</g>
</g>
</svg>
